{"glyphs":{"0":{"ha":753,"x_min":95,"x_max":658,"o":"m 502 747 q 517 732 515 745 l 517 129 q 502 114 514 115 l 251 114 q 236 129 237 117 l 236 732 q 251 747 239 746 l 502 747 m 95 164 q 235 -7 95 14 q 290 -11 260 -11 l 463 -11 q 655 119 633 -11 q 658 164 658 141 l 658 697 q 530 867 658 842 q 463 872 499 872 l 290 872 q 100 753 126 872 q 95 697 95 727 l 95 164 z "},"1":{"ha":590,"x_min":30,"x_max":555,"o":"m 555 113 l 406 113 l 406 861 l 278 861 l 30 701 l 87 606 l 267 716 l 267 113 l 76 113 l 76 0 l 555 0 l 555 113 z "},"2":{"ha":631,"x_min":57,"x_max":581,"o":"m 57 256 l 57 0 l 576 0 l 576 119 l 197 119 l 197 256 q 214 298 197 288 q 221 302 218 301 l 464 425 q 568 511 548 468 q 581 578 581 540 l 581 686 q 395 867 581 869 q 392 867 393 867 l 76 861 l 76 742 l 423 742 q 441 724 439 739 l 441 568 q 423 544 439 553 l 172 416 q 80 353 99 381 q 57 256 57 319 z "},"3":{"ha":629,"x_min":34,"x_max":544,"o":"m 544 182 l 544 300 q 461 445 543 408 q 537 579 536 484 l 537 681 q 358 867 537 857 q 332 867 345 867 l 38 861 l 38 742 l 377 742 q 395 724 393 739 l 395 519 q 377 502 392 503 l 114 502 l 114 384 l 384 384 q 401 365 400 381 l 401 138 q 384 121 399 122 l 34 121 l 34 0 l 335 -5 q 536 115 499 -8 q 544 182 544 146 z "},"4":{"ha":739,"x_min":22,"x_max":697,"o":"m 570 0 l 570 195 l 697 195 l 697 312 l 570 312 l 570 861 l 437 865 q 355 850 387 865 q 311 818 324 836 q 269 746 298 800 l 267 745 l 22 293 l 22 195 l 430 195 l 430 0 l 570 0 m 384 728 q 404 742 395 742 l 430 742 l 430 312 l 159 312 l 384 728 z "},"5":{"ha":636,"x_min":56,"x_max":568,"o":"m 203 533 l 203 741 l 536 741 l 536 861 l 65 861 l 65 414 l 410 414 q 427 396 426 411 l 427 138 q 410 121 425 122 l 56 121 l 56 0 l 363 -5 q 568 164 559 -9 q 568 180 568 172 l 568 350 q 387 532 568 521 q 361 533 373 533 l 203 533 z "},"6":{"ha":692,"x_min":94,"x_max":636,"o":"m 431 -5 q 636 180 635 -3 l 636 355 q 525 526 636 496 q 438 536 488 536 l 236 536 l 236 723 q 254 741 239 739 l 593 741 l 593 861 l 302 867 q 102 746 138 869 q 94 680 94 715 l 94 175 q 298 -5 96 -4 l 431 -5 m 254 121 q 236 138 237 123 l 236 418 l 477 418 q 495 400 494 415 l 495 138 q 477 121 492 122 l 254 121 z "},"7":{"ha":571,"x_min":23,"x_max":543,"o":"m 237 -4 l 543 738 q 426 863 540 861 l 23 863 l 23 749 l 378 750 q 388 730 395 747 l 88 -4 l 237 -4 z "},"8":{"ha":746,"x_min":87,"x_max":659,"o":"m 452 -5 q 655 137 631 -5 q 659 182 659 159 l 659 300 q 576 445 658 408 q 652 579 651 484 l 652 681 q 448 867 650 865 l 298 867 q 94 681 95 864 l 94 579 q 170 445 95 483 q 87 300 88 407 l 87 182 q 237 -1 87 24 q 294 -5 264 -5 l 452 -5 m 228 138 l 228 368 q 245 385 231 384 l 500 385 q 518 368 517 382 l 518 138 q 500 121 515 122 l 245 121 q 228 138 229 123 m 235 518 l 235 724 q 252 742 237 741 l 494 742 q 511 724 510 739 l 511 518 q 494 500 509 502 l 252 500 q 235 518 236 503 z "},"9":{"ha":692,"x_min":56,"x_max":598,"o":"m 598 182 l 598 686 q 393 867 595 865 l 260 867 q 56 681 57 864 l 56 498 q 170 328 56 357 q 252 319 205 319 l 456 319 l 456 138 q 438 121 453 122 l 88 121 l 88 0 l 389 -5 q 590 115 553 -8 q 598 182 598 146 m 214 435 q 197 453 198 438 l 197 723 q 214 741 199 739 l 438 741 q 456 723 454 738 l 456 435 l 214 435 z "},"A":{"ha":730,"x_min":15,"x_max":718,"o":"m 718 0 l 515 861 l 374 865 q 252 826 283 867 q 210 726 229 798 l 15 0 l 144 0 l 198 216 l 530 216 l 579 0 l 718 0 m 332 727 q 347 742 336 741 l 411 742 l 505 334 l 229 334 l 332 727 z "},"Æ":{"ha":1070,"x_min":4,"x_max":1023,"o":"m 140 0 l 240 239 l 529 239 l 529 0 l 1023 0 l 1023 121 l 669 121 l 669 374 l 991 374 l 991 494 l 669 494 l 669 741 l 1016 741 l 1016 861 l 483 863 q 366 826 397 863 q 315 726 346 803 l 4 0 l 140 0 m 444 727 q 460 742 452 742 l 529 742 l 529 358 l 288 358 l 444 727 z "},"Á":{"ha":730,"x_min":15,"x_max":718,"o":"m 718 0 l 515 861 l 374 865 q 252 826 283 867 q 210 726 229 798 l 15 0 l 144 0 l 198 216 l 530 216 l 579 0 l 718 0 m 332 727 q 347 742 336 741 l 411 742 l 505 334 l 229 334 l 332 727 m 330 926 l 414 1127 l 552 1126 l 427 926 l 330 926 z "},"Ă":{"ha":730,"x_min":15,"x_max":718,"o":"m 718 0 l 515 861 l 374 865 q 252 826 283 867 q 210 726 229 798 l 15 0 l 144 0 l 198 216 l 530 216 l 579 0 l 718 0 m 332 727 q 347 742 336 741 l 411 742 l 505 334 l 229 334 l 332 727 m 224 1107 q 278 958 224 993 q 400 933 320 933 q 549 1001 518 933 q 567 1107 567 1039 l 481 1107 q 449 1024 481 1040 q 400 1016 430 1016 q 316 1062 328 1016 q 312 1107 312 1080 l 224 1107 z "},"Â":{"ha":730,"x_min":15,"x_max":718,"o":"m 718 0 l 515 861 l 374 865 q 252 826 283 867 q 210 726 229 798 l 15 0 l 144 0 l 198 216 l 530 216 l 579 0 l 718 0 m 332 727 q 347 742 336 741 l 411 742 l 505 334 l 229 334 l 332 727 m 452 1120 l 312 1120 l 182 926 l 293 926 l 381 1057 l 460 926 l 575 926 l 452 1120 z "},"Ä":{"ha":730,"x_min":15,"x_max":718,"o":"m 718 0 l 515 861 l 374 865 q 252 826 283 867 q 210 726 229 798 l 15 0 l 144 0 l 198 216 l 530 216 l 579 0 l 718 0 m 332 727 q 347 742 336 741 l 411 742 l 505 334 l 229 334 l 332 727 m 323 955 l 323 1086 l 203 1086 l 203 955 l 323 955 m 567 955 l 567 1086 l 448 1086 l 448 955 l 567 955 z "},"À":{"ha":730,"x_min":15,"x_max":718,"o":"m 718 0 l 515 861 l 374 865 q 252 826 283 867 q 210 726 229 798 l 15 0 l 144 0 l 198 216 l 530 216 l 579 0 l 718 0 m 332 727 q 347 742 336 741 l 411 742 l 505 334 l 229 334 l 332 727 m 214 1126 l 351 1127 l 441 926 l 346 926 l 214 1126 z "},"Ā":{"ha":730,"x_min":15,"x_max":718,"o":"m 718 0 l 515 861 l 374 865 q 252 826 283 867 q 210 726 229 798 l 15 0 l 144 0 l 198 216 l 530 216 l 579 0 l 718 0 m 332 727 q 347 742 336 741 l 411 742 l 505 334 l 229 334 l 332 727 m 562 1058 l 203 1058 l 203 960 l 562 960 l 562 1058 z "},"Ą":{"ha":730,"x_min":15,"x_max":742,"o":"m 332 727 q 347 742 336 741 l 411 742 l 505 334 l 229 334 l 332 727 m 742 -286 l 742 -195 l 631 -195 q 621 -186 623 -193 l 621 -126 q 632 -103 623 -114 l 719 0 l 718 0 l 515 861 l 374 865 q 252 826 283 867 q 210 726 229 798 l 15 0 l 144 0 l 198 216 l 530 216 l 579 0 l 625 0 l 551 -68 q 515 -157 515 -100 l 515 -189 q 595 -282 515 -267 q 652 -286 618 -286 l 742 -286 z "},"Å":{"ha":730,"x_min":15,"x_max":718,"o":"m 718 0 l 515 861 l 374 865 q 252 826 283 867 q 210 726 229 798 l 15 0 l 144 0 l 198 216 l 530 216 l 579 0 l 718 0 m 332 727 q 347 742 336 741 l 411 742 l 505 334 l 229 334 l 332 727 m 519 1032 q 464 1150 519 1126 q 384 1162 434 1162 q 264 1109 288 1162 q 252 1032 252 1081 q 309 916 252 939 q 384 903 338 903 q 511 968 488 903 q 519 1032 519 994 m 323 1032 q 343 1095 323 1085 q 384 1101 357 1101 q 444 1077 434 1101 q 449 1032 449 1062 q 422 970 449 981 q 384 964 407 964 q 326 996 334 964 q 323 1032 323 1009 z "},"Ã":{"ha":730,"x_min":15,"x_max":718,"o":"m 718 0 l 515 861 l 374 865 q 252 826 283 867 q 210 726 229 798 l 15 0 l 144 0 l 198 216 l 530 216 l 579 0 l 718 0 m 332 727 q 347 742 336 741 l 411 742 l 505 334 l 229 334 l 332 727 m 269 955 q 301 1009 270 1008 q 385 979 317 1009 q 472 956 438 956 q 570 1074 562 956 q 571 1103 571 1088 l 484 1103 q 457 1051 484 1055 q 448 1050 452 1050 q 362 1078 427 1050 q 275 1101 311 1101 q 191 1028 206 1101 q 184 956 184 1000 l 269 955 z "},"B":{"ha":753,"x_min":95,"x_max":675,"o":"m 675 182 l 675 294 q 587 441 674 407 q 655 574 654 481 l 655 681 q 450 867 652 869 l 95 861 l 95 0 l 468 -5 q 667 119 633 -8 q 675 182 675 148 m 517 381 q 534 363 533 378 l 534 133 q 517 115 532 117 l 233 115 l 233 381 l 517 381 m 496 749 q 514 731 513 746 l 514 513 q 496 495 511 496 l 233 495 l 233 749 l 496 749 z "},"C":{"ha":591,"x_min":79,"x_max":567,"o":"m 567 125 l 236 125 q 221 140 222 127 l 221 722 q 236 736 224 735 l 567 736 l 567 861 l 274 861 q 81 730 102 861 q 79 688 79 709 l 79 175 q 216 4 79 26 q 274 0 243 0 l 567 0 l 567 125 z "},"Ć":{"ha":591,"x_min":79,"x_max":567,"o":"m 567 125 l 236 125 q 221 140 222 127 l 221 722 q 236 736 224 735 l 567 736 l 567 861 l 274 861 q 81 730 102 861 q 79 688 79 709 l 79 175 q 216 4 79 26 q 274 0 243 0 l 567 0 l 567 125 m 293 926 l 377 1127 l 515 1126 l 391 926 l 293 926 z "},"Č":{"ha":591,"x_min":79,"x_max":567,"o":"m 567 125 l 236 125 q 221 140 222 127 l 221 722 q 236 736 224 735 l 567 736 l 567 861 l 274 861 q 81 730 102 861 q 79 688 79 709 l 79 175 q 216 4 79 26 q 274 0 243 0 l 567 0 l 567 125 m 292 935 l 431 935 l 562 1128 l 450 1128 l 362 998 l 283 1128 l 168 1128 l 292 935 z "},"Ç":{"ha":591,"x_min":79,"x_max":567,"o":"m 567 125 l 236 125 q 221 140 222 127 l 221 722 q 236 736 224 735 l 567 736 l 567 861 l 274 861 q 81 730 102 861 q 79 688 79 709 l 79 175 q 216 4 79 26 q 274 0 243 0 l 294 0 l 266 -132 l 378 -132 q 388 -141 387 -134 l 388 -198 q 378 -208 385 -206 l 251 -208 l 251 -286 l 353 -286 q 473 -178 472 -283 l 473 -148 q 389 -62 473 -71 q 365 -61 377 -61 l 350 -61 l 362 0 l 567 0 l 567 125 z "},"D":{"ha":757,"x_min":95,"x_max":675,"o":"m 517 747 q 534 730 533 745 l 534 132 q 517 114 532 115 l 233 114 l 233 747 l 517 747 m 95 0 l 468 -7 q 675 160 665 -11 q 675 180 675 171 l 675 681 q 534 864 675 842 q 471 868 505 868 l 95 861 l 95 0 z "},"Ď":{"ha":757,"x_min":95,"x_max":675,"o":"m 517 747 q 534 730 533 745 l 534 132 q 517 114 532 115 l 233 114 l 233 747 l 517 747 m 95 0 l 468 -7 q 675 160 665 -11 q 675 180 675 171 l 675 681 q 534 864 675 842 q 471 868 505 868 l 95 861 l 95 0 m 309 935 l 449 935 l 579 1128 l 468 1128 l 380 998 l 301 1128 l 186 1128 l 309 935 z "},"Đ":{"ha":757,"x_min":24,"x_max":675,"o":"m 517 747 q 534 730 533 745 l 534 132 q 517 114 532 115 l 233 114 l 233 381 l 381 381 l 381 490 l 233 490 l 233 747 l 517 747 m 95 0 l 468 -7 q 675 160 665 -11 q 675 180 675 171 l 675 681 q 534 864 675 842 q 471 868 505 868 l 95 861 l 95 490 l 24 490 l 24 381 l 95 381 l 95 0 z "},"E":{"ha":635,"x_min":95,"x_max":591,"o":"m 591 0 l 591 121 l 233 121 l 233 378 l 559 378 l 559 498 l 233 498 l 233 741 l 585 741 l 585 861 l 95 861 l 95 0 l 591 0 z "},"É":{"ha":635,"x_min":95,"x_max":591,"o":"m 591 0 l 591 121 l 233 121 l 233 378 l 559 378 l 559 498 l 233 498 l 233 741 l 585 741 l 585 861 l 95 861 l 95 0 l 591 0 m 289 926 l 373 1127 l 511 1126 l 387 926 l 289 926 z "},"Ě":{"ha":635,"x_min":95,"x_max":591,"o":"m 591 0 l 591 121 l 233 121 l 233 378 l 559 378 l 559 498 l 233 498 l 233 741 l 585 741 l 585 861 l 95 861 l 95 0 l 591 0 m 281 935 l 420 935 l 551 1128 l 439 1128 l 351 998 l 273 1128 l 157 1128 l 281 935 z "},"Ê":{"ha":635,"x_min":95,"x_max":591,"o":"m 591 0 l 591 121 l 233 121 l 233 378 l 559 378 l 559 498 l 233 498 l 233 741 l 585 741 l 585 861 l 95 861 l 95 0 l 591 0 m 411 1120 l 271 1120 l 141 926 l 252 926 l 340 1057 l 419 926 l 534 926 l 411 1120 z "},"Ë":{"ha":635,"x_min":95,"x_max":591,"o":"m 591 0 l 591 121 l 233 121 l 233 378 l 559 378 l 559 498 l 233 498 l 233 741 l 585 741 l 585 861 l 95 861 l 95 0 l 591 0 m 283 955 l 283 1086 l 164 1086 l 164 955 l 283 955 m 528 955 l 528 1086 l 408 1086 l 408 955 l 528 955 z "},"Ė":{"ha":635,"x_min":95,"x_max":591,"o":"m 591 0 l 591 121 l 233 121 l 233 378 l 559 378 l 559 498 l 233 498 l 233 741 l 585 741 l 585 861 l 95 861 l 95 0 l 591 0 m 404 951 l 404 1093 l 279 1093 l 279 951 l 404 951 z "},"È":{"ha":635,"x_min":95,"x_max":591,"o":"m 591 0 l 591 121 l 233 121 l 233 378 l 559 378 l 559 498 l 233 498 l 233 741 l 585 741 l 585 861 l 95 861 l 95 0 l 591 0 m 175 1126 l 312 1127 l 401 926 l 307 926 l 175 1126 z "},"Ē":{"ha":635,"x_min":95,"x_max":591,"o":"m 591 0 l 591 121 l 233 121 l 233 378 l 559 378 l 559 498 l 233 498 l 233 741 l 585 741 l 585 861 l 95 861 l 95 0 l 591 0 m 521 1058 l 163 1058 l 163 960 l 521 960 l 521 1058 z "},"Ę":{"ha":635,"x_min":95,"x_max":614,"o":"m 591 0 l 591 121 l 233 121 l 233 378 l 559 378 l 559 498 l 233 498 l 233 741 l 585 741 l 585 861 l 95 861 l 95 0 l 498 0 l 423 -68 q 388 -157 388 -100 l 388 -189 q 468 -282 388 -267 q 525 -286 491 -286 l 614 -286 l 614 -195 l 503 -195 q 494 -186 495 -193 l 494 -126 q 505 -103 495 -114 l 591 0 z "},"Ð":{"ha":757,"x_min":24,"x_max":675,"o":"m 517 747 q 534 730 533 745 l 534 132 q 517 114 532 115 l 233 114 l 233 381 l 381 381 l 381 490 l 233 490 l 233 747 l 517 747 m 95 0 l 468 -7 q 675 160 665 -11 q 675 180 675 171 l 675 681 q 534 864 675 842 q 471 868 505 868 l 95 861 l 95 490 l 24 490 l 24 381 l 95 381 l 95 0 z "},"€":{"ha":637,"x_min":47,"x_max":598,"o":"m 598 689 l 598 814 l 319 814 q 129 689 152 814 q 125 640 125 666 l 125 529 l 47 529 l 47 448 l 125 448 l 125 374 l 47 374 l 47 293 l 125 293 l 125 175 q 256 5 125 28 q 319 0 285 0 l 598 0 l 598 125 l 281 125 q 266 138 267 127 l 266 293 l 454 293 l 454 374 l 266 374 l 266 448 l 454 448 l 454 529 l 266 529 l 266 675 q 281 689 269 688 l 598 689 z "},"F":{"ha":590,"x_min":95,"x_max":572,"o":"m 548 484 l 233 484 l 233 741 l 572 741 l 572 861 l 95 861 l 95 0 l 233 0 l 233 365 l 548 365 l 548 484 z "},"G":{"ha":728,"x_min":81,"x_max":662,"o":"m 467 -11 q 661 130 644 -11 q 662 164 662 148 l 662 463 l 392 463 l 392 346 l 526 346 l 526 129 q 513 114 524 115 l 237 114 q 222 129 224 117 l 222 732 q 237 747 225 746 l 646 747 l 646 872 l 277 872 q 87 753 113 872 q 81 697 81 727 l 81 164 q 221 -7 81 14 q 277 -11 247 -11 l 467 -11 z "},"Ğ":{"ha":728,"x_min":81,"x_max":662,"o":"m 467 -11 q 661 130 644 -11 q 662 164 662 148 l 662 463 l 392 463 l 392 346 l 526 346 l 526 129 q 513 114 524 115 l 237 114 q 222 129 224 117 l 222 732 q 237 747 225 746 l 646 747 l 646 872 l 277 872 q 87 753 113 872 q 81 697 81 727 l 81 164 q 221 -7 81 14 q 277 -11 247 -11 l 467 -11 m 221 1107 q 275 958 221 993 q 397 933 317 933 q 547 1001 515 933 q 564 1107 564 1039 l 479 1107 q 446 1024 479 1040 q 397 1016 427 1016 q 313 1062 326 1016 q 309 1107 309 1080 l 221 1107 z "},"H":{"ha":798,"x_min":95,"x_max":704,"o":"m 564 0 l 704 0 l 704 861 l 564 861 l 564 498 l 233 498 l 233 861 l 95 861 l 95 0 l 233 0 l 233 377 l 564 377 l 564 0 z "},"I":{"ha":361,"x_min":111,"x_max":250,"o":"m 250 0 l 250 861 l 111 861 l 111 0 l 250 0 z "},"Í":{"ha":361,"x_min":111,"x_max":343,"o":"m 250 0 l 250 861 l 111 861 l 111 0 l 250 0 m 121 926 l 205 1127 l 343 1126 l 218 926 l 121 926 z "},"Î":{"ha":361,"x_min":-20,"x_max":373,"o":"m 250 0 l 250 861 l 111 861 l 111 0 l 250 0 m 250 1120 l 110 1120 l -20 926 l 91 926 l 179 1057 l 258 926 l 373 926 l 250 1120 z "},"Ï":{"ha":361,"x_min":1,"x_max":365,"o":"m 250 0 l 250 861 l 111 861 l 111 0 l 250 0 m 121 955 l 121 1086 l 1 1086 l 1 955 l 121 955 m 365 955 l 365 1086 l 245 1086 l 245 955 l 365 955 z "},"İ":{"ha":361,"x_min":111,"x_max":250,"o":"m 250 0 l 250 861 l 111 861 l 111 0 l 250 0 m 243 951 l 243 1093 l 118 1093 l 118 951 l 243 951 z "},"Ì":{"ha":361,"x_min":12,"x_max":250,"o":"m 250 0 l 250 861 l 111 861 l 111 0 l 250 0 m 12 1126 l 149 1127 l 239 926 l 144 926 l 12 1126 z "},"Ī":{"ha":361,"x_min":1,"x_max":359,"o":"m 250 0 l 250 861 l 111 861 l 111 0 l 250 0 m 359 1058 l 1 1058 l 1 960 l 359 960 l 359 1058 z "},"Į":{"ha":361,"x_min":46,"x_max":273,"o":"m 250 0 l 250 861 l 111 861 l 111 0 l 156 0 l 81 -68 q 46 -157 46 -100 l 46 -189 q 126 -282 46 -267 q 183 -286 149 -286 l 273 -286 l 273 -195 l 161 -195 q 152 -186 153 -193 l 152 -126 q 163 -103 153 -114 l 250 0 z "},"J":{"ha":389,"x_min":9,"x_max":296,"o":"m 296 861 l 157 861 l 157 129 q 142 114 155 115 l 9 114 l 9 -11 l 111 -11 q 289 99 263 -11 q 296 161 296 127 l 296 861 z "},"K":{"ha":757,"x_min":102,"x_max":750,"o":"m 415 376 q 430 361 425 376 l 602 0 l 750 0 l 594 320 q 529 423 555 403 q 505 437 517 431 q 571 519 541 453 q 585 549 578 533 l 718 861 l 579 861 l 430 510 q 415 496 422 496 l 240 496 l 240 861 l 102 861 l 102 0 l 240 0 l 240 376 l 415 376 z "},"L":{"ha":553,"x_min":95,"x_max":547,"o":"m 547 121 l 233 121 l 233 861 l 95 861 l 95 0 l 547 0 l 547 121 z "},"Ĺ":{"ha":553,"x_min":95,"x_max":547,"o":"m 547 121 l 233 121 l 233 861 l 95 861 l 95 0 l 547 0 l 547 121 m 102 926 l 186 1127 l 324 1126 l 199 926 l 102 926 z "},"Ľ":{"ha":553,"x_min":95,"x_max":547,"o":"m 547 121 l 233 121 l 233 861 l 95 861 l 95 0 l 547 0 l 547 121 m 427 570 q 506 736 505 650 l 506 861 l 382 861 l 382 715 l 426 715 q 384 604 420 659 l 427 570 z "},"Ł":{"ha":553,"x_min":95,"x_max":547,"o":"m 547 121 l 233 121 l 233 861 l 95 861 l 95 0 l 547 0 l 547 121 z "},"M":{"ha":899,"x_min":87,"x_max":814,"o":"m 723 861 l 682 861 l 452 415 l 247 808 q 194 859 225 852 q 163 861 180 861 l 87 861 l 87 0 l 210 0 l 210 639 l 400 264 l 481 264 l 681 647 l 681 0 l 814 0 l 814 772 q 757 859 814 846 q 723 861 742 861 z "},"N":{"ha":787,"x_min":87,"x_max":700,"o":"m 604 0 l 700 0 l 700 861 l 579 861 l 579 252 l 183 861 l 87 861 l 87 0 l 206 0 l 206 612 l 604 0 z "},"Ń":{"ha":787,"x_min":87,"x_max":700,"o":"m 604 0 l 700 0 l 700 861 l 579 861 l 579 252 l 183 861 l 87 861 l 87 0 l 206 0 l 206 612 l 604 0 m 334 926 l 418 1127 l 556 1126 l 431 926 l 334 926 z "},"Ň":{"ha":787,"x_min":87,"x_max":700,"o":"m 604 0 l 700 0 l 700 861 l 579 861 l 579 252 l 183 861 l 87 861 l 87 0 l 206 0 l 206 612 l 604 0 m 324 935 l 464 935 l 594 1128 l 483 1128 l 395 998 l 316 1128 l 201 1128 l 324 935 z "},"Ñ":{"ha":787,"x_min":87,"x_max":700,"o":"m 604 0 l 700 0 l 700 861 l 579 861 l 579 252 l 183 861 l 87 861 l 87 0 l 206 0 l 206 612 l 604 0 m 274 955 q 307 1009 275 1008 q 391 979 323 1009 q 477 956 444 956 q 575 1074 567 956 q 576 1103 576 1088 l 490 1103 q 463 1051 490 1055 q 453 1050 457 1050 q 368 1078 433 1050 q 281 1101 316 1101 q 197 1028 212 1101 q 190 956 190 1000 l 274 955 z "},"O":{"ha":774,"x_min":81,"x_max":693,"o":"m 537 747 q 552 732 551 745 l 552 129 q 537 114 549 115 l 237 114 q 222 129 224 117 l 222 732 q 237 747 225 746 l 537 747 m 81 164 q 221 -7 81 14 q 277 -11 247 -11 l 498 -11 q 690 119 669 -11 q 693 164 693 141 l 693 697 q 566 867 693 842 q 498 872 534 872 l 277 872 q 87 753 113 872 q 81 697 81 727 l 81 164 z "},"Œ":{"ha":1081,"x_min":75,"x_max":1035,"o":"m 1035 0 l 1035 121 l 678 121 l 678 378 l 1004 378 l 1004 498 l 678 498 l 678 741 l 1028 741 l 1028 861 l 270 867 q 77 736 99 867 q 75 692 75 715 l 75 170 q 227 -3 75 14 q 270 -5 247 -5 l 1035 0 m 232 119 q 217 134 218 122 l 217 727 q 232 742 220 741 l 540 742 l 540 119 l 232 119 z "},"Ó":{"ha":774,"x_min":81,"x_max":693,"o":"m 537 747 q 552 732 551 745 l 552 129 q 537 114 549 115 l 237 114 q 222 129 224 117 l 222 732 q 237 747 225 746 l 537 747 m 81 164 q 221 -7 81 14 q 277 -11 247 -11 l 498 -11 q 690 119 669 -11 q 693 164 693 141 l 693 697 q 566 867 693 842 q 498 872 534 872 l 277 872 q 87 753 113 872 q 81 697 81 727 l 81 164 m 338 926 l 422 1127 l 560 1126 l 435 926 l 338 926 z "},"Ô":{"ha":774,"x_min":81,"x_max":693,"o":"m 537 747 q 552 732 551 745 l 552 129 q 537 114 549 115 l 237 114 q 222 129 224 117 l 222 732 q 237 747 225 746 l 537 747 m 81 164 q 221 -7 81 14 q 277 -11 247 -11 l 498 -11 q 690 119 669 -11 q 693 164 693 141 l 693 697 q 566 867 693 842 q 498 872 534 872 l 277 872 q 87 753 113 872 q 81 697 81 727 l 81 164 m 460 1120 l 320 1120 l 190 926 l 301 926 l 389 1057 l 468 926 l 583 926 l 460 1120 z "},"Ö":{"ha":774,"x_min":81,"x_max":693,"o":"m 537 747 q 552 732 551 745 l 552 129 q 537 114 549 115 l 237 114 q 222 129 224 117 l 222 732 q 237 747 225 746 l 537 747 m 81 164 q 221 -7 81 14 q 277 -11 247 -11 l 498 -11 q 690 119 669 -11 q 693 164 693 141 l 693 697 q 566 867 693 842 q 498 872 534 872 l 277 872 q 87 753 113 872 q 81 697 81 727 l 81 164 m 331 955 l 331 1086 l 212 1086 l 212 955 l 331 955 m 575 955 l 575 1086 l 456 1086 l 456 955 l 575 955 z "},"Ò":{"ha":774,"x_min":81,"x_max":693,"o":"m 537 747 q 552 732 551 745 l 552 129 q 537 114 549 115 l 237 114 q 222 129 224 117 l 222 732 q 237 747 225 746 l 537 747 m 81 164 q 221 -7 81 14 q 277 -11 247 -11 l 498 -11 q 690 119 669 -11 q 693 164 693 141 l 693 697 q 566 867 693 842 q 498 872 534 872 l 277 872 q 87 753 113 872 q 81 697 81 727 l 81 164 m 222 1126 l 359 1127 l 449 926 l 354 926 l 222 1126 z "},"Ő":{"ha":774,"x_min":81,"x_max":693,"o":"m 537 747 q 552 732 551 745 l 552 129 q 537 114 549 115 l 237 114 q 222 129 224 117 l 222 732 q 237 747 225 746 l 537 747 m 81 164 q 221 -7 81 14 q 277 -11 247 -11 l 498 -11 q 690 119 669 -11 q 693 164 693 141 l 693 697 q 566 867 693 842 q 498 872 534 872 l 277 872 q 87 753 113 872 q 81 697 81 727 l 81 164 m 241 926 l 324 1127 l 456 1126 l 338 926 l 241 926 m 437 926 l 522 1127 l 658 1126 l 533 926 l 437 926 z "},"Ō":{"ha":774,"x_min":81,"x_max":693,"o":"m 537 747 q 552 732 551 745 l 552 129 q 537 114 549 115 l 237 114 q 222 129 224 117 l 222 732 q 237 747 225 746 l 537 747 m 81 164 q 221 -7 81 14 q 277 -11 247 -11 l 498 -11 q 690 119 669 -11 q 693 164 693 141 l 693 697 q 566 867 693 842 q 498 872 534 872 l 277 872 q 87 753 113 872 q 81 697 81 727 l 81 164 m 570 1058 l 212 1058 l 212 960 l 570 960 l 570 1058 z "},"Ø":{"ha":774,"x_min":81,"x_max":693,"o":"m 585 930 l 555 868 q 498 872 529 872 l 277 872 q 87 753 113 872 q 81 697 81 727 l 81 164 q 144 20 83 61 l 99 -73 l 187 -73 l 220 -7 q 277 -11 247 -11 l 498 -11 q 690 119 669 -11 q 693 164 693 141 l 693 697 q 629 842 692 800 l 673 930 l 585 930 m 222 732 q 237 747 225 746 l 496 747 l 222 182 l 222 732 m 552 129 q 537 114 549 115 l 278 114 l 552 681 l 552 129 z "},"Õ":{"ha":774,"x_min":81,"x_max":693,"o":"m 537 747 q 552 732 551 745 l 552 129 q 537 114 549 115 l 237 114 q 222 129 224 117 l 222 732 q 237 747 225 746 l 537 747 m 81 164 q 221 -7 81 14 q 277 -11 247 -11 l 498 -11 q 690 119 669 -11 q 693 164 693 141 l 693 697 q 566 867 693 842 q 498 872 534 872 l 277 872 q 87 753 113 872 q 81 697 81 727 l 81 164 m 277 955 q 309 1009 278 1008 q 393 979 326 1009 q 480 956 446 956 q 578 1074 570 956 q 579 1103 579 1088 l 492 1103 q 465 1051 492 1055 q 456 1050 460 1050 q 370 1078 435 1050 q 283 1101 319 1101 q 199 1028 214 1101 q 193 956 193 1000 l 277 955 z "},"P":{"ha":696,"x_min":98,"x_max":665,"o":"m 237 0 l 236 317 l 458 317 q 654 435 616 317 q 665 507 665 469 l 665 681 q 477 867 665 861 q 458 867 467 867 l 98 861 l 98 0 l 237 0 m 505 746 q 522 728 521 743 l 522 456 q 505 438 519 439 l 236 438 l 236 746 l 505 746 z "},"Q":{"ha":777,"x_min":81,"x_max":693,"o":"m 537 747 q 552 732 551 745 l 552 129 q 537 114 549 115 l 237 114 q 222 129 224 117 l 222 732 q 237 747 225 746 l 537 747 m 81 164 q 221 -7 81 14 q 277 -11 247 -11 l 381 -11 l 416 -160 l 548 -160 l 506 -11 q 693 146 684 -11 q 693 164 693 156 l 693 697 q 566 867 693 842 q 498 872 534 872 l 277 872 q 87 753 113 872 q 81 697 81 727 l 81 164 z "},"R":{"ha":738,"x_min":98,"x_max":696,"o":"m 237 0 l 236 338 l 426 338 q 448 320 442 335 l 556 0 l 696 0 l 602 267 q 548 351 579 328 q 666 528 665 392 l 666 681 q 461 867 663 869 l 98 861 l 98 0 l 237 0 m 507 746 q 525 728 524 743 l 525 475 q 507 457 522 458 l 236 457 l 236 746 l 507 746 z "},"Ŕ":{"ha":738,"x_min":98,"x_max":696,"o":"m 237 0 l 236 338 l 426 338 q 448 320 442 335 l 556 0 l 696 0 l 602 267 q 548 351 579 328 q 666 528 665 392 l 666 681 q 461 867 663 869 l 98 861 l 98 0 l 237 0 m 507 746 q 525 728 524 743 l 525 475 q 507 457 522 458 l 236 457 l 236 746 l 507 746 m 301 926 l 385 1127 l 524 1126 l 399 926 l 301 926 z "},"Ř":{"ha":738,"x_min":98,"x_max":696,"o":"m 237 0 l 236 338 l 426 338 q 448 320 442 335 l 556 0 l 696 0 l 602 267 q 548 351 579 328 q 666 528 665 392 l 666 681 q 461 867 663 869 l 98 861 l 98 0 l 237 0 m 507 746 q 525 728 524 743 l 525 475 q 507 457 522 458 l 236 457 l 236 746 l 507 746 m 292 935 l 431 935 l 562 1128 l 450 1128 l 362 998 l 283 1128 l 168 1128 l 292 935 z "},"S":{"ha":650,"x_min":52,"x_max":604,"o":"m 210 495 q 193 513 194 498 l 193 723 q 210 741 195 739 l 576 741 l 576 861 l 259 867 q 61 749 98 869 q 52 680 52 716 l 52 552 q 256 370 54 372 l 445 370 q 463 353 461 368 l 463 138 q 445 121 460 122 l 66 121 l 66 0 l 399 -5 q 604 164 594 -9 q 604 180 604 172 l 604 312 q 437 492 604 475 q 396 495 416 495 l 210 495 z "},"Ś":{"ha":650,"x_min":52,"x_max":604,"o":"m 210 495 q 193 513 194 498 l 193 723 q 210 741 195 739 l 576 741 l 576 861 l 259 867 q 61 749 98 869 q 52 680 52 716 l 52 552 q 256 370 54 372 l 445 370 q 463 353 461 368 l 463 138 q 445 121 460 122 l 66 121 l 66 0 l 399 -5 q 604 164 594 -9 q 604 180 604 172 l 604 312 q 437 492 604 475 q 396 495 416 495 l 210 495 m 273 926 l 357 1127 l 495 1126 l 370 926 l 273 926 z "},"Š":{"ha":650,"x_min":52,"x_max":604,"o":"m 210 495 q 193 513 194 498 l 193 723 q 210 741 195 739 l 576 741 l 576 861 l 259 867 q 61 749 98 869 q 52 680 52 716 l 52 552 q 256 370 54 372 l 445 370 q 463 353 461 368 l 463 138 q 445 121 460 122 l 66 121 l 66 0 l 399 -5 q 604 164 594 -9 q 604 180 604 172 l 604 312 q 437 492 604 475 q 396 495 416 495 l 210 495 m 263 935 l 403 935 l 533 1128 l 422 1128 l 334 998 l 255 1128 l 140 1128 l 263 935 z "},"T":{"ha":571,"x_min":7,"x_max":564,"o":"m 354 0 l 354 741 l 564 741 l 564 861 l 7 861 l 7 741 l 216 741 l 216 0 l 354 0 z "},"Ť":{"ha":571,"x_min":7,"x_max":564,"o":"m 354 0 l 354 741 l 564 741 l 564 861 l 7 861 l 7 741 l 216 741 l 216 0 l 354 0 m 224 926 l 363 926 l 494 1120 l 382 1120 l 294 990 l 216 1120 l 100 1120 l 224 926 z "},"Þ":{"ha":726,"x_min":98,"x_max":665,"o":"m 237 0 l 236 174 l 460 174 q 655 296 618 174 q 665 363 665 327 l 665 534 q 460 720 662 719 l 236 720 l 236 861 l 98 861 l 98 0 l 237 0 m 506 600 q 524 582 522 597 l 524 312 q 506 294 521 296 l 236 294 l 236 600 l 506 600 z "},"U":{"ha":772,"x_min":81,"x_max":690,"o":"m 495 -11 q 688 119 666 -11 q 690 164 690 141 l 690 861 l 549 861 l 549 129 q 534 114 547 115 l 237 114 q 222 129 224 117 l 222 861 l 81 861 l 81 164 q 221 -7 81 14 q 277 -11 247 -11 l 495 -11 z "},"Ú":{"ha":772,"x_min":81,"x_max":690,"o":"m 495 -11 q 688 119 666 -11 q 690 164 690 141 l 690 861 l 549 861 l 549 129 q 534 114 547 115 l 237 114 q 222 129 224 117 l 222 861 l 81 861 l 81 164 q 221 -7 81 14 q 277 -11 247 -11 l 495 -11 m 334 926 l 418 1127 l 556 1126 l 431 926 l 334 926 z "},"Û":{"ha":772,"x_min":81,"x_max":690,"o":"m 495 -11 q 688 119 666 -11 q 690 164 690 141 l 690 861 l 549 861 l 549 129 q 534 114 547 115 l 237 114 q 222 129 224 117 l 222 861 l 81 861 l 81 164 q 221 -7 81 14 q 277 -11 247 -11 l 495 -11 m 456 1120 l 316 1120 l 186 926 l 297 926 l 385 1057 l 464 926 l 579 926 l 456 1120 z "},"Ü":{"ha":772,"x_min":81,"x_max":690,"o":"m 495 -11 q 688 119 666 -11 q 690 164 690 141 l 690 861 l 549 861 l 549 129 q 534 114 547 115 l 237 114 q 222 129 224 117 l 222 861 l 81 861 l 81 164 q 221 -7 81 14 q 277 -11 247 -11 l 495 -11 m 328 955 l 328 1086 l 209 1086 l 209 955 l 328 955 m 572 955 l 572 1086 l 453 1086 l 453 955 l 572 955 z "},"Ù":{"ha":772,"x_min":81,"x_max":690,"o":"m 495 -11 q 688 119 666 -11 q 690 164 690 141 l 690 861 l 549 861 l 549 129 q 534 114 547 115 l 237 114 q 222 129 224 117 l 222 861 l 81 861 l 81 164 q 221 -7 81 14 q 277 -11 247 -11 l 495 -11 m 220 1126 l 357 1127 l 446 926 l 351 926 l 220 1126 z "},"Ű":{"ha":772,"x_min":81,"x_max":690,"o":"m 495 -11 q 688 119 666 -11 q 690 164 690 141 l 690 861 l 549 861 l 549 129 q 534 114 547 115 l 237 114 q 222 129 224 117 l 222 861 l 81 861 l 81 164 q 221 -7 81 14 q 277 -11 247 -11 l 495 -11 m 239 926 l 321 1127 l 453 1126 l 335 926 l 239 926 m 434 926 l 519 1127 l 655 1126 l 530 926 l 434 926 z "},"Ū":{"ha":772,"x_min":81,"x_max":690,"o":"m 495 -11 q 688 119 666 -11 q 690 164 690 141 l 690 861 l 549 861 l 549 129 q 534 114 547 115 l 237 114 q 222 129 224 117 l 222 861 l 81 861 l 81 164 q 221 -7 81 14 q 277 -11 247 -11 l 495 -11 m 566 1058 l 208 1058 l 208 960 l 566 960 l 566 1058 z "},"Ų":{"ha":772,"x_min":81,"x_max":690,"o":"m 495 -11 q 688 119 666 -11 q 690 164 690 141 l 690 861 l 549 861 l 549 129 q 534 114 547 115 l 237 114 q 222 129 224 117 l 222 861 l 81 861 l 81 164 q 221 -7 81 14 q 277 -11 247 -11 l 372 -11 l 305 -71 q 270 -160 270 -103 l 270 -191 q 350 -285 270 -270 q 407 -289 373 -289 l 496 -289 l 496 -198 l 385 -198 q 376 -189 377 -195 l 376 -129 q 387 -106 377 -117 l 467 -11 l 495 -11 z "},"Ů":{"ha":772,"x_min":81,"x_max":690,"o":"m 495 -11 q 688 119 666 -11 q 690 164 690 141 l 690 861 l 549 861 l 549 129 q 534 114 547 115 l 237 114 q 222 129 224 117 l 222 861 l 81 861 l 81 164 q 221 -7 81 14 q 277 -11 247 -11 l 495 -11 m 525 1032 q 469 1150 525 1126 q 389 1162 439 1162 q 270 1109 293 1162 q 258 1032 258 1081 q 315 916 258 939 q 389 903 343 903 q 517 968 494 903 q 525 1032 525 994 m 328 1032 q 349 1095 328 1085 q 389 1101 362 1101 q 449 1077 439 1101 q 454 1032 454 1062 q 427 970 454 981 q 389 964 412 964 q 331 996 339 964 q 328 1032 328 1009 z "},"V":{"ha":709,"x_min":11,"x_max":700,"o":"m 514 138 l 700 861 l 570 861 l 388 136 q 373 121 382 122 l 317 121 l 148 861 l 11 861 l 210 0 l 358 -3 q 471 30 442 -4 q 514 138 494 58 z "},"W":{"ha":1067,"x_min":92,"x_max":975,"o":"m 392 -11 q 533 71 506 -9 q 674 -11 560 -9 l 818 -11 q 964 62 937 -11 q 975 138 975 94 l 974 861 l 834 861 l 836 129 q 822 114 833 115 l 614 114 q 601 129 602 117 l 601 861 l 465 861 l 465 129 q 452 114 463 115 l 247 114 q 232 129 233 117 l 232 861 l 92 861 l 92 137 q 167 1 92 27 q 252 -11 201 -11 l 392 -11 z "},"X":{"ha":758,"x_min":8,"x_max":751,"o":"m 434 509 q 416 495 425 495 l 347 495 q 331 509 336 498 l 172 861 l 24 861 l 167 549 q 232 446 203 467 q 250 435 241 439 q 184 357 217 419 q 167 320 180 347 l 8 0 l 149 0 l 323 361 q 342 374 331 374 l 410 374 q 427 361 422 372 l 602 0 l 751 0 l 589 320 q 522 423 545 403 q 506 434 514 430 q 568 511 537 450 q 587 549 572 519 l 736 861 l 597 861 l 434 509 z "},"Y":{"ha":726,"x_min":14,"x_max":711,"o":"m 430 0 l 430 308 q 514 362 486 316 q 545 434 526 385 l 711 861 l 571 861 l 412 439 q 395 426 406 426 l 336 426 q 320 439 324 429 l 160 861 l 14 861 l 176 434 q 245 326 209 350 q 292 309 266 315 l 292 0 l 430 0 z "},"Ý":{"ha":726,"x_min":14,"x_max":711,"o":"m 430 0 l 430 308 q 514 362 486 316 q 545 434 526 385 l 711 861 l 571 861 l 412 439 q 395 426 406 426 l 336 426 q 320 439 324 429 l 160 861 l 14 861 l 176 434 q 245 326 209 350 q 292 309 266 315 l 292 0 l 430 0 m 311 926 l 395 1127 l 533 1126 l 408 926 l 311 926 z "},"Ÿ":{"ha":726,"x_min":14,"x_max":711,"o":"m 430 0 l 430 308 q 514 362 486 316 q 545 434 526 385 l 711 861 l 571 861 l 412 439 q 395 426 406 426 l 336 426 q 320 439 324 429 l 160 861 l 14 861 l 176 434 q 245 326 209 350 q 292 309 266 315 l 292 0 l 430 0 m 304 955 l 304 1086 l 184 1086 l 184 955 l 304 955 m 548 955 l 548 1086 l 429 1086 l 429 955 l 548 955 z "},"Z":{"ha":651,"x_min":35,"x_max":623,"o":"m 608 113 l 216 113 q 205 129 199 113 q 208 134 206 132 l 623 738 q 506 863 620 861 l 69 863 l 69 749 l 448 750 q 460 736 464 750 q 457 730 458 732 l 35 111 q 130 -1 35 8 q 145 -1 138 -1 l 608 -1 l 608 113 z "},"Ź":{"ha":651,"x_min":35,"x_max":623,"o":"m 608 113 l 216 113 q 205 129 199 113 q 208 134 206 132 l 623 738 q 506 863 620 861 l 69 863 l 69 749 l 448 750 q 460 736 464 750 q 457 730 458 732 l 35 111 q 130 -1 35 8 q 145 -1 138 -1 l 608 -1 l 608 113 m 277 926 l 361 1127 l 499 1126 l 374 926 l 277 926 z "},"Ž":{"ha":651,"x_min":35,"x_max":623,"o":"m 608 113 l 216 113 q 205 129 199 113 q 208 134 206 132 l 623 738 q 506 863 620 861 l 69 863 l 69 749 l 448 750 q 460 736 464 750 q 457 730 458 732 l 35 111 q 130 -1 35 8 q 145 -1 138 -1 l 608 -1 l 608 113 m 267 935 l 407 935 l 537 1128 l 426 1128 l 338 998 l 259 1128 l 144 1128 l 267 935 z "},"Ż":{"ha":651,"x_min":35,"x_max":623,"o":"m 608 113 l 216 113 q 205 129 199 113 q 208 134 206 132 l 623 738 q 506 863 620 861 l 69 863 l 69 749 l 448 750 q 460 736 464 750 q 457 730 458 732 l 35 111 q 130 -1 35 8 q 145 -1 138 -1 l 608 -1 l 608 113 m 392 951 l 392 1093 l 267 1093 l 267 951 l 392 951 z "},"a":{"ha":579,"x_min":41,"x_max":517,"o":"m 381 98 l 187 98 q 172 113 174 100 l 172 279 q 187 293 175 292 l 381 293 l 381 98 m 266 -11 q 385 75 366 -9 l 396 0 l 517 0 l 517 503 q 434 654 517 625 q 339 666 396 666 l 81 666 l 81 553 l 366 553 q 381 540 380 551 l 381 391 l 213 391 q 58 328 91 391 q 41 235 41 293 l 41 138 q 119 0 41 26 q 198 -11 152 -11 l 266 -11 z "},"á":{"ha":579,"x_min":41,"x_max":517,"o":"m 381 98 l 187 98 q 172 113 174 100 l 172 279 q 187 293 175 292 l 381 293 l 381 98 m 266 -11 q 385 75 366 -9 l 396 0 l 517 0 l 517 503 q 434 654 517 625 q 339 666 396 666 l 81 666 l 81 553 l 366 553 q 381 540 380 551 l 381 391 l 213 391 q 58 328 91 391 q 41 235 41 293 l 41 138 q 119 0 41 26 q 198 -11 152 -11 l 266 -11 m 239 749 l 323 949 l 461 948 l 336 749 l 239 749 z "},"ă":{"ha":579,"x_min":41,"x_max":517,"o":"m 381 98 l 187 98 q 172 113 174 100 l 172 279 q 187 293 175 292 l 381 293 l 381 98 m 266 -11 q 385 75 366 -9 l 396 0 l 517 0 l 517 503 q 434 654 517 625 q 339 666 396 666 l 81 666 l 81 553 l 366 553 q 381 540 380 551 l 381 391 l 213 391 q 58 328 91 391 q 41 235 41 293 l 41 138 q 119 0 41 26 q 198 -11 152 -11 l 266 -11 m 133 929 q 187 780 133 815 q 309 755 229 755 q 458 823 427 755 q 476 929 476 861 l 391 929 q 358 846 391 863 q 309 838 339 838 q 225 884 237 838 q 221 929 221 902 l 133 929 z "},"â":{"ha":579,"x_min":41,"x_max":517,"o":"m 381 98 l 187 98 q 172 113 174 100 l 172 279 q 187 293 175 292 l 381 293 l 381 98 m 266 -11 q 385 75 366 -9 l 396 0 l 517 0 l 517 503 q 434 654 517 625 q 339 666 396 666 l 81 666 l 81 553 l 366 553 q 381 540 380 551 l 381 391 l 213 391 q 58 328 91 391 q 41 235 41 293 l 41 138 q 119 0 41 26 q 198 -11 152 -11 l 266 -11 m 361 943 l 221 943 l 91 749 l 202 749 l 290 879 l 369 749 l 484 749 l 361 943 z "},"´":{"ha":397,"x_min":85,"x_max":308,"o":"m 85 749 l 170 949 l 308 948 l 183 749 l 85 749 z "},"ä":{"ha":579,"x_min":41,"x_max":517,"o":"m 381 98 l 187 98 q 172 113 174 100 l 172 279 q 187 293 175 292 l 381 293 l 381 98 m 266 -11 q 385 75 366 -9 l 396 0 l 517 0 l 517 503 q 434 654 517 625 q 339 666 396 666 l 81 666 l 81 553 l 366 553 q 381 540 380 551 l 381 391 l 213 391 q 58 328 91 391 q 41 235 41 293 l 41 138 q 119 0 41 26 q 198 -11 152 -11 l 266 -11 m 232 777 l 232 909 l 113 909 l 113 777 l 232 777 m 476 777 l 476 909 l 357 909 l 357 777 l 476 777 z "},"æ":{"ha":909,"x_min":41,"x_max":856,"o":"m 515 552 q 530 567 518 566 l 708 567 q 723 552 722 564 l 723 366 l 515 366 l 515 552 m 838 -8 l 838 104 l 530 104 q 515 119 517 107 l 515 270 l 856 270 l 856 515 q 788 659 856 628 q 682 675 750 675 l 574 675 q 452 636 477 675 q 448 628 449 631 q 324 665 411 666 l 81 663 l 81 552 l 369 552 q 382 538 381 549 l 382 378 l 213 378 q 58 316 91 378 q 41 222 41 281 l 41 138 q 119 0 41 26 q 198 -11 152 -11 l 275 -11 q 393 80 377 -9 q 570 -8 429 -8 l 838 -8 m 187 98 q 172 113 174 100 l 172 267 q 187 281 175 279 l 382 281 l 382 149 q 388 98 382 117 l 187 98 z "},"à":{"ha":579,"x_min":41,"x_max":517,"o":"m 381 98 l 187 98 q 172 113 174 100 l 172 279 q 187 293 175 292 l 381 293 l 381 98 m 266 -11 q 385 75 366 -9 l 396 0 l 517 0 l 517 503 q 434 654 517 625 q 339 666 396 666 l 81 666 l 81 553 l 366 553 q 381 540 380 551 l 381 391 l 213 391 q 58 328 91 391 q 41 235 41 293 l 41 138 q 119 0 41 26 q 198 -11 152 -11 l 266 -11 m 123 948 l 260 949 l 350 749 l 255 749 l 123 948 z "},"ā":{"ha":579,"x_min":41,"x_max":517,"o":"m 381 98 l 187 98 q 172 113 174 100 l 172 279 q 187 293 175 292 l 381 293 l 381 98 m 266 -11 q 385 75 366 -9 l 396 0 l 517 0 l 517 503 q 434 654 517 625 q 339 666 396 666 l 81 666 l 81 553 l 366 553 q 381 540 380 551 l 381 391 l 213 391 q 58 328 91 391 q 41 235 41 293 l 41 138 q 119 0 41 26 q 198 -11 152 -11 l 266 -11 m 471 880 l 113 880 l 113 783 l 471 783 l 471 880 z "},"&":{"ha":776,"x_min":87,"x_max":739,"o":"m 434 -5 q 636 134 610 -5 q 640 182 640 157 l 640 351 q 659 369 643 368 l 738 369 l 739 495 l 699 495 q 505 366 528 495 q 500 317 500 343 l 500 138 q 483 121 498 122 l 245 121 q 228 138 229 123 l 228 392 q 245 410 231 408 l 411 410 l 411 511 l 252 511 q 235 529 236 514 l 235 724 q 252 742 237 741 l 476 742 q 494 724 492 739 l 494 610 l 633 610 l 633 681 q 430 867 631 865 l 298 867 q 94 681 95 864 l 94 597 q 170 463 95 500 q 87 317 88 425 l 87 182 q 237 -1 87 24 q 294 -5 264 -5 l 434 -5 z "},"ං":{"ha":566,"x_min":30,"x_max":514,"o":"m 103 24 q 30 94 31 27 l 30 528 q 100 605 30 597 q 114 605 107 605 l 439 605 q 514 526 513 602 l 514 99 q 438 24 505 28 l 103 24 m 145 477 l 145 153 q 179 123 148 125 l 366 123 q 399 157 397 126 l 399 476 q 366 509 391 506 l 178 509 q 145 477 146 506 z "},"ą":{"ha":579,"x_min":41,"x_max":540,"o":"m 381 98 l 187 98 q 172 113 174 100 l 172 279 q 187 293 175 292 l 381 293 l 381 98 m 266 -11 q 385 75 366 -9 l 396 0 l 423 0 l 349 -68 q 313 -157 313 -100 l 313 -189 q 393 -282 313 -267 q 450 -286 416 -286 l 540 -286 l 540 -195 l 429 -195 q 419 -186 420 -193 l 419 -126 q 430 -103 420 -114 l 517 0 l 517 503 q 434 654 517 625 q 339 666 396 666 l 81 666 l 81 553 l 366 553 q 381 540 380 551 l 381 391 l 213 391 q 58 328 91 391 q 41 235 41 293 l 41 138 q 119 0 41 26 q 198 -11 152 -11 l 266 -11 z "},"≈":{"ha":585,"x_min":52,"x_max":532,"o":"m 145 396 q 191 452 152 450 q 302 414 213 452 q 416 382 377 382 q 525 481 506 382 q 532 560 532 514 l 439 560 q 391 490 437 491 q 278 528 369 490 q 163 559 202 559 q 58 465 77 559 q 52 396 53 435 l 145 396 m 145 165 q 191 236 146 235 q 302 199 213 236 q 416 168 377 168 q 528 278 511 168 q 532 331 532 302 l 439 331 q 391 275 435 277 q 278 313 369 275 q 163 345 202 345 q 58 251 77 345 q 52 167 52 216 l 145 165 z "},"å":{"ha":579,"x_min":41,"x_max":517,"o":"m 381 98 l 187 98 q 172 113 174 100 l 172 279 q 187 293 175 292 l 381 293 l 381 98 m 266 -11 q 385 75 366 -9 l 396 0 l 517 0 l 517 503 q 434 654 517 625 q 339 666 396 666 l 81 666 l 81 553 l 366 553 q 381 540 380 551 l 381 391 l 213 391 q 58 328 91 391 q 41 235 41 293 l 41 138 q 119 0 41 26 q 198 -11 152 -11 l 266 -11 m 429 854 q 373 972 429 948 q 293 985 343 985 q 174 932 197 985 q 161 854 161 903 q 218 738 161 761 q 293 726 247 726 q 420 791 397 726 q 429 854 429 817 m 232 854 q 252 917 232 907 q 293 924 266 924 q 353 899 343 924 q 358 854 358 884 q 331 792 358 803 q 293 787 316 787 q 235 818 243 787 q 232 854 232 831 z "},"^":{"ha":631,"x_min":61,"x_max":570,"o":"m 271 916 l 61 480 l 165 480 l 313 807 l 464 480 l 570 480 l 357 916 l 271 916 z "},"~":{"ha":585,"x_min":52,"x_max":532,"o":"m 145 292 q 191 362 146 361 q 302 326 213 362 q 416 294 377 294 q 526 393 507 294 q 532 471 532 427 l 439 471 q 391 401 437 403 q 278 439 369 401 q 163 471 202 471 q 58 377 77 471 q 52 293 52 342 l 145 292 z "},"*":{"ha":491,"x_min":39,"x_max":452,"o":"m 208 579 l 241 662 l 208 685 l 140 629 l 92 563 l 161 513 l 208 579 m 400 564 l 351 629 l 283 686 l 251 663 l 283 581 l 332 515 l 400 564 m 374 700 l 452 726 l 426 806 l 349 781 l 274 734 l 286 696 l 374 700 m 266 739 l 288 825 l 288 906 l 202 906 l 202 823 l 227 739 l 266 739 m 205 696 l 217 734 l 142 780 l 65 806 l 39 724 l 117 700 l 205 696 z "},"@":{"ha":903,"x_min":88,"x_max":830,"o":"m 631 -65 l 631 28 l 209 28 q 194 43 195 31 l 194 711 q 209 724 197 723 l 708 724 q 723 711 722 722 l 723 229 q 708 214 720 216 l 646 214 q 631 229 632 217 l 631 618 l 435 623 q 285 541 309 624 q 278 481 278 515 l 278 266 q 366 137 278 155 q 411 133 387 133 l 437 133 q 526 198 507 134 q 602 134 534 142 q 639 133 618 133 l 701 133 q 817 186 793 133 q 830 271 830 217 l 830 643 q 699 812 830 789 q 636 818 670 818 l 282 818 q 95 703 121 818 q 88 643 88 677 l 88 110 q 210 -58 88 -33 q 282 -65 243 -65 l 631 -65 m 384 237 l 384 522 q 399 537 387 536 l 525 536 l 525 237 q 510 222 522 222 l 399 222 q 384 237 385 225 z "},"ã":{"ha":579,"x_min":41,"x_max":517,"o":"m 381 98 l 187 98 q 172 113 174 100 l 172 279 q 187 293 175 292 l 381 293 l 381 98 m 266 -11 q 385 75 366 -9 l 396 0 l 517 0 l 517 503 q 434 654 517 625 q 339 666 396 666 l 81 666 l 81 553 l 366 553 q 381 540 380 551 l 381 391 l 213 391 q 58 328 91 391 q 41 235 41 293 l 41 138 q 119 0 41 26 q 198 -11 152 -11 l 266 -11 m 178 777 q 210 831 179 830 q 294 802 227 831 q 381 779 347 779 q 479 897 471 779 q 480 925 480 910 l 393 925 q 366 873 393 878 q 357 872 361 872 q 271 901 336 872 q 184 924 220 924 q 100 850 115 924 q 94 779 94 822 l 178 777 z "},"b":{"ha":620,"x_min":76,"x_max":559,"o":"m 387 -7 q 544 60 513 -9 q 559 149 559 95 l 559 528 q 483 665 559 639 q 401 675 450 675 l 327 675 q 210 604 233 674 l 210 916 l 76 916 l 76 0 l 387 -7 m 210 552 q 224 567 213 566 l 412 567 q 427 552 426 564 l 427 119 q 412 106 425 107 l 210 107 l 210 552 z "},"\\":{"ha":567,"x_min":7,"x_max":560,"o":"m 425 -130 l 560 -130 l 140 916 l 7 916 l 425 -130 z "},"|":{"ha":363,"x_min":127,"x_max":237,"o":"m 237 -79 l 237 916 l 127 916 l 127 -79 l 237 -79 z "},"{":{"ha":430,"x_min":66,"x_max":404,"o":"m 263 808 q 278 822 266 821 l 404 822 l 404 922 l 332 922 q 126 738 127 920 l 126 418 q 110 403 123 404 l 66 403 l 66 289 l 110 289 q 126 273 126 289 l 126 -46 q 332 -231 129 -229 l 404 -231 l 404 -130 l 278 -130 q 263 -117 264 -127 l 263 214 q 157 345 260 331 q 263 477 262 362 l 263 808 z "},"}":{"ha":430,"x_min":26,"x_max":363,"o":"m 167 808 q 152 822 164 821 l 26 822 l 26 922 l 98 922 q 304 738 302 920 l 304 418 q 320 403 307 404 l 363 403 l 363 289 l 320 289 q 304 273 304 289 l 304 -46 q 98 -231 301 -229 l 26 -231 l 26 -130 l 152 -130 q 167 -117 165 -127 l 167 214 q 273 345 170 331 q 167 477 168 362 l 167 808 z "},"[":{"ha":387,"x_min":80,"x_max":350,"o":"m 350 -231 l 350 -133 l 216 -133 l 216 825 l 350 825 l 350 922 l 80 922 l 80 -231 l 350 -231 z "},"]":{"ha":387,"x_min":37,"x_max":307,"o":"m 37 -231 l 37 -133 l 171 -133 l 171 825 l 37 825 l 37 922 l 307 922 l 307 -231 l 37 -231 z "},"˘":{"ha":472,"x_min":76,"x_max":419,"o":"m 76 929 q 130 780 76 815 q 252 755 172 755 q 401 823 370 755 q 419 929 419 861 l 334 929 q 301 846 334 863 q 252 838 282 838 q 168 884 180 838 q 164 929 164 902 l 76 929 z "},"¦":{"ha":376,"x_min":133,"x_max":243,"o":"m 243 -79 l 243 309 l 133 309 l 133 -79 l 243 -79 m 243 529 l 243 916 l 133 916 l 133 529 l 243 529 z "},"•":{"ha":399,"x_min":96,"x_max":302,"o":"m 96 331 q 170 251 96 258 q 189 250 179 250 l 210 250 q 302 331 297 262 l 302 429 q 236 509 302 499 q 210 510 224 510 l 189 510 q 98 448 106 510 q 96 429 96 438 l 96 331 z "},"c":{"ha":475,"x_min":61,"x_max":453,"o":"m 453 -11 l 453 102 l 210 102 q 195 117 197 104 l 195 548 q 210 563 198 562 l 453 563 l 453 675 l 248 675 q 75 594 109 675 q 61 509 61 559 l 61 156 q 151 3 61 33 q 248 -11 190 -11 l 453 -11 z "},"ć":{"ha":475,"x_min":61,"x_max":453,"o":"m 453 -11 l 453 102 l 210 102 q 195 117 197 104 l 195 548 q 210 563 198 562 l 453 563 l 453 675 l 248 675 q 75 594 109 675 q 61 509 61 559 l 61 156 q 151 3 61 33 q 248 -11 190 -11 l 453 -11 m 197 749 l 281 949 l 419 948 l 294 749 l 197 749 z "},"ˇ":{"ha":525,"x_min":69,"x_max":463,"o":"m 193 757 l 332 757 l 463 951 l 351 951 l 263 821 l 184 951 l 69 951 l 193 757 z "},"č":{"ha":475,"x_min":61,"x_max":480,"o":"m 453 -11 l 453 102 l 210 102 q 195 117 197 104 l 195 548 q 210 563 198 562 l 453 563 l 453 675 l 248 675 q 75 594 109 675 q 61 509 61 559 l 61 156 q 151 3 61 33 q 248 -11 190 -11 l 453 -11 m 210 757 l 350 757 l 480 951 l 369 951 l 281 821 l 202 951 l 87 951 l 210 757 z "},"ç":{"ha":475,"x_min":61,"x_max":453,"o":"m 453 -11 l 453 102 l 210 102 q 195 117 197 104 l 195 548 q 210 563 198 562 l 453 563 l 453 675 l 248 675 q 75 594 109 675 q 61 509 61 559 l 61 156 q 151 3 61 33 q 218 -9 180 -7 l 191 -132 l 304 -132 q 313 -141 312 -134 l 313 -198 q 304 -208 311 -206 l 176 -208 l 176 -286 l 278 -286 q 399 -178 397 -283 l 399 -148 q 315 -62 399 -71 q 290 -61 302 -61 l 275 -61 l 285 -11 l 453 -11 z "},"¸":{"ha":366,"x_min":76,"x_max":298,"o":"m 213 -198 q 203 -208 210 -206 l 76 -208 l 76 -286 l 178 -286 q 298 -178 297 -283 l 298 -148 q 214 -62 298 -71 q 190 -61 202 -61 l 175 -61 l 189 7 l 123 16 l 91 -132 l 203 -132 q 213 -141 212 -134 l 213 -198 z "},"¢":{"ha":481,"x_min":53,"x_max":452,"o":"m 452 90 l 452 201 l 202 201 q 187 216 189 203 l 187 635 q 202 648 190 647 l 452 648 l 452 761 l 326 761 l 326 880 l 218 880 l 218 761 q 64 670 91 755 q 53 594 53 637 l 53 256 q 137 104 53 136 q 218 90 171 92 l 218 -28 l 326 -28 l 326 90 l 452 90 z "},"ˆ":{"ha":525,"x_min":62,"x_max":456,"o":"m 332 943 l 193 943 l 62 749 l 174 749 l 262 879 l 340 749 l 456 749 l 332 943 z "},":":{"ha":289,"x_min":80,"x_max":209,"o":"m 209 34 l 209 187 l 80 187 l 80 34 l 209 34 m 209 388 l 209 543 l 80 543 l 80 388 l 209 388 z "},",":{"ha":243,"x_min":56,"x_max":183,"o":"m 56 3 l 100 3 q 57 -111 95 -54 l 102 -146 q 183 26 182 -64 l 183 153 l 56 153 l 56 3 z "},"©":{"ha":699,"x_min":87,"x_max":612,"o":"m 525 811 q 538 798 537 808 l 538 293 q 525 279 537 281 l 174 279 q 160 293 161 282 l 160 798 q 174 811 163 810 l 525 811 m 87 351 q 165 227 87 248 q 233 218 193 218 l 465 218 q 604 289 579 218 q 612 351 612 316 l 612 739 q 533 864 612 842 q 465 872 505 872 l 233 872 q 95 802 119 872 q 87 739 87 774 l 87 351 m 484 330 l 484 422 l 335 422 q 320 437 321 425 l 320 654 q 335 669 323 667 l 484 669 l 484 761 l 365 761 q 227 703 255 761 q 212 618 212 670 l 212 472 q 278 342 212 368 q 365 330 311 330 l 484 330 z "},"¤":{"ha":806,"x_min":53,"x_max":753,"o":"m 503 579 q 517 564 515 576 l 517 288 q 503 273 514 274 l 307 273 q 292 288 293 275 l 292 564 q 307 579 294 578 l 503 579 m 160 328 q 171 255 160 288 l 53 137 l 125 64 l 240 180 q 350 160 282 160 l 460 160 q 567 178 526 160 l 681 64 l 753 137 l 637 252 q 650 328 650 286 l 650 524 q 637 601 650 568 l 753 716 l 681 789 l 566 674 q 460 692 524 692 l 350 692 q 240 673 283 692 l 127 787 l 54 715 l 171 598 q 160 524 160 563 l 160 328 z "},"d":{"ha":618,"x_min":61,"x_max":544,"o":"m 410 916 l 410 667 l 233 669 q 80 608 113 669 q 61 513 61 572 l 61 138 q 140 0 61 26 q 218 -11 172 -11 l 293 -11 q 414 76 395 -9 l 426 0 l 544 0 l 544 916 l 410 916 m 410 113 q 396 98 407 99 l 208 98 q 193 113 194 100 l 193 547 q 208 562 195 560 l 410 559 l 410 113 z "},"†":{"ha":547,"x_min":30,"x_max":518,"o":"m 302 0 l 317 332 l 317 487 l 294 610 l 255 610 l 231 487 l 231 331 l 247 0 l 302 0 m 152 605 l 237 628 l 237 667 l 153 690 l 30 690 l 30 606 l 152 605 m 518 606 l 518 690 l 395 690 l 311 667 l 311 628 l 396 605 l 518 606 m 294 685 l 317 770 l 316 906 l 231 906 l 231 769 l 255 685 l 294 685 z "},"‡":{"ha":677,"x_min":30,"x_max":518,"o":"m 294 282 l 317 382 l 317 514 l 294 614 l 255 614 l 231 515 l 231 381 l 255 282 l 294 282 m 316 -9 l 317 123 l 294 208 l 255 208 l 231 123 l 231 -9 l 316 -9 m 153 202 l 237 225 l 237 264 l 152 288 l 30 288 l 30 202 l 153 202 m 518 202 l 518 288 l 396 288 l 311 264 l 311 225 l 395 202 l 518 202 m 206 627 l 237 661 l 183 689 l 83 694 l 30 631 l 98 609 l 206 627 m 518 609 l 518 694 l 395 694 l 311 671 l 311 632 l 396 609 l 518 609 m 294 689 l 317 773 l 316 906 l 231 906 l 231 773 l 255 689 l 294 689 z "},"ď":{"ha":724,"x_min":61,"x_max":728,"o":"m 410 916 l 410 667 l 233 669 q 80 608 113 669 q 61 513 61 572 l 61 138 q 140 0 61 26 q 218 -11 172 -11 l 293 -11 q 414 76 395 -9 l 426 0 l 544 0 l 544 916 l 410 916 m 410 113 q 396 98 407 99 l 208 98 q 193 113 194 100 l 193 547 q 208 562 195 560 l 410 559 l 410 113 m 609 777 l 651 777 q 610 671 646 724 l 652 639 q 727 799 727 715 l 727 917 l 609 917 l 609 777 z "},"đ":{"ha":618,"x_min":61,"x_max":600,"o":"m 410 916 l 410 844 l 275 844 l 275 751 l 410 751 l 410 667 l 233 669 q 80 608 113 669 q 61 513 61 572 l 61 138 q 140 0 61 26 q 218 -11 172 -11 l 293 -11 q 414 76 395 -9 l 426 0 l 544 0 l 544 751 l 600 751 l 600 844 l 544 844 l 544 916 l 410 916 m 410 113 q 396 98 407 99 l 208 98 q 193 113 194 100 l 193 547 q 208 562 195 560 l 410 559 l 410 113 z "},"°":{"ha":411,"x_min":37,"x_max":374,"o":"m 37 585 q 122 475 37 488 q 161 472 141 472 l 248 472 q 373 559 361 472 q 374 585 374 571 l 374 758 q 285 869 374 856 q 248 872 267 872 l 161 872 q 39 791 53 872 q 37 758 37 776 l 37 585 m 259 783 q 274 768 273 780 l 274 576 q 259 562 271 563 l 152 562 q 137 576 138 564 l 137 768 q 152 783 140 781 l 259 783 z "},"¨":{"ha":491,"x_min":68,"x_max":431,"o":"m 187 777 l 187 909 l 68 909 l 68 777 l 187 777 m 431 777 l 431 909 l 312 909 l 312 777 l 431 777 z "},"÷":{"ha":681,"x_min":71,"x_max":610,"o":"m 610 347 l 610 446 l 71 446 l 71 347 l 610 347 m 401 81 l 401 228 l 279 228 l 279 81 l 401 81 m 401 566 l 401 713 l 279 713 l 279 566 l 401 566 z "},"$":{"ha":656,"x_min":61,"x_max":583,"o":"m 218 481 q 201 499 202 484 l 201 670 q 218 688 203 686 l 557 688 l 557 808 l 387 811 l 387 947 l 271 947 l 271 814 l 267 814 q 68 684 99 817 q 61 627 61 656 l 61 538 q 241 357 61 368 q 264 357 254 357 l 426 357 q 444 339 442 354 l 444 161 q 426 144 441 145 l 77 144 l 77 23 l 271 19 l 271 -113 l 387 -113 l 387 18 q 582 170 563 14 q 583 203 583 186 l 583 301 q 380 481 581 480 l 218 481 z "},"˙":{"ha":233,"x_min":54,"x_max":179,"o":"m 179 773 l 179 916 l 54 916 l 54 773 l 179 773 z "},"ı":{"ha":305,"x_min":85,"x_max":220,"o":"m 220 0 l 220 665 l 85 665 l 85 0 l 220 0 z "},"◌":{"ha":757,"x_min":60,"x_max":685,"o":"m 137 130 q 175 168 141 167 q 213 137 210 168 q 213 130 213 134 q 175 94 209 95 q 137 130 137 96 m 80 222 q 117 260 83 259 q 153 221 152 258 q 115 184 149 186 q 80 222 80 187 m 225 72 q 263 110 229 109 q 300 77 298 110 q 300 72 300 73 q 262 35 296 37 q 225 72 225 38 m 328 50 q 366 88 332 87 q 401 56 400 88 q 401 50 401 52 q 365 14 399 15 q 328 45 330 14 q 328 50 328 49 m 60 326 q 98 363 65 361 q 134 331 133 363 q 134 326 134 327 q 98 289 130 292 q 60 326 61 292 m 80 431 q 118 469 84 468 q 153 435 152 469 q 153 430 153 431 q 118 393 149 395 q 80 431 80 396 m 435 72 q 473 110 439 109 q 510 77 509 110 q 510 72 510 73 q 472 35 506 37 q 435 72 435 38 m 145 521 q 183 557 149 556 q 220 525 218 557 q 220 519 220 521 q 180 484 213 486 q 145 514 146 484 q 145 521 145 518 m 526 130 q 564 168 533 167 q 600 137 598 168 q 600 130 600 133 q 563 94 595 95 q 526 130 526 96 m 235 581 q 273 618 239 617 q 309 586 307 618 q 309 579 309 582 q 271 543 305 544 q 235 581 235 545 m 586 222 q 625 260 593 258 q 662 221 662 258 q 623 184 658 186 q 586 222 586 187 m 340 601 q 377 639 343 637 q 414 600 414 636 q 376 563 410 564 q 340 601 340 566 m 609 326 q 647 363 614 361 q 684 331 682 363 q 684 326 684 327 q 647 289 680 292 q 609 326 610 292 m 445 581 q 483 618 449 617 q 519 586 517 618 q 519 579 519 582 q 481 543 515 544 q 445 581 445 545 m 590 430 q 629 468 594 467 q 666 429 666 465 q 628 392 663 393 q 590 430 591 395 m 532 521 q 571 557 536 556 q 608 525 606 557 q 608 519 608 521 q 570 484 604 486 q 532 521 532 487 z "},"e":{"ha":591,"x_min":62,"x_max":537,"o":"m 521 -8 l 521 104 l 212 104 q 197 119 198 107 l 197 256 l 537 256 l 537 515 q 472 658 537 628 q 365 675 433 675 l 232 675 q 83 618 115 675 q 62 515 62 582 l 62 159 q 152 5 62 35 q 250 -8 191 -8 l 521 -8 m 197 552 q 212 567 199 566 l 391 567 q 406 552 404 564 l 406 353 l 197 353 l 197 552 z "},"é":{"ha":591,"x_min":62,"x_max":537,"o":"m 521 -8 l 521 104 l 212 104 q 197 119 198 107 l 197 256 l 537 256 l 537 515 q 472 658 537 628 q 365 675 433 675 l 232 675 q 83 618 115 675 q 62 515 62 582 l 62 159 q 152 5 62 35 q 250 -8 191 -8 l 521 -8 m 197 552 q 212 567 199 566 l 391 567 q 406 552 404 564 l 406 353 l 197 353 l 197 552 m 247 749 l 331 949 l 469 948 l 345 749 l 247 749 z "},"ě":{"ha":591,"x_min":62,"x_max":537,"o":"m 521 -8 l 521 104 l 212 104 q 197 119 198 107 l 197 256 l 537 256 l 537 515 q 472 658 537 628 q 365 675 433 675 l 232 675 q 83 618 115 675 q 62 515 62 582 l 62 159 q 152 5 62 35 q 250 -8 191 -8 l 521 -8 m 197 552 q 212 567 199 566 l 391 567 q 406 552 404 564 l 406 353 l 197 353 l 197 552 m 237 757 l 377 757 l 507 951 l 396 951 l 308 821 l 229 951 l 114 951 l 237 757 z "},"ê":{"ha":591,"x_min":62,"x_max":537,"o":"m 521 -8 l 521 104 l 212 104 q 197 119 198 107 l 197 256 l 537 256 l 537 515 q 472 658 537 628 q 365 675 433 675 l 232 675 q 83 618 115 675 q 62 515 62 582 l 62 159 q 152 5 62 35 q 250 -8 191 -8 l 521 -8 m 197 552 q 212 567 199 566 l 391 567 q 406 552 404 564 l 406 353 l 197 353 l 197 552 m 369 943 l 229 943 l 99 749 l 210 749 l 298 879 l 377 749 l 492 749 l 369 943 z "},"ë":{"ha":591,"x_min":62,"x_max":537,"o":"m 521 -8 l 521 104 l 212 104 q 197 119 198 107 l 197 256 l 537 256 l 537 515 q 472 658 537 628 q 365 675 433 675 l 232 675 q 83 618 115 675 q 62 515 62 582 l 62 159 q 152 5 62 35 q 250 -8 191 -8 l 521 -8 m 197 552 q 212 567 199 566 l 391 567 q 406 552 404 564 l 406 353 l 197 353 l 197 552 m 240 777 l 240 909 l 121 909 l 121 777 l 240 777 m 484 777 l 484 909 l 365 909 l 365 777 l 484 777 z "},"ė":{"ha":591,"x_min":62,"x_max":537,"o":"m 521 -8 l 521 104 l 212 104 q 197 119 198 107 l 197 256 l 537 256 l 537 515 q 472 658 537 628 q 365 675 433 675 l 232 675 q 83 618 115 675 q 62 515 62 582 l 62 159 q 152 5 62 35 q 250 -8 191 -8 l 521 -8 m 197 552 q 212 567 199 566 l 391 567 q 406 552 404 564 l 406 353 l 197 353 l 197 552 m 362 773 l 362 916 l 237 916 l 237 773 l 362 773 z "},"è":{"ha":591,"x_min":62,"x_max":537,"o":"m 521 -8 l 521 104 l 212 104 q 197 119 198 107 l 197 256 l 537 256 l 537 515 q 472 658 537 628 q 365 675 433 675 l 232 675 q 83 618 115 675 q 62 515 62 582 l 62 159 q 152 5 62 35 q 250 -8 191 -8 l 521 -8 m 197 552 q 212 567 199 566 l 391 567 q 406 552 404 564 l 406 353 l 197 353 l 197 552 m 132 948 l 269 949 l 358 749 l 263 749 l 132 948 z "},"…":{"ha":784,"x_min":72,"x_max":715,"o":"m 454 0 l 454 145 l 332 145 l 332 0 l 454 0 m 713 0 l 713 145 l 591 145 l 591 0 l 713 0 m 195 0 l 195 145 l 73 145 l 73 0 l 195 0 z "},"ē":{"ha":591,"x_min":62,"x_max":537,"o":"m 521 -8 l 521 104 l 212 104 q 197 119 198 107 l 197 256 l 537 256 l 537 515 q 472 658 537 628 q 365 675 433 675 l 232 675 q 83 618 115 675 q 62 515 62 582 l 62 159 q 152 5 62 35 q 250 -8 191 -8 l 521 -8 m 197 552 q 212 567 199 566 l 391 567 q 406 552 404 564 l 406 353 l 197 353 l 197 552 m 479 880 l 121 880 l 121 783 l 479 783 l 479 880 z "},"—":{"ha":888,"x_min":-1,"x_max":890,"o":"m 890 444 l -1 444 l -1 335 l 890 335 l 890 444 z "},"–":{"ha":582,"x_min":27,"x_max":555,"o":"m 555 444 l 27 444 l 27 335 l 555 335 l 555 444 z "},"ę":{"ha":591,"x_min":62,"x_max":544,"o":"m 521 -8 l 521 104 l 212 104 q 197 119 198 107 l 197 256 l 537 256 l 537 515 q 472 658 537 628 q 365 675 433 675 l 232 675 q 83 618 115 675 q 62 515 62 582 l 62 159 q 152 5 62 35 q 250 -8 191 -8 l 427 -8 l 353 -76 q 317 -165 317 -109 l 317 -197 q 397 -290 317 -275 q 454 -294 420 -294 l 544 -294 l 544 -203 l 433 -203 q 423 -194 425 -201 l 423 -134 q 434 -111 425 -122 l 521 -8 m 197 552 q 212 567 199 566 l 391 567 q 406 552 404 564 l 406 353 l 197 353 l 197 552 z "},"=":{"ha":699,"x_min":71,"x_max":623,"o":"m 623 534 l 71 534 l 71 435 l 623 435 l 623 534 m 623 285 l 71 285 l 71 186 l 623 186 l 623 285 z "},"℮":{"ha":682,"x_min":60,"x_max":623,"o":"m 182 107 l 182 347 l 623 347 q 500 624 623 536 q 349 674 433 674 q 113 536 193 674 q 60 330 60 445 q 163 60 60 157 q 342 -11 237 -11 q 553 75 460 -11 q 581 104 568 90 l 555 133 q 358 30 475 37 q 345 30 351 30 q 191 95 250 30 q 182 107 186 102 m 494 579 l 494 387 l 182 387 l 182 555 q 350 636 243 636 q 494 579 437 635 z "},"ð":{"ha":614,"x_min":61,"x_max":609,"o":"m 359 -11 q 530 69 498 -11 q 545 156 545 104 l 545 758 q 540 817 545 795 l 609 853 l 579 914 l 510 879 q 368 922 471 922 l 161 921 l 161 822 l 397 822 l 400 822 l 267 753 l 298 690 l 411 749 l 411 636 l 244 636 q 76 559 110 636 q 61 469 61 524 l 61 156 q 151 3 61 33 q 248 -11 190 -11 l 359 -11 m 194 117 l 194 521 q 209 536 197 534 l 412 536 l 412 117 q 397 102 410 103 l 209 102 q 194 117 195 104 z "},"!":{"ha":316,"x_min":99,"x_max":240,"o":"m 209 269 l 240 666 l 240 875 l 99 875 l 99 666 l 130 269 l 209 269 m 236 0 l 236 152 l 104 152 l 104 0 l 236 0 z "},"¡":{"ha":312,"x_min":94,"x_max":235,"o":"m 125 396 l 94 -1 l 94 -210 l 235 -210 l 235 -1 l 203 396 l 125 396 m 98 665 l 98 513 l 229 513 l 229 665 l 98 665 z "},"f":{"ha":408,"x_min":30,"x_max":430,"o":"m 430 814 l 430 925 l 283 926 q 123 856 156 926 q 107 764 107 819 l 107 665 l 30 665 l 30 560 l 107 560 l 107 0 l 240 0 l 240 560 l 406 560 l 406 665 l 240 665 l 240 799 q 255 814 243 812 l 430 814 z "},"ﬁ":{"ha":696,"x_min":24,"x_max":609,"o":"m 609 0 l 609 665 l 476 665 l 476 0 l 609 0 m 387 560 l 387 665 l 243 665 l 243 796 q 258 811 245 810 l 407 810 l 407 922 l 286 924 q 126 852 159 924 q 110 760 110 817 l 110 665 l 24 665 l 24 560 l 110 560 l 110 0 l 243 0 l 243 560 l 387 560 m 609 799 l 609 922 l 476 922 l 476 799 l 609 799 z "},"ﬂ":{"ha":699,"x_min":24,"x_max":616,"o":"m 399 560 l 399 665 l 239 665 l 239 799 q 254 814 241 812 l 410 814 l 410 925 l 282 926 q 122 856 155 926 q 106 764 106 819 l 106 665 l 24 665 l 24 560 l 106 560 l 106 0 l 239 0 l 239 560 l 399 560 m 616 0 l 616 916 l 481 916 l 481 0 l 616 0 z "},"ƒ":{"ha":541,"x_min":12,"x_max":510,"o":"m 102 -258 q 254 -197 217 -259 q 279 -95 274 -160 l 324 454 l 463 454 l 463 559 l 332 559 l 351 799 q 366 814 354 812 l 510 814 l 510 925 l 395 926 q 243 864 279 926 q 217 764 222 829 l 201 559 l 114 559 l 114 454 l 193 454 l 145 -132 q 130 -145 142 -144 l 12 -145 l 12 -256 l 102 -258 z "},"⁴":{"ha":526,"x_min":23,"x_max":483,"o":"m 403 338 l 403 450 l 483 450 l 483 540 l 403 540 l 403 864 l 283 865 q 202 833 228 867 q 176 792 193 821 l 23 522 l 23 450 l 292 450 l 292 338 l 403 338 m 264 765 q 277 773 273 773 l 292 773 l 292 540 l 133 540 l 264 765 z "},"⁄":{"ha":624,"x_min":14,"x_max":602,"o":"m 492 872 l 14 -11 l 125 -11 l 602 872 l 492 872 z "},"g":{"ha":605,"x_min":61,"x_max":544,"o":"m 410 113 q 396 98 407 99 l 208 98 q 193 113 194 100 l 193 543 q 208 557 195 556 l 410 555 l 410 113 m 396 -157 l 85 -157 l 85 -269 l 357 -269 q 530 -187 496 -269 q 544 -102 544 -152 l 544 665 l 233 669 q 79 608 111 670 q 61 513 61 572 l 61 138 q 140 0 61 26 q 218 -11 172 -11 l 293 -11 q 410 62 387 -9 l 410 -142 q 396 -157 407 -156 z "},"ğ":{"ha":605,"x_min":61,"x_max":544,"o":"m 410 113 q 396 98 407 99 l 208 98 q 193 113 194 100 l 193 543 q 208 557 195 556 l 410 555 l 410 113 m 396 -157 l 85 -157 l 85 -269 l 357 -269 q 530 -187 496 -269 q 544 -102 544 -152 l 544 665 l 233 669 q 79 608 111 670 q 61 513 61 572 l 61 138 q 140 0 61 26 q 218 -11 172 -11 l 293 -11 q 410 62 387 -9 l 410 -142 q 396 -157 407 -156 m 145 929 q 199 780 145 815 q 321 755 241 755 q 471 823 439 755 q 488 929 488 861 l 403 929 q 370 846 403 863 q 321 838 351 838 q 237 884 250 838 q 233 929 233 902 l 145 929 z "},"ß":{"ha":671,"x_min":30,"x_max":618,"o":"m 410 -5 q 616 141 593 -5 q 618 182 618 161 l 618 313 q 528 460 617 427 q 598 593 597 500 l 598 681 q 393 867 595 865 l 305 867 q 104 708 118 867 q 103 684 103 696 l 103 665 l 30 665 l 30 560 l 103 560 l 103 0 l 236 0 l 236 736 q 254 754 239 753 l 446 754 q 464 736 463 751 l 464 525 q 441 507 463 509 l 305 507 l 305 399 l 467 399 q 484 381 483 396 l 484 125 q 467 107 481 109 l 305 107 l 305 -5 l 410 -5 z "},"`":{"ha":407,"x_min":45,"x_max":271,"o":"m 45 948 l 182 949 l 271 749 l 176 749 l 45 948 z "},">":{"ha":635,"x_min":73,"x_max":576,"o":"m 576 453 l 73 701 l 73 585 l 449 408 l 73 232 l 73 118 l 576 366 l 576 453 z "},"≥":{"ha":636,"x_min":66,"x_max":570,"o":"m 570 468 l 66 693 l 66 579 l 437 425 l 66 269 l 66 155 l 570 381 l 570 468 m 557 127 l 66 127 l 66 28 l 557 28 l 557 127 z "},"«":{"ha":562,"x_min":42,"x_max":529,"o":"m 56 326 l 193 111 l 302 111 l 176 335 q 176 357 172 347 l 308 581 l 201 581 l 56 362 q 53 330 42 345 q 56 326 54 327 m 277 326 l 410 111 l 524 111 l 399 335 q 399 357 393 346 l 529 581 l 419 581 l 277 362 q 275 328 264 345 q 277 326 277 327 z "},"»":{"ha":563,"x_min":23,"x_max":510,"o":"m 496 365 l 359 579 l 250 579 l 376 355 q 376 334 380 343 l 244 110 l 351 110 l 496 328 q 499 361 510 346 q 496 365 498 363 m 275 365 l 142 579 l 28 579 l 153 355 q 153 334 159 345 l 23 110 l 133 110 l 275 328 q 277 362 288 346 q 275 365 275 363 z "},"‹":{"ha":354,"x_min":41,"x_max":321,"o":"m 53 326 l 190 111 l 316 111 l 190 335 q 190 357 184 347 l 321 581 l 199 581 l 53 362 q 52 328 41 345 q 53 326 53 327 z "},"›":{"ha":354,"x_min":33,"x_max":313,"o":"m 301 365 l 164 579 l 38 579 l 164 355 q 164 334 170 343 l 33 110 l 155 110 l 301 328 q 302 362 313 346 q 301 365 301 363 z "},"h":{"ha":614,"x_min":69,"x_max":552,"o":"m 319 675 q 202 609 228 674 l 202 916 l 69 916 l 71 0 l 203 0 l 202 552 q 217 567 205 566 l 404 567 q 419 552 418 564 l 419 0 l 552 0 l 552 528 q 476 665 552 639 q 395 675 444 675 l 319 675 z "},"˝":{"ha":528,"x_min":76,"x_max":492,"o":"m 76 749 l 159 949 l 290 948 l 172 749 l 76 749 m 271 749 l 357 949 l 492 948 l 368 749 l 271 749 z "},"-":{"ha":438,"x_min":41,"x_max":397,"o":"m 397 444 l 41 444 l 41 335 l 397 335 l 397 444 z "},"i":{"ha":302,"x_min":84,"x_max":218,"o":"m 218 0 l 218 665 l 84 665 l 84 0 l 218 0 m 218 783 l 218 906 l 84 906 l 84 783 l 218 783 z "},"í":{"ha":305,"x_min":85,"x_max":323,"o":"m 220 0 l 220 665 l 85 665 l 85 0 l 220 0 m 100 749 l 184 949 l 323 948 l 198 749 l 100 749 z "},"î":{"ha":305,"x_min":-47,"x_max":346,"o":"m 220 0 l 220 665 l 85 665 l 85 0 l 220 0 m 222 943 l 83 943 l -47 749 l 64 749 l 152 879 l 231 749 l 346 749 l 222 943 z "},"ï":{"ha":305,"x_min":-26,"x_max":338,"o":"m 220 0 l 220 665 l 85 665 l 85 0 l 220 0 m 94 777 l 94 909 l -26 909 l -26 777 l 94 777 m 338 777 l 338 909 l 218 909 l 218 777 l 338 777 z "},"ì":{"ha":305,"x_min":-15,"x_max":220,"o":"m 220 0 l 220 665 l 85 665 l 85 0 l 220 0 m -15 948 l 122 949 l 212 749 l 117 749 l -15 948 z "},"ī":{"ha":305,"x_min":0,"x_max":307,"o":"m 220 0 l 220 665 l 85 665 l 85 0 l 220 0 m 305 880 l 1 880 l 1 783 l 305 783 l 305 880 z "},"∞":{"ha":1050,"x_min":53,"x_max":997,"o":"m 193 256 q 176 271 178 259 l 176 472 q 193 487 179 486 l 366 487 q 388 472 378 486 l 461 366 l 396 275 q 363 256 376 258 l 193 256 m 829 145 q 997 312 994 151 l 997 431 q 883 594 997 572 q 829 598 859 598 l 715 598 q 598 555 640 598 q 556 500 586 540 l 532 465 l 510 496 q 430 581 461 564 q 343 598 397 598 l 221 598 q 71 533 103 598 q 53 431 53 495 l 53 312 q 129 159 53 190 q 221 145 165 145 l 338 145 q 453 194 411 145 q 496 252 463 205 l 518 282 l 543 247 q 614 165 590 180 q 711 145 650 145 l 829 145 m 701 256 q 663 271 675 256 q 659 278 661 275 l 589 381 l 651 469 q 682 487 669 487 l 856 487 q 873 472 872 484 l 873 271 q 856 256 871 258 l 701 256 z "},"∫":{"ha":483,"x_min":16,"x_max":452,"o":"m 165 754 l 165 -129 q 151 -144 163 -142 l 16 -144 l 16 -269 l 118 -269 q 298 -152 274 -269 q 304 -96 304 -126 l 304 787 q 319 802 307 800 l 452 802 l 452 926 l 350 926 q 172 817 198 926 q 165 754 165 788 z "},"į":{"ha":305,"x_min":16,"x_max":243,"o":"m 220 0 l 220 665 l 85 665 l 85 0 l 126 0 l 52 -68 q 16 -157 16 -100 l 16 -189 q 96 -282 16 -267 q 153 -286 119 -286 l 243 -286 l 243 -195 l 132 -195 q 122 -186 123 -193 l 122 -126 q 133 -103 123 -114 l 220 0 m 216 773 l 216 916 l 91 916 l 91 773 l 216 773 z "},"j":{"ha":286,"x_min":-43,"x_max":213,"o":"m 213 783 l 213 906 l 80 906 l 80 783 l 213 783 m 65 -156 l -43 -156 l -43 -269 l 26 -269 q 199 -187 165 -269 q 213 -102 213 -152 l 213 665 l 80 665 l 80 -141 q 65 -156 77 -155 z "},"k":{"ha":623,"x_min":81,"x_max":618,"o":"m 369 292 q 385 277 380 289 l 481 0 l 618 0 l 536 232 q 477 339 506 317 q 449 354 464 349 q 505 461 479 377 l 567 665 l 435 665 l 359 418 q 345 403 354 404 l 213 403 l 213 916 l 81 916 l 81 0 l 213 0 l 213 292 l 369 292 z "},"l":{"ha":301,"x_min":84,"x_max":217,"o":"m 217 0 l 217 916 l 84 916 l 84 0 l 217 0 z "},"ĺ":{"ha":301,"x_min":84,"x_max":313,"o":"m 217 0 l 217 916 l 84 916 l 84 0 l 217 0 m 91 963 l 175 1164 l 313 1162 l 189 963 l 91 963 z "},"ľ":{"ha":397,"x_min":84,"x_max":400,"o":"m 217 0 l 217 916 l 84 916 l 84 0 l 217 0 m 281 777 l 323 777 q 282 671 317 724 l 324 639 q 399 799 399 715 l 399 917 l 281 917 l 281 777 z "},"<":{"ha":628,"x_min":52,"x_max":555,"o":"m 52 338 l 555 90 l 555 206 l 179 382 l 555 559 l 555 673 l 52 425 l 52 338 z "},"≤":{"ha":636,"x_min":66,"x_max":570,"o":"m 66 380 l 570 155 l 570 270 l 199 425 l 570 581 l 570 693 l 66 467 l 66 380 m 570 127 l 72 127 l 72 28 l 570 28 l 570 127 z "},"¬":{"ha":726,"x_min":54,"x_max":655,"o":"m 655 454 l 54 454 l 54 357 l 544 357 l 544 182 l 655 182 l 655 454 z "},"◊":{"ha":685,"x_min":23,"x_max":662,"o":"m 378 -5 l 662 431 l 387 867 l 302 867 l 23 426 l 297 -5 l 378 -5 m 244 298 l 153 438 l 256 590 l 345 734 l 441 563 l 533 423 l 423 263 l 335 125 l 244 298 z "},"ł":{"ha":308,"x_min":-12,"x_max":321,"o":"m 220 0 l 220 429 l 321 465 l 294 551 l 220 524 l 220 916 l 87 916 l 87 475 l -12 439 l 16 354 l 87 380 l 87 0 l 220 0 z "},"m":{"ha":926,"x_min":64,"x_max":869,"o":"m 315 675 q 193 598 217 674 l 183 665 l 64 665 l 65 0 l 199 0 l 198 552 q 212 567 201 566 l 387 567 q 401 552 400 564 l 401 0 l 534 0 l 534 528 l 534 548 l 534 552 q 549 567 537 566 l 722 567 q 736 552 735 564 l 736 0 l 869 0 l 869 528 q 793 665 869 639 q 712 675 761 675 l 651 675 q 528 587 547 674 q 416 674 509 663 q 377 675 397 675 l 315 675 z "},"¯":{"ha":491,"x_min":66,"x_max":425,"o":"m 425 880 l 66 880 l 66 783 l 425 783 l 425 880 z "},"−":{"ha":728,"x_min":71,"x_max":658,"o":"m 658 454 l 71 454 l 71 355 l 658 355 l 658 454 z "},"×":{"ha":628,"x_min":71,"x_max":557,"o":"m 486 646 l 315 473 l 142 646 l 71 574 l 243 401 l 71 229 l 141 159 l 313 331 l 486 159 l 557 231 l 385 403 l 557 574 l 486 646 z "},"n":{"ha":620,"x_min":75,"x_max":557,"o":"m 324 675 q 203 595 225 674 l 193 665 l 75 665 l 76 0 l 209 0 l 208 552 q 222 567 210 566 l 410 567 q 425 552 423 564 l 425 0 l 557 0 l 557 528 q 481 665 557 639 q 400 675 449 675 l 324 675 z "},"ń":{"ha":620,"x_min":75,"x_max":557,"o":"m 324 675 q 203 595 225 674 l 193 665 l 75 665 l 76 0 l 209 0 l 208 552 q 222 567 210 566 l 410 567 q 425 552 423 564 l 425 0 l 557 0 l 557 528 q 481 665 557 639 q 400 675 449 675 l 324 675 m 271 749 l 355 949 l 494 948 l 369 749 l 271 749 z "},"ň":{"ha":620,"x_min":75,"x_max":557,"o":"m 324 675 q 203 595 225 674 l 193 665 l 75 665 l 76 0 l 209 0 l 208 552 q 222 567 210 566 l 410 567 q 425 552 423 564 l 425 0 l 557 0 l 557 528 q 481 665 557 639 q 400 675 449 675 l 324 675 m 255 757 l 395 757 l 525 951 l 414 951 l 326 821 l 247 951 l 132 951 l 255 757 z "},"≠":{"ha":693,"x_min":71,"x_max":623,"o":"m 434 692 l 366 534 l 71 534 l 71 435 l 323 435 l 258 285 l 71 285 l 71 186 l 214 186 l 145 27 l 252 27 l 321 186 l 623 186 l 623 285 l 363 285 l 429 435 l 623 435 l 623 534 l 472 534 l 540 692 l 434 692 z "},"ñ":{"ha":620,"x_min":75,"x_max":557,"o":"m 324 675 q 203 595 225 674 l 193 665 l 75 665 l 76 0 l 209 0 l 208 552 q 222 567 210 566 l 410 567 q 425 552 423 564 l 425 0 l 557 0 l 557 528 q 481 665 557 639 q 400 675 449 675 l 324 675 m 212 777 q 244 831 213 830 q 328 802 260 831 q 415 779 381 779 q 513 897 505 779 q 514 925 514 910 l 427 925 q 400 873 427 878 q 391 872 395 872 q 305 901 370 872 q 218 924 254 924 q 134 850 149 924 q 127 779 127 822 l 212 777 z "},"#":{"ha":711,"x_min":22,"x_max":689,"o":"m 84 0 l 186 0 l 228 221 l 399 221 l 357 0 l 458 0 l 500 221 l 625 221 l 625 317 l 519 317 l 564 552 l 689 552 l 689 648 l 582 648 l 624 868 l 524 868 l 481 648 l 309 648 l 351 868 l 251 868 l 209 648 l 85 648 l 85 552 l 190 552 l 145 317 l 22 317 l 22 221 l 126 221 l 84 0 m 463 552 l 418 317 l 247 317 l 292 552 l 463 552 z "},"o":{"ha":614,"x_min":61,"x_max":553,"o":"m 404 563 q 419 548 418 560 l 419 117 q 404 102 416 103 l 210 102 q 195 117 197 104 l 195 548 q 210 563 198 562 l 404 563 m 61 156 q 151 3 61 33 q 248 -11 190 -11 l 366 -11 q 540 71 506 -11 q 553 156 553 106 l 553 509 q 464 662 553 632 q 366 675 425 675 l 248 675 q 75 594 109 675 q 61 509 61 559 l 61 156 z "},"ó":{"ha":614,"x_min":61,"x_max":553,"o":"m 404 563 q 419 548 418 560 l 419 117 q 404 102 416 103 l 210 102 q 195 117 197 104 l 195 548 q 210 563 198 562 l 404 563 m 61 156 q 151 3 61 33 q 248 -11 190 -11 l 366 -11 q 540 71 506 -11 q 553 156 553 106 l 553 509 q 464 662 553 632 q 366 675 425 675 l 248 675 q 75 594 109 675 q 61 509 61 559 l 61 156 m 258 749 l 342 949 l 480 948 l 355 749 l 258 749 z "},"ô":{"ha":614,"x_min":61,"x_max":553,"o":"m 404 563 q 419 548 418 560 l 419 117 q 404 102 416 103 l 210 102 q 195 117 197 104 l 195 548 q 210 563 198 562 l 404 563 m 61 156 q 151 3 61 33 q 248 -11 190 -11 l 366 -11 q 540 71 506 -11 q 553 156 553 106 l 553 509 q 464 662 553 632 q 366 675 425 675 l 248 675 q 75 594 109 675 q 61 509 61 559 l 61 156 m 380 943 l 240 943 l 110 749 l 221 749 l 309 879 l 388 749 l 503 749 l 380 943 z "},"ö":{"ha":614,"x_min":61,"x_max":553,"o":"m 404 563 q 419 548 418 560 l 419 117 q 404 102 416 103 l 210 102 q 195 117 197 104 l 195 548 q 210 563 198 562 l 404 563 m 61 156 q 151 3 61 33 q 248 -11 190 -11 l 366 -11 q 540 71 506 -11 q 553 156 553 106 l 553 509 q 464 662 553 632 q 366 675 425 675 l 248 675 q 75 594 109 675 q 61 509 61 559 l 61 156 m 251 777 l 251 909 l 132 909 l 132 777 l 251 777 m 495 777 l 495 909 l 376 909 l 376 777 l 495 777 z "},"œ":{"ha":948,"x_min":61,"x_max":895,"o":"m 406 563 q 420 548 419 560 l 420 117 q 406 102 418 103 l 210 102 q 195 117 197 104 l 195 548 q 210 563 198 562 l 406 563 m 552 552 q 567 567 555 566 l 747 567 q 762 552 761 564 l 762 353 l 552 353 l 552 552 m 628 -8 l 878 -8 l 878 104 l 567 104 q 552 119 553 107 l 552 256 l 895 256 l 895 515 q 827 659 895 628 q 722 675 789 675 l 609 675 q 481 631 510 674 q 346 675 446 675 l 248 675 q 75 594 109 675 q 61 509 61 559 l 61 156 q 151 3 61 33 q 248 -11 190 -11 l 346 -11 q 488 43 454 -9 q 628 -8 526 -8 z "},"˛":{"ha":450,"x_min":136,"x_max":362,"o":"m 362 -286 l 362 -195 l 251 -195 q 241 -186 243 -193 l 241 -126 q 252 -103 243 -114 l 339 0 l 255 8 l 171 -68 q 136 -157 136 -100 l 136 -189 q 216 -282 136 -267 q 273 -286 239 -286 l 362 -286 z "},"ò":{"ha":614,"x_min":61,"x_max":553,"o":"m 404 563 q 419 548 418 560 l 419 117 q 404 102 416 103 l 210 102 q 195 117 197 104 l 195 548 q 210 563 198 562 l 404 563 m 61 156 q 151 3 61 33 q 248 -11 190 -11 l 366 -11 q 540 71 506 -11 q 553 156 553 106 l 553 509 q 464 662 553 632 q 366 675 425 675 l 248 675 q 75 594 109 675 q 61 509 61 559 l 61 156 m 142 948 l 279 949 l 369 749 l 274 749 l 142 948 z "},"ő":{"ha":614,"x_min":61,"x_max":578,"o":"m 404 563 q 419 548 418 560 l 419 117 q 404 102 416 103 l 210 102 q 195 117 197 104 l 195 548 q 210 563 198 562 l 404 563 m 61 156 q 151 3 61 33 q 248 -11 190 -11 l 366 -11 q 540 71 506 -11 q 553 156 553 106 l 553 509 q 464 662 553 632 q 366 675 425 675 l 248 675 q 75 594 109 675 q 61 509 61 559 l 61 156 m 161 749 l 244 949 l 376 948 l 258 749 l 161 749 m 357 749 l 442 949 l 578 948 l 453 749 l 357 749 z "},"ō":{"ha":614,"x_min":61,"x_max":553,"o":"m 404 563 q 419 548 418 560 l 419 117 q 404 102 416 103 l 210 102 q 195 117 197 104 l 195 548 q 210 563 198 562 l 404 563 m 61 156 q 151 3 61 33 q 248 -11 190 -11 l 366 -11 q 540 71 506 -11 q 553 156 553 106 l 553 509 q 464 662 553 632 q 366 675 425 675 l 248 675 q 75 594 109 675 q 61 509 61 559 l 61 156 m 490 880 l 132 880 l 132 783 l 490 783 l 490 880 z "},"½":{"ha":1080,"x_min":30,"x_max":1031,"o":"m 400 429 l 307 429 l 307 861 l 203 861 l 30 750 l 76 670 l 195 743 l 195 429 l 58 429 l 58 338 l 400 338 l 400 429 m 736 872 l 258 -11 l 369 -11 l 846 872 l 736 872 m 674 164 l 674 0 l 1028 0 l 1028 91 l 788 91 l 788 151 q 803 178 789 172 l 959 251 q 1027 315 1017 278 q 1031 345 1031 328 l 1031 418 q 918 529 1031 529 q 916 529 917 529 l 688 525 l 688 434 l 906 434 q 917 423 916 431 l 917 355 q 905 340 914 346 l 743 263 q 684 216 694 239 q 674 164 674 195 z "},"¼":{"ha":1114,"x_min":30,"x_max":1070,"o":"m 990 0 l 990 113 l 1070 113 l 1070 202 l 990 202 l 990 526 l 871 528 q 789 495 815 529 q 764 454 780 483 l 610 184 l 610 113 l 879 113 l 879 0 l 990 0 m 852 427 q 864 435 860 435 l 879 435 l 879 202 l 720 202 l 852 427 m 400 429 l 307 429 l 307 861 l 203 861 l 30 750 l 76 670 l 195 743 l 195 429 l 58 429 l 58 338 l 400 338 l 400 429 m 743 872 l 264 -11 l 376 -11 l 853 872 l 743 872 z "},"¹":{"ha":435,"x_min":30,"x_max":400,"o":"m 400 429 l 307 429 l 307 861 l 203 861 l 30 750 l 76 670 l 195 743 l 195 429 l 58 429 l 58 338 l 400 338 l 400 429 z "},"ª":{"ha":483,"x_min":47,"x_max":422,"o":"m 305 486 l 172 486 q 157 500 159 488 l 157 609 q 172 624 160 623 l 305 624 l 305 486 m 212 387 q 305 445 288 387 q 309 461 308 453 l 320 397 l 422 397 l 422 758 q 373 886 422 859 q 263 906 338 906 l 76 906 l 76 814 l 290 814 q 305 799 304 811 l 305 708 l 202 708 q 66 656 96 708 q 47 559 47 623 l 47 532 q 117 396 47 422 q 186 387 144 387 l 212 387 z "},"º":{"ha":515,"x_min":57,"x_max":461,"o":"m 334 815 q 349 800 347 812 l 349 498 q 334 483 346 484 l 184 483 q 171 498 172 486 l 171 800 q 184 815 174 814 l 334 815 m 57 547 q 142 399 57 427 q 231 388 178 388 l 288 388 q 448 461 415 388 q 461 547 461 495 l 461 747 q 382 897 461 867 q 288 910 345 910 l 231 910 q 72 836 103 910 q 57 747 57 800 l 57 547 z "},"ø":{"ha":614,"x_min":61,"x_max":553,"o":"m 463 747 l 427 671 q 366 675 401 675 l 248 675 q 75 594 109 675 q 61 509 61 559 l 61 156 q 122 15 62 53 l 77 -81 l 153 -81 l 189 -7 q 248 -11 216 -11 l 366 -11 q 540 71 506 -11 q 553 156 553 106 l 553 509 q 492 650 552 612 l 538 747 l 463 747 m 195 548 q 210 563 198 562 l 377 563 l 195 172 l 195 548 m 419 117 q 404 102 416 103 l 239 102 l 419 491 l 419 117 z "},"õ":{"ha":614,"x_min":61,"x_max":553,"o":"m 404 563 q 419 548 418 560 l 419 117 q 404 102 416 103 l 210 102 q 195 117 197 104 l 195 548 q 210 563 198 562 l 404 563 m 61 156 q 151 3 61 33 q 248 -11 190 -11 l 366 -11 q 540 71 506 -11 q 553 156 553 106 l 553 509 q 464 662 553 632 q 366 675 425 675 l 248 675 q 75 594 109 675 q 61 509 61 559 l 61 156 m 197 777 q 229 831 198 830 q 313 802 245 831 q 400 779 366 779 q 498 897 490 779 q 499 925 499 910 l 412 925 q 385 873 412 878 q 376 872 380 872 q 290 901 355 872 q 203 924 239 924 q 119 850 134 924 q 113 779 113 822 l 197 777 z "},"p":{"ha":618,"x_min":75,"x_max":557,"o":"m 208 -258 l 208 -1 l 385 -3 q 541 60 509 -4 q 557 152 557 95 l 557 528 q 481 665 557 639 q 400 675 449 675 l 326 675 q 205 586 221 674 l 193 665 l 75 665 l 75 -258 l 208 -258 m 208 552 q 222 567 210 566 l 411 567 q 426 552 425 564 l 426 121 q 411 106 423 107 l 208 107 l 208 552 z "},"¶":{"ha":713,"x_min":35,"x_max":616,"o":"m 496 0 l 616 0 l 616 861 l 241 867 q 38 728 61 871 q 35 689 35 709 l 35 609 q 144 444 35 484 q 241 427 187 427 l 288 427 l 288 0 l 407 0 l 407 746 l 496 746 l 496 0 z "},"(":{"ha":384,"x_min":80,"x_max":358,"o":"m 358 -231 l 358 -129 l 232 -129 q 217 -114 218 -126 l 217 806 q 232 821 220 819 l 358 821 l 358 922 l 286 922 q 80 738 81 920 l 80 -46 q 286 -231 83 -229 l 358 -231 z "},")":{"ha":384,"x_min":26,"x_max":304,"o":"m 26 -231 l 26 -129 l 152 -129 q 167 -114 165 -126 l 167 806 q 152 821 164 819 l 26 821 l 26 922 l 98 922 q 304 738 302 920 l 304 -46 q 98 -231 301 -229 l 26 -231 z "},"∂":{"ha":692,"x_min":56,"x_max":598,"o":"m 393 -5 q 598 175 597 -3 l 598 680 q 469 859 598 825 q 389 867 433 868 l 99 861 l 99 741 l 438 741 q 456 723 454 738 l 456 446 q 331 524 431 522 l 240 524 q 61 401 85 524 q 56 343 56 374 l 56 180 q 260 -5 58 -4 l 393 -5 m 214 121 q 197 138 198 123 l 197 388 q 214 406 199 404 l 441 406 q 456 391 454 403 l 456 138 q 438 121 453 122 l 214 121 z "},"%":{"ha":1017,"x_min":39,"x_max":978,"o":"m 39 490 q 125 380 39 393 q 164 377 144 377 l 278 377 q 407 490 406 380 l 403 755 q 312 867 403 854 q 278 869 296 869 l 164 869 q 42 788 56 869 q 39 755 39 773 l 39 490 m 283 773 q 297 760 296 770 l 297 487 q 283 473 294 475 l 160 473 q 145 487 146 476 l 145 760 q 160 773 148 772 l 283 773 m 613 104 q 715 -7 613 3 q 739 -8 727 -8 l 852 -8 q 978 88 970 -8 q 978 104 978 96 l 978 372 q 886 481 978 469 q 852 484 869 484 l 739 484 q 614 397 627 484 q 613 372 613 385 l 613 104 m 857 388 q 872 374 871 385 l 872 102 q 857 88 869 90 l 734 88 q 719 102 720 91 l 719 374 q 734 388 722 387 l 857 388 m 694 872 l 216 -11 l 327 -11 l 804 872 l 694 872 z "},".":{"ha":247,"x_min":60,"x_max":189,"o":"m 189 0 l 189 153 l 60 153 l 60 0 l 189 0 z "},"·":{"ha":270,"x_min":65,"x_max":205,"o":"m 205 304 l 205 465 l 65 465 l 65 304 l 205 304 z "},"‰":{"ha":1462,"x_min":39,"x_max":1423,"o":"m 1058 104 q 1160 -7 1058 3 q 1184 -8 1172 -8 l 1297 -8 q 1423 88 1415 -8 q 1423 104 1423 96 l 1423 372 q 1331 481 1423 469 q 1297 484 1314 484 l 1184 484 q 1059 397 1072 484 q 1058 372 1058 385 l 1058 104 m 1302 388 q 1317 374 1316 385 l 1317 102 q 1302 88 1314 90 l 1179 88 q 1164 102 1165 91 l 1164 374 q 1179 388 1166 387 l 1302 388 m 39 490 q 125 380 39 393 q 164 377 144 377 l 278 377 q 407 490 406 380 l 403 755 q 312 867 403 854 q 278 869 296 869 l 164 869 q 42 788 56 869 q 39 755 39 773 l 39 490 m 283 773 q 297 760 296 770 l 297 487 q 283 473 294 475 l 160 473 q 145 487 146 476 l 145 760 q 160 773 148 772 l 283 773 m 613 104 q 715 -7 613 3 q 739 -8 727 -8 l 852 -8 q 978 88 970 -8 q 978 104 978 96 l 978 372 q 886 481 978 469 q 852 484 869 484 l 739 484 q 614 397 627 484 q 613 372 613 385 l 613 104 m 857 388 q 872 374 871 385 l 872 102 q 857 88 869 90 l 734 88 q 719 102 720 91 l 719 374 q 734 388 722 387 l 857 388 m 694 872 l 216 -11 l 327 -11 l 804 872 l 694 872 z "},"π":{"ha":689,"x_min":23,"x_max":666,"o":"m 236 0 l 236 560 l 452 560 l 452 0 l 585 0 l 585 560 l 666 560 l 666 665 l 23 665 l 23 560 l 103 560 l 103 0 l 236 0 z "},"+":{"ha":728,"x_min":75,"x_max":654,"o":"m 654 454 l 415 454 l 415 686 l 312 686 l 312 454 l 75 454 l 75 355 l 312 355 l 312 122 l 415 122 l 415 355 l 654 355 l 654 454 z "},"±":{"ha":728,"x_min":75,"x_max":654,"o":"m 654 510 l 415 510 l 415 715 l 312 715 l 312 510 l 75 510 l 75 411 l 312 411 l 312 205 l 415 205 l 415 411 l 654 411 l 654 510 m 654 127 l 75 127 l 75 28 l 654 28 l 654 127 z "},"∏":{"ha":785,"x_min":30,"x_max":755,"o":"m 755 861 l 30 861 l 30 741 l 118 741 l 118 0 l 256 0 l 256 741 l 529 741 l 529 0 l 667 0 l 667 741 l 755 741 l 755 861 z "},"q":{"ha":618,"x_min":61,"x_max":544,"o":"m 233 669 q 79 608 111 670 q 61 513 61 572 l 61 138 q 140 0 61 26 q 218 -11 172 -11 l 293 -11 q 410 62 387 -9 l 410 -258 l 544 -258 l 544 665 l 233 669 m 410 113 q 396 98 407 99 l 208 98 q 193 113 194 100 l 193 543 q 208 557 195 556 l 410 555 l 410 113 z "},"?":{"ha":502,"x_min":38,"x_max":439,"o":"m 247 229 l 247 297 q 266 354 248 334 q 271 359 270 357 l 363 456 q 434 557 425 518 q 439 601 439 578 l 439 696 q 331 857 439 831 q 255 865 297 865 l 38 865 l 38 749 l 290 749 q 305 734 304 746 l 305 579 q 296 555 304 564 l 176 430 q 122 355 129 380 q 117 312 117 338 l 117 229 l 247 229 m 248 0 l 248 152 l 115 152 l 115 0 l 248 0 z "},"¿":{"ha":515,"x_min":76,"x_max":477,"o":"m 269 435 l 269 368 q 250 311 267 331 q 244 305 245 308 l 152 209 q 81 107 91 146 q 76 64 76 87 l 76 -31 q 184 -193 76 -167 q 260 -201 218 -201 l 477 -201 l 477 -84 l 225 -84 q 210 -69 212 -81 l 210 85 q 220 110 212 100 l 339 235 q 393 309 387 285 q 399 353 399 327 l 399 435 l 269 435 m 267 665 l 267 513 l 400 513 l 400 665 l 267 665 z "},"\"":{"ha":378,"x_min":49,"x_max":315,"o":"m 49 637 l 49 928 l 152 928 l 152 804 l 111 637 l 49 637 m 212 637 l 212 928 l 315 928 l 315 804 l 274 637 l 212 637 z "},"„":{"ha":414,"x_min":56,"x_max":354,"o":"m 232 9 l 274 9 q 233 -99 269 -45 l 275 -133 q 298 -108 288 -121 q 318 -81 309 -95 q 333 -54 327 -68 q 344 -26 339 -41 q 351 2 349 -12 q 354 31 354 16 l 354 153 l 232 153 l 232 9 m 56 9 l 98 9 q 57 -99 92 -45 l 99 -133 q 157 -54 137 -95 q 178 31 178 -12 l 178 153 l 56 153 l 56 9 z "},"“":{"ha":418,"x_min":62,"x_max":363,"o":"m 187 796 l 144 796 q 186 907 149 852 l 142 941 q 64 774 64 861 l 64 650 l 187 650 l 187 796 m 362 796 l 319 796 q 361 907 324 852 l 317 941 q 239 774 239 861 l 239 650 l 362 650 l 362 796 z "},"”":{"ha":416,"x_min":53,"x_max":354,"o":"m 229 781 l 273 781 q 231 670 267 726 l 274 636 q 353 803 353 716 l 353 928 l 229 928 l 229 781 m 54 781 l 98 781 q 56 670 92 726 l 99 636 q 178 803 178 716 l 178 928 l 54 928 l 54 781 z "},"‘":{"ha":237,"x_min":62,"x_max":189,"o":"m 187 796 l 144 796 q 186 907 149 852 l 142 941 q 64 774 64 861 l 64 650 l 187 650 l 187 796 z "},"’":{"ha":229,"x_min":46,"x_max":172,"o":"m 47 781 l 91 781 q 49 670 85 726 l 92 636 q 171 803 171 716 l 171 928 l 47 928 l 47 781 z "},"‚":{"ha":243,"x_min":56,"x_max":183,"o":"m 56 3 l 100 3 q 57 -111 95 -54 l 102 -146 q 183 26 182 -64 l 183 153 l 56 153 l 56 3 z "},"'":{"ha":220,"x_min":49,"x_max":157,"o":"m 49 637 l 49 928 l 157 928 l 157 804 l 114 637 l 49 637 z "},"r":{"ha":382,"x_min":72,"x_max":384,"o":"m 321 675 q 201 595 222 674 l 190 665 l 72 665 l 73 0 l 206 0 l 205 545 q 220 559 208 557 l 384 559 l 384 675 l 321 675 z "},"ŕ":{"ha":382,"x_min":72,"x_max":384,"o":"m 321 675 q 201 595 222 674 l 190 665 l 72 665 l 73 0 l 206 0 l 205 545 q 220 559 208 557 l 384 559 l 384 675 l 321 675 m 113 749 l 197 949 l 335 948 l 210 749 l 113 749 z "},"√":{"ha":793,"x_min":27,"x_max":764,"o":"m 460 -58 l 764 926 l 644 926 l 399 121 l 218 665 l 27 665 l 27 544 l 122 544 l 330 -58 l 460 -58 z "},"ř":{"ha":384,"x_min":31,"x_max":425,"o":"m 321 675 q 201 595 222 674 l 190 665 l 72 665 l 73 0 l 206 0 l 205 545 q 220 559 208 557 l 384 559 l 384 675 l 321 675 m 155 757 l 294 757 l 425 951 l 313 951 l 225 821 l 146 951 l 31 951 l 155 757 z "},"®":{"ha":715,"x_min":87,"x_max":654,"o":"m 567 811 q 581 798 579 808 l 581 293 q 567 279 578 281 l 174 279 q 160 293 161 282 l 160 798 q 174 811 163 810 l 567 811 m 87 351 q 165 227 87 248 q 233 218 193 218 l 507 218 q 646 289 621 218 q 654 351 654 316 l 654 739 q 575 864 654 842 q 507 872 547 872 l 233 872 q 95 802 119 872 q 87 739 87 774 l 87 351 m 316 323 l 316 483 l 381 483 q 396 472 393 481 l 448 323 l 547 323 l 509 435 q 473 496 490 484 q 537 605 536 526 l 537 648 q 439 762 537 751 q 410 764 425 764 l 216 760 l 216 323 l 316 323 m 420 688 q 433 674 431 685 l 433 572 q 420 559 430 560 l 316 559 l 316 688 l 420 688 z "},"˚":{"ha":468,"x_min":106,"x_max":373,"o":"m 373 854 q 317 972 373 948 q 237 985 288 985 q 118 932 141 985 q 106 854 106 903 q 163 738 106 761 q 237 726 191 726 q 365 791 342 726 q 373 854 373 817 m 176 854 q 197 917 176 907 q 237 924 210 924 q 297 899 288 924 q 302 854 302 884 q 275 792 302 803 q 237 787 260 787 q 179 818 187 787 q 176 854 176 831 z "},"s":{"ha":525,"x_min":43,"x_max":495,"o":"m 336 -4 q 483 68 454 -4 q 495 144 495 99 l 495 235 q 426 374 495 346 q 321 391 388 391 l 193 391 q 179 406 180 393 l 179 548 q 193 563 182 562 l 460 563 l 460 674 l 221 675 q 58 602 91 675 q 43 513 43 567 l 43 441 q 114 300 43 330 q 217 285 153 285 l 347 285 q 362 270 361 282 l 362 119 q 347 104 359 106 l 54 104 l 56 -4 l 336 -4 z "},"ś":{"ha":525,"x_min":43,"x_max":495,"o":"m 336 -4 q 483 68 454 -4 q 495 144 495 99 l 495 235 q 426 374 495 346 q 321 391 388 391 l 193 391 q 179 406 180 393 l 179 548 q 193 563 182 562 l 460 563 l 460 674 l 221 675 q 58 602 91 675 q 43 513 43 567 l 43 441 q 114 300 43 330 q 217 285 153 285 l 347 285 q 362 270 361 282 l 362 119 q 347 104 359 106 l 54 104 l 56 -4 l 336 -4 m 212 749 l 296 949 l 434 948 l 309 749 l 212 749 z "},"š":{"ha":525,"x_min":43,"x_max":495,"o":"m 336 -4 q 483 68 454 -4 q 495 144 495 99 l 495 235 q 426 374 495 346 q 321 391 388 391 l 193 391 q 179 406 180 393 l 179 548 q 193 563 182 562 l 460 563 l 460 674 l 221 675 q 58 602 91 675 q 43 513 43 567 l 43 441 q 114 300 43 330 q 217 285 153 285 l 347 285 q 362 270 361 282 l 362 119 q 347 104 359 106 l 54 104 l 56 -4 l 336 -4 m 208 757 l 347 757 l 477 951 l 366 951 l 278 821 l 199 951 l 84 951 l 208 757 z "},"§":{"ha":616,"x_min":49,"x_max":567,"o":"m 567 30 l 567 321 q 521 445 567 410 q 452 479 498 461 l 206 575 q 187 600 189 586 l 187 724 q 205 742 190 741 l 548 742 l 548 861 l 239 867 q 49 690 52 868 l 49 400 q 98 275 49 311 q 164 241 121 259 l 411 146 q 429 122 427 137 l 429 -3 q 411 -20 426 -19 l 68 -20 l 68 -140 l 378 -145 q 567 30 564 -148 m 212 340 q 187 387 189 362 l 187 468 l 406 381 q 429 335 427 361 l 429 254 l 212 340 z "},";":{"ha":296,"x_min":80,"x_max":209,"o":"m 80 3 l 125 3 q 83 -109 119 -50 l 127 -145 q 209 26 208 -62 l 209 153 l 80 153 l 80 3 m 209 362 l 209 515 l 80 515 l 80 362 l 209 362 z "},"අ":{"ha":735,"x_min":30,"x_max":686,"o":"m 399 582 q 453 669 399 650 q 481 674 467 674 l 686 674 l 686 597 l 637 597 q 620 583 621 595 q 646 545 620 578 q 682 454 682 499 l 682 321 q 614 250 680 251 l 513 250 l 513 99 l 680 99 l 680 0 l 513 0 l 513 -190 l 399 -190 l 399 0 l 95 0 q 33 39 41 0 q 30 69 30 52 l 30 404 q 104 480 33 479 l 251 480 l 251 540 q 221 578 251 574 q 208 578 214 578 l 30 578 l 30 674 l 243 674 q 339 598 331 674 q 340 585 340 591 l 340 385 l 180 385 q 146 363 151 385 q 145 346 145 357 l 145 132 q 171 99 149 100 l 399 99 l 399 582 m 513 339 l 567 339 q 594 358 591 339 q 595 372 595 365 l 595 458 q 566 534 595 484 q 551 572 551 559 q 553 583 551 578 q 514 553 518 581 q 513 541 513 548 l 513 339 z "},"ආ":{"ha":1059,"x_min":30,"x_max":1008,"o":"m 399 582 q 453 669 399 650 q 481 674 467 674 l 686 674 l 686 597 l 637 597 q 620 583 621 595 q 646 545 620 578 q 682 454 682 499 l 682 321 q 614 250 680 251 l 513 250 l 513 99 l 680 99 l 680 0 l 513 0 l 513 -190 l 399 -190 l 399 0 l 95 0 q 33 39 41 0 q 30 69 30 52 l 30 404 q 104 480 33 479 l 251 480 l 251 540 q 221 578 251 574 q 208 578 214 578 l 30 578 l 30 674 l 243 674 q 339 598 331 674 q 340 585 340 591 l 340 385 l 180 385 q 146 363 151 385 q 145 346 145 357 l 145 132 q 171 99 149 100 l 399 99 l 399 582 m 513 339 l 567 339 q 594 358 591 339 q 595 372 595 365 l 595 458 q 566 534 595 484 q 551 572 551 559 q 553 583 551 578 q 514 553 518 581 q 513 541 513 548 l 513 339 m 769 674 l 952 674 q 1008 617 1006 671 l 1008 52 q 952 0 1005 1 l 769 0 l 769 99 l 869 99 q 892 125 891 102 l 892 555 q 869 578 890 576 l 769 578 l 769 674 z "},"ඈ":{"ha":1085,"x_min":30,"x_max":1029,"o":"m 399 582 q 453 669 399 650 q 481 674 467 674 l 686 674 l 686 597 l 637 597 q 620 583 621 595 q 646 545 620 578 q 682 454 682 499 l 682 321 q 614 250 680 251 l 513 250 l 513 99 l 680 99 l 680 0 l 513 0 l 513 -190 l 399 -190 l 399 0 l 95 0 q 33 39 41 0 q 30 69 30 52 l 30 404 q 104 480 33 479 l 251 480 l 251 540 q 221 578 251 574 q 208 578 214 578 l 30 578 l 30 674 l 243 674 q 339 598 331 674 q 340 585 340 591 l 340 385 l 180 385 q 146 363 151 385 q 145 346 145 357 l 145 132 q 171 99 149 100 l 399 99 l 399 582 m 513 339 l 567 339 q 594 358 591 339 q 595 372 595 365 l 595 458 q 566 534 595 484 q 551 572 551 559 q 553 583 551 578 q 514 553 518 581 q 513 541 513 548 l 513 339 m 772 674 l 1029 674 l 1029 583 l 898 486 l 1029 486 l 1029 404 l 914 290 q 887 220 888 256 l 887 125 q 894 100 887 103 q 910 99 901 99 l 1029 99 l 1029 0 l 812 0 q 772 49 772 0 l 772 224 q 803 311 773 279 l 901 397 l 772 397 l 772 481 l 895 578 l 772 578 l 772 674 z "},"ඇ":{"ha":1090,"x_min":30,"x_max":1036,"o":"m 780 674 l 1036 674 l 1036 572 l 909 335 q 894 263 894 307 l 894 125 q 921 99 897 100 l 1036 99 l 1036 0 l 827 0 q 780 49 781 3 l 780 264 q 800 366 780 326 l 920 578 l 780 578 l 780 674 m 399 582 q 453 669 399 650 q 481 674 467 674 l 686 674 l 686 597 l 637 597 q 620 583 621 595 q 646 545 620 578 q 682 454 682 499 l 682 321 q 614 250 680 251 l 513 250 l 513 99 l 680 99 l 680 0 l 513 0 l 513 -190 l 399 -190 l 399 0 l 95 0 q 33 39 41 0 q 30 69 30 52 l 30 404 q 104 480 33 479 l 251 480 l 251 540 q 221 578 251 574 q 208 578 214 578 l 30 578 l 30 674 l 243 674 q 339 598 331 674 q 340 585 340 591 l 340 385 l 180 385 q 146 363 151 385 q 145 346 145 357 l 145 132 q 171 99 149 100 l 399 99 l 399 582 m 513 339 l 567 339 q 594 358 591 339 q 595 372 595 365 l 595 458 q 566 534 595 484 q 551 572 551 559 q 553 583 551 578 q 514 553 518 581 q 513 541 513 548 l 513 339 z "},"ඓ":{"ha":1236,"x_min":30,"x_max":1191,"o":"m 815 815 l 815 705 q 831 678 815 680 q 846 677 837 677 l 1073 677 l 1073 684 q 1035 727 1073 709 l 1034 728 q 868 807 1032 728 q 825 815 852 815 l 815 815 m 1191 670 l 1191 69 q 1142 1 1191 9 q 1128 0 1135 0 l 637 0 q 572 60 574 3 l 572 217 q 610 292 574 271 l 526 292 l 526 380 l 808 380 l 808 438 q 779 467 806 465 l 576 467 l 576 552 l 842 552 q 924 469 922 549 l 924 288 l 769 288 q 688 224 689 286 l 688 132 q 720 99 697 102 l 1047 99 q 1074 132 1073 102 l 1074 606 l 772 606 q 713 642 722 606 q 711 670 711 654 l 711 817 l 629 817 l 629 901 l 796 901 q 901 880 852 901 q 911 875 906 878 l 1096 788 q 1183 716 1166 757 q 1191 670 1191 694 m 453 674 l 102 674 q 31 620 41 674 q 30 604 30 612 l 30 62 q 92 0 33 1 l 391 0 q 460 66 457 4 l 460 373 q 388 441 457 439 l 239 441 l 239 347 l 312 347 q 343 326 340 347 q 345 312 345 319 l 345 129 q 316 99 342 100 l 171 99 q 145 129 146 104 l 145 544 q 182 578 156 575 l 453 578 l 453 674 z "},"ඖ":{"ha":1177,"x_min":30,"x_max":1141,"o":"m 724 674 l 724 381 q 769 336 727 338 l 890 336 q 955 384 954 339 l 955 552 q 974 578 958 576 l 1015 578 q 1032 555 1031 575 l 1032 129 q 1010 100 1029 102 l 875 100 q 850 117 852 100 q 849 127 849 122 l 849 218 l 726 218 l 726 64 q 780 0 734 5 l 1076 0 q 1139 49 1131 0 q 1141 62 1141 56 l 1141 618 q 1104 671 1141 658 q 1084 674 1095 674 l 914 674 q 872 617 876 661 l 872 463 q 852 433 871 434 l 818 433 q 799 460 800 445 l 799 674 l 724 674 m 391 338 l 274 338 q 227 378 228 340 l 227 511 q 213 526 224 525 l 170 526 q 145 496 146 524 l 145 133 q 175 99 153 102 l 247 99 q 288 146 285 104 l 288 255 l 385 255 l 385 148 q 427 99 388 100 l 498 99 q 528 133 526 102 l 528 694 q 494 742 528 738 q 477 743 486 743 l 30 743 l 30 849 l 544 849 q 643 760 642 846 l 643 68 q 579 0 640 1 l 403 0 q 336 45 347 1 q 286 1 330 8 q 273 0 279 0 l 94 0 q 30 65 31 3 l 30 534 q 110 623 33 621 l 240 623 q 296 575 294 620 l 296 452 q 311 433 298 434 l 354 433 q 369 450 368 435 l 369 623 l 444 623 l 444 385 q 391 338 441 339 z "},"බ":{"ha":699,"x_min":30,"x_max":643,"o":"m 545 848 l 30 848 l 30 749 l 479 749 q 526 720 521 749 q 528 699 528 711 l 528 129 q 503 99 521 102 l 414 99 q 385 132 388 111 l 385 564 q 311 637 382 636 l 106 637 q 30 563 31 635 l 30 73 q 75 1 30 11 q 98 0 85 0 l 233 0 l 233 99 l 172 99 q 145 133 146 102 l 145 506 q 172 538 153 536 l 251 538 q 278 507 277 536 l 279 73 q 350 0 290 4 l 575 0 q 642 47 633 0 q 643 73 643 60 l 643 741 q 586 844 643 827 q 545 848 567 848 z "},"භ":{"ha":803,"x_min":-8,"x_max":750,"o":"m 30 69 q 65 3 30 14 q 95 0 79 0 l 393 0 q 479 41 465 0 q 484 81 484 58 l 484 342 q 442 391 483 389 l 418 391 l 446 543 q 491 575 457 574 l 601 575 q 635 541 633 572 l 635 142 q 617 100 635 106 q 598 99 609 99 l 533 99 l 533 0 l 665 0 q 743 37 730 0 q 750 87 750 56 l 750 589 q 688 673 750 662 q 659 674 674 674 l 446 674 q 349 605 363 673 l 297 317 l 349 317 q 372 289 370 315 l 372 137 q 354 100 372 104 q 336 99 346 99 l 170 99 q 145 132 146 102 l 145 336 q 189 387 153 384 l 264 387 l 264 585 q 194 671 264 658 q 167 674 180 674 l 30 674 l 30 578 l 133 578 q 174 543 172 575 l 174 481 l -8 481 l -8 389 l 61 389 q 30 334 31 373 l 30 69 z "},"ච":{"ha":731,"x_min":-8,"x_max":688,"o":"m 590 848 l 75 848 l 75 749 l 525 749 q 571 720 566 749 q 572 699 572 711 l 572 134 q 545 99 570 100 l 218 99 q 190 133 191 102 l 190 269 q 255 336 193 335 l 392 336 l 392 563 q 313 637 389 636 l 75 637 l 75 541 l 250 541 q 277 518 275 538 l 277 426 l -8 426 l -8 336 l 98 336 q 75 269 75 315 l 75 73 q 119 1 75 11 q 142 0 130 0 l 620 0 q 686 47 678 0 q 688 73 688 60 l 688 741 q 631 844 688 827 q 590 848 612 848 z "},"ඡ":{"ha":696,"x_min":30,"x_max":701,"o":"m 374 540 q 399 576 374 568 q 410 578 406 578 l 500 578 q 532 543 530 575 l 532 441 q 488 391 529 392 l 401 391 q 374 420 376 393 l 374 540 m 98 0 l 575 0 q 642 47 633 0 q 643 73 643 60 l 643 245 q 610 342 643 315 q 601 349 605 346 q 643 450 643 377 l 643 591 q 568 674 640 673 l 507 674 q 545 707 528 688 l 701 872 l 572 872 l 418 718 q 353 669 389 689 q 326 651 340 663 q 258 674 302 674 l 31 674 l 31 578 l 222 578 q 255 549 255 578 l 255 481 l 106 481 q 30 407 31 479 l 30 73 q 75 1 30 11 q 98 0 85 0 m 174 99 q 145 136 146 102 l 145 355 q 178 385 148 384 l 290 385 l 290 362 q 346 300 293 301 l 479 300 q 528 254 526 297 l 528 134 q 500 99 525 100 l 174 99 z "},"ද":{"ha":624,"x_min":30,"x_max":601,"o":"m 570 0 l 330 0 q 267 -54 274 -9 l 267 -106 q 297 -133 270 -133 l 601 -133 l 601 -232 l 218 -232 q 148 -171 149 -229 l 148 -71 q 187 0 149 -18 l 90 0 q 30 53 35 0 q 30 68 30 61 l 30 403 q 109 480 33 479 l 449 480 l 449 548 q 422 578 446 576 l 30 578 l 30 674 l 492 674 q 564 602 563 671 l 564 385 l 180 385 q 145 350 146 382 l 145 134 q 174 99 149 100 l 570 99 l 570 0 z "},"ඩ":{"ha":697,"x_min":-8,"x_max":643,"o":"m -8 461 l -8 369 l 61 369 q 30 305 30 349 l 30 73 q 68 3 30 12 q 95 0 80 0 l 273 0 q 334 35 319 0 q 336 45 335 41 q 403 0 349 1 l 579 0 q 643 68 642 3 l 643 760 q 544 849 640 848 l 30 849 l 30 743 l 477 743 q 526 711 521 743 q 528 694 528 703 l 528 133 q 498 99 525 100 l 427 99 q 385 148 387 102 l 385 245 l 288 245 l 288 146 q 247 99 285 100 l 171 99 q 145 132 146 102 l 145 309 q 203 365 148 363 l 346 365 l 346 579 q 254 654 336 650 l 31 654 l 31 557 l 198 557 q 235 528 233 555 l 235 461 l -8 461 z "},"ඪ":{"ha":697,"x_min":-8,"x_max":643,"o":"m 378 764 l 494 764 q 525 730 522 754 l 525 651 l 408 651 q 381 662 384 651 q 378 678 378 669 l 378 764 m -8 385 l -8 304 l 62 304 q 30 239 31 285 l 30 73 q 68 3 30 12 q 95 0 80 0 l 273 0 q 334 35 319 0 q 336 45 335 41 q 403 0 349 1 l 579 0 q 643 68 642 3 l 643 758 q 597 844 643 830 q 553 849 579 849 l 199 849 l 199 765 l 274 765 l 274 643 q 311 582 274 589 q 335 579 321 579 l 528 579 l 528 133 q 498 99 525 100 l 427 99 q 385 148 387 102 l 385 210 l 288 210 l 288 146 q 247 99 285 100 l 171 99 q 145 132 146 102 l 145 244 q 203 298 148 297 l 346 298 l 346 494 q 254 568 336 564 l 31 568 l 31 479 l 216 479 q 252 449 251 476 l 252 385 l -8 385 z "},"ධ":{"ha":699,"x_min":30,"x_max":643,"o":"m 345 553 l 174 553 q 145 525 146 551 l 145 129 q 174 99 148 100 l 243 99 q 288 160 286 102 l 288 332 l 385 332 l 385 161 q 433 99 388 100 l 502 99 q 528 132 526 102 l 528 696 q 495 742 528 736 q 477 743 487 743 l 30 743 l 30 849 l 544 849 q 643 760 642 846 l 643 68 q 579 0 640 1 l 401 0 q 335 50 350 3 q 292 3 330 14 q 271 0 281 0 l 94 0 q 30 65 31 3 l 30 566 q 110 654 33 652 l 345 654 l 345 553 z "},"එ":{"ha":724,"x_min":5,"x_max":670,"o":"m 294 815 l 294 705 q 312 677 294 680 q 327 677 319 677 l 553 677 l 553 684 q 519 726 553 708 q 515 727 518 726 l 514 728 l 513 728 q 347 807 511 728 q 304 815 331 815 l 294 815 m 670 670 l 670 69 q 621 1 670 9 q 608 0 614 0 l 117 0 q 52 60 53 3 l 52 217 q 90 292 53 271 l 5 292 l 5 380 l 288 380 l 288 438 q 258 467 285 465 l 56 467 l 56 552 l 321 552 q 403 469 401 549 l 403 288 l 248 288 q 167 224 168 286 l 167 132 q 189 100 167 103 q 201 99 195 99 l 526 99 q 555 132 555 99 l 555 606 l 252 606 q 193 642 201 606 q 190 670 190 654 l 190 817 l 109 817 l 109 901 l 275 901 q 380 880 332 901 q 391 875 385 878 l 575 788 q 663 713 647 757 q 670 670 670 693 z "},"ඒ":{"ha":724,"x_min":5,"x_max":670,"o":"m 294 815 l 304 815 q 347 807 332 815 l 513 728 q 552 694 547 711 q 553 684 553 689 l 553 677 l 327 677 q 296 689 300 677 q 294 705 294 696 l 294 815 m 562 960 l 562 795 l 391 875 q 275 901 328 901 l 109 901 l 109 817 l 190 817 l 190 670 q 225 609 190 617 q 252 606 237 606 l 555 606 l 555 132 q 526 99 555 99 l 201 99 q 167 132 170 109 l 167 224 q 248 288 170 286 l 403 288 l 403 469 q 321 552 400 551 l 56 552 l 56 467 l 258 467 q 288 438 286 464 l 288 380 l 5 380 l 5 292 l 90 292 q 52 217 53 269 l 52 60 q 117 0 54 1 l 608 0 q 669 53 661 0 q 670 69 670 61 l 670 960 l 562 960 z "},"ෆ":{"ha":765,"x_min":30,"x_max":711,"o":"m 416 99 l 562 99 q 594 134 593 102 l 594 541 q 564 578 591 576 l 461 578 q 422 526 423 576 l 422 227 l 316 227 l 316 526 q 278 578 313 576 l 176 578 q 145 541 146 575 l 145 134 q 178 99 153 102 l 321 99 l 321 0 l 99 0 q 30 84 34 9 l 30 598 q 72 669 30 650 q 103 674 87 674 l 294 674 q 368 636 354 674 q 370 628 369 632 q 449 674 385 673 l 637 674 q 708 627 694 674 q 711 604 711 614 l 711 83 q 659 3 711 18 q 637 0 648 0 l 416 0 l 416 99 z "},"ග":{"ha":802,"x_min":30,"x_max":747,"o":"m 260 674 l 260 578 l 180 578 q 146 560 151 578 q 145 541 145 552 l 145 132 q 172 99 148 100 l 311 99 q 346 115 342 99 q 347 137 347 125 l 347 288 q 326 316 345 315 l 286 316 l 335 605 q 433 674 347 674 l 656 674 q 745 616 734 674 q 747 589 747 604 l 747 87 q 703 4 747 18 q 662 0 686 0 l 536 0 l 536 99 l 595 99 q 631 121 627 99 q 632 144 632 130 l 632 537 q 595 575 627 574 l 476 575 q 433 544 439 574 l 404 389 l 422 389 q 461 339 460 385 l 461 81 q 414 4 461 16 q 370 0 396 0 l 98 0 q 30 80 31 3 l 30 595 q 107 674 42 667 l 260 674 z "},"ඝ":{"ha":772,"x_min":-8,"x_max":709,"o":"m 446 0 l 642 0 q 708 47 700 0 q 709 73 709 60 l 709 403 q 628 481 707 480 l 488 481 l 488 548 q 526 578 491 576 l 708 578 l 708 674 l 487 674 q 395 600 399 667 l 395 385 l 563 385 q 594 359 593 382 l 594 132 q 570 99 594 99 l 477 99 q 446 129 448 104 l 446 144 q 467 174 446 159 l 468 174 q 498 199 494 193 q 500 214 500 206 l 500 271 q 465 307 498 305 l 274 307 q 239 271 240 304 l 239 214 q 262 179 240 194 q 270 174 267 175 q 293 144 292 157 l 293 129 q 262 99 286 100 l 171 99 q 145 132 146 102 l 145 330 q 203 385 148 384 l 346 385 l 346 600 q 254 674 336 670 l 31 674 l 31 578 l 216 578 q 252 548 251 575 l 252 481 l -8 481 l -8 389 l 62 389 q 30 326 31 372 l 30 73 q 75 1 30 11 q 98 0 85 0 l 292 0 q 354 37 336 0 q 361 64 361 50 l 361 156 q 335 193 359 175 q 312 227 313 214 l 312 244 q 327 256 315 256 l 411 256 q 426 244 425 254 l 426 227 q 403 193 426 210 q 377 156 378 174 l 377 64 q 422 4 377 19 q 446 0 434 0 z "},"හ":{"ha":802,"x_min":30,"x_max":747,"o":"m 145 132 q 172 99 148 100 l 323 99 q 359 115 354 99 q 361 137 361 125 l 361 288 q 338 316 358 315 l 300 316 l 349 605 q 446 674 361 674 l 656 674 q 745 616 734 674 q 747 589 747 604 l 747 87 q 704 5 747 18 q 662 0 686 0 l 536 0 l 536 99 l 597 99 q 631 121 627 99 q 632 141 632 129 l 632 537 q 595 575 627 574 l 490 575 q 446 544 453 574 l 418 389 l 434 389 q 473 339 472 385 l 473 81 q 429 5 473 18 q 382 0 410 0 l 95 0 q 31 49 38 0 q 30 69 30 58 l 30 406 q 104 480 33 479 l 170 480 l 170 540 q 145 576 170 572 q 130 578 138 578 l 30 578 l 30 674 l 167 674 q 260 585 256 666 l 260 385 l 180 385 q 146 365 151 385 q 145 349 145 358 l 145 132 z "},"්":{"ha":3,"x_min":-168,"x_max":-53,"o":"m -168 667 l -168 880 l -53 880 l -53 585 q -58 595 -54 587 q -85 639 -76 631 q -141 667 -115 666 l -168 667 z "},"ඉ":{"ha":704,"x_min":30,"x_max":648,"o":"m 388 469 l 388 279 q 316 212 385 213 l 106 212 q 30 285 31 214 l 30 600 q 94 673 30 663 q 113 674 103 674 l 566 674 q 648 600 647 671 l 648 137 q 594 54 647 69 q 625 -12 625 33 l 625 -134 q 568 -214 625 -206 q 549 -216 559 -216 l 62 -216 l 62 -115 l 475 -115 q 509 -100 506 -115 q 510 -90 510 -95 l 510 -28 q 472 0 507 -1 l 64 0 l 64 99 l 471 99 q 532 136 526 99 q 533 149 533 142 l 533 545 q 500 578 530 576 l 183 578 q 145 547 146 575 l 145 340 q 163 308 145 312 q 176 307 168 307 l 256 307 q 282 339 279 317 l 282 469 l 388 469 z "},"ඊ":{"ha":612,"x_min":30,"x_max":555,"o":"m 30 65 q 92 0 39 4 l 480 0 q 555 65 549 0 q 555 83 555 73 l 555 594 q 472 674 552 673 l 229 674 l 465 899 l 327 899 l 85 675 q 30 583 31 624 l 30 65 m 145 529 q 189 578 152 575 l 399 578 q 439 555 434 578 q 441 536 441 547 l 441 138 q 425 100 441 104 q 406 99 416 99 l 184 99 q 146 114 151 99 q 145 140 145 122 l 145 529 m 60 899 l 168 899 l 168 796 l 60 796 l 60 899 m 439 818 l 548 818 l 548 715 l 439 715 l 439 818 z "},"ජ":{"ha":696,"x_min":30,"x_max":703,"o":"m 499 99 l 174 99 q 145 134 146 102 l 145 351 q 179 385 148 384 l 312 385 l 312 600 q 235 674 312 667 q 221 674 228 674 l 31 674 l 31 578 l 184 578 q 218 547 217 575 l 218 481 l 106 481 q 30 406 31 479 l 30 73 q 79 1 30 9 q 99 0 88 0 l 574 0 q 642 53 635 0 q 643 73 643 62 l 643 406 q 567 481 640 480 l 456 481 l 456 547 q 490 578 458 576 l 642 578 l 642 674 l 551 674 q 583 709 572 693 l 703 872 l 574 872 l 453 716 q 395 662 425 681 l 396 662 q 361 600 362 640 l 361 385 l 494 385 q 528 351 526 382 l 528 134 q 499 99 525 100 z "},"ඣ":{"ha":1242,"x_min":16,"x_max":1194,"o":"m 16 289 l 64 289 q 30 199 30 266 l 30 65 q 90 0 35 3 l 218 0 q 270 35 258 0 q 271 39 271 38 q 321 0 281 1 l 441 0 q 509 50 498 0 q 511 71 511 61 l 511 415 q 444 487 507 484 l 311 487 l 373 537 q 444 568 411 568 q 477 566 457 568 l 585 553 q 581 517 581 537 l 581 65 q 644 0 583 1 l 822 0 q 882 37 865 0 q 886 50 884 43 q 952 0 902 1 l 1130 0 q 1194 68 1192 3 l 1194 760 q 1095 849 1191 848 l 581 849 l 581 743 l 1029 743 q 1077 715 1070 743 q 1078 696 1078 705 l 1078 132 q 1053 99 1076 100 l 983 99 q 936 161 937 102 l 936 332 l 838 332 l 838 160 q 793 99 836 100 l 724 99 q 696 129 697 102 l 696 484 q 724 513 699 511 l 895 513 l 895 613 l 894 613 l 500 658 q 431 665 444 665 q 336 629 385 663 l 282 590 l 282 613 q 240 673 282 665 q 228 674 233 674 l 39 674 l 39 578 l 157 578 q 193 548 191 575 l 193 513 l 16 361 l 16 289 m 407 369 l 407 136 q 382 99 403 100 l 342 99 q 309 130 312 99 q 308 152 308 138 l 308 255 l 233 255 l 233 151 q 209 100 233 106 q 197 99 202 99 l 157 99 q 134 129 136 107 l 134 224 q 163 302 134 282 q 167 305 165 304 l 167 332 l 130 332 l 208 399 l 381 399 q 407 369 406 396 z "},"ඥ":{"ha":1369,"x_min":30,"x_max":1347,"o":"m 1316 0 l 1316 99 l 921 99 q 891 134 894 110 l 891 350 q 926 385 894 384 l 1310 385 l 1310 602 q 1238 674 1308 673 l 655 674 q 557 605 570 674 l 509 316 l 547 316 q 570 288 568 313 l 570 137 q 553 102 570 106 q 532 99 545 99 l 393 99 q 366 132 368 102 l 366 521 q 400 576 366 570 q 416 578 408 578 l 481 578 l 481 674 l 145 674 q 38 608 62 674 q 30 562 30 586 l 30 0 l 141 0 l 141 530 q 178 579 141 575 q 190 581 183 581 l 252 581 l 252 72 q 290 3 252 12 q 317 0 301 0 l 591 0 q 677 39 662 0 q 682 81 682 57 l 682 339 q 643 389 680 387 l 627 389 l 656 547 q 700 578 665 576 l 1168 578 q 1195 548 1194 575 l 1195 480 l 854 480 q 776 403 777 477 l 776 68 q 823 1 776 7 q 836 0 829 0 l 933 0 q 894 -71 894 -19 l 894 -171 q 964 -232 897 -231 l 1347 -232 l 1347 -133 l 1043 -133 q 1013 -106 1015 -130 l 1013 -54 q 1076 0 1024 -5 l 1316 0 z "},"ක":{"ha":803,"x_min":16,"x_max":747,"o":"m 407 369 q 381 399 404 397 l 208 399 l 130 332 l 167 332 l 167 305 q 134 224 136 273 l 134 129 q 157 99 138 100 l 197 99 q 233 149 232 110 l 233 255 l 308 255 l 308 151 q 327 102 308 107 q 342 99 334 99 l 382 99 q 407 136 406 107 l 407 369 m 282 589 l 346 643 q 434 674 385 674 l 669 674 q 745 623 731 674 q 747 601 747 612 l 747 69 q 690 1 747 9 q 675 0 682 0 l 534 0 l 534 99 l 605 99 q 632 132 631 102 l 632 544 q 597 578 629 576 l 450 578 q 388 553 416 576 l 311 487 l 444 487 q 511 415 509 481 l 511 71 q 458 1 511 12 q 441 0 449 0 l 321 0 q 271 39 281 3 q 218 0 258 3 l 90 0 q 30 65 34 7 l 30 199 q 64 289 31 269 l 16 289 l 16 361 q 193 513 18 362 l 193 547 q 157 578 190 576 l 39 578 l 39 674 l 228 674 q 281 624 275 674 q 282 613 282 618 l 282 589 z "},"ඛ":{"ha":700,"x_min":30,"x_max":643,"o":"m 30 567 l 30 65 q 88 0 33 1 l 199 0 l 203 99 l 167 99 q 145 126 145 102 l 145 514 q 178 552 148 551 l 271 552 q 301 517 300 549 l 301 350 l 237 -7 l 328 -7 l 355 102 q 391 46 384 54 q 468 0 426 1 l 581 0 q 642 56 635 0 q 643 69 643 62 l 643 768 q 578 846 643 831 q 548 849 563 849 l 30 849 l 30 743 l 468 743 q 528 697 526 741 l 528 142 q 510 111 526 113 q 507 111 509 111 q 501 112 505 111 q 494 113 498 113 q 486 115 490 114 q 477 117 481 115 q 470 119 473 118 q 463 120 467 119 q 458 122 460 121 l 456 123 q 382 205 430 123 q 380 210 381 209 l 408 328 l 408 579 q 332 654 397 647 l 110 654 q 31 589 43 654 q 30 567 30 578 z "},"ල":{"ha":755,"x_min":30,"x_max":700,"o":"m 304 65 l 304 336 l 225 336 l 225 423 l 499 423 l 499 338 l 419 338 l 419 126 q 448 99 425 100 l 560 99 q 585 133 583 102 l 585 533 q 545 578 582 576 l 180 578 q 145 537 146 575 l 145 -56 q 175 -113 145 -104 q 202 -115 186 -115 l 700 -115 l 700 -221 l 125 -221 q 30 -123 31 -218 l 30 589 q 76 669 30 648 q 103 674 90 674 l 617 674 q 690 623 669 674 q 700 581 700 602 l 700 83 q 629 0 697 1 l 370 0 q 305 47 316 0 q 304 65 304 56 z "},"ළ":{"ha":750,"x_min":30,"x_max":696,"o":"m 145 331 q 167 370 146 361 l 167 130 q 227 72 167 81 q 245 71 236 71 l 694 71 l 694 179 l 264 179 q 225 216 227 182 l 225 373 l 696 373 l 696 604 q 617 674 694 673 l 454 674 q 406 646 422 673 q 359 674 392 673 l 186 674 q 113 598 118 665 l 113 457 q 35 399 54 452 q 30 362 30 381 l 30 -100 q 136 -206 33 -205 l 696 -206 l 696 -100 l 198 -100 q 145 -45 146 -95 l 145 331 m 581 461 l 452 461 l 452 553 q 477 585 454 583 l 553 585 q 581 553 579 582 l 581 461 m 225 461 l 225 552 q 252 585 228 583 l 330 585 q 357 553 355 582 l 357 461 l 225 461 z "},"ම":{"ha":699,"x_min":30,"x_max":643,"o":"m 545 848 l 30 848 l 30 749 l 479 749 q 526 720 521 749 q 528 699 528 711 l 528 136 q 496 99 525 100 l 174 99 q 145 134 146 102 l 145 216 l 349 216 q 418 277 412 216 q 419 294 419 285 l 419 568 q 339 637 416 636 l 113 637 q 33 579 45 637 q 30 559 30 570 l 30 77 q 102 0 33 1 l 567 0 q 643 80 642 3 l 643 741 q 586 844 643 827 q 545 848 567 848 m 145 510 q 175 541 148 540 l 281 541 q 309 514 308 538 l 309 338 q 286 311 307 312 l 145 311 l 145 510 z "},"ා":{"ha":313,"x_min":28,"x_max":267,"o":"m 28 674 l 212 674 q 267 617 266 671 l 267 52 q 212 0 264 1 l 28 0 l 28 99 l 129 99 q 152 125 151 102 l 152 555 q 129 578 149 576 l 28 578 l 28 674 z "},"ෑ":{"ha":336,"x_min":30,"x_max":288,"o":"m 30 674 l 288 674 l 288 583 l 156 486 l 288 486 l 288 404 l 172 290 q 145 220 146 256 l 145 125 q 152 100 145 103 q 168 99 159 99 l 288 99 l 288 0 l 71 0 q 30 49 30 0 l 30 224 q 61 311 31 279 l 159 397 l 30 397 l 30 481 l 153 578 l 30 578 l 30 674 z "},"ැ":{"ha":339,"x_min":30,"x_max":288,"o":"m 30 674 l 288 674 l 288 572 l 160 335 q 145 263 145 304 l 145 125 q 172 99 148 100 l 288 99 l 288 0 l 77 0 q 30 49 31 3 l 30 264 q 52 366 31 327 l 170 578 l 30 578 l 30 674 z "},"ෛ":{"ha":1023,"x_min":30,"x_max":975,"o":"m 453 674 l 102 674 q 31 620 41 674 q 30 604 30 612 l 30 62 q 92 0 33 1 l 391 0 q 460 66 457 4 l 460 373 q 388 441 457 439 l 239 441 l 239 347 l 312 347 q 343 326 340 347 q 345 312 345 319 l 345 129 q 316 99 342 100 l 171 99 q 145 129 146 104 l 145 544 q 182 578 156 575 l 453 578 l 453 674 m 968 674 l 617 674 q 547 620 556 674 q 545 604 545 612 l 545 62 q 608 0 548 1 l 906 0 q 975 66 972 4 l 975 373 q 903 441 972 439 l 754 441 l 754 347 l 827 347 q 859 326 856 347 q 860 312 860 319 l 860 129 q 831 99 857 100 l 686 99 q 661 129 662 104 l 661 544 q 697 578 671 575 l 968 578 l 968 674 z "},"ෞ":{"ha":1713,"x_min":30,"x_max":1579,"o":"m 453 674 l 102 674 q 31 620 41 674 q 30 604 30 612 l 30 62 q 92 0 33 1 l 391 0 q 460 66 457 4 l 460 373 q 388 441 457 439 l 239 441 l 239 347 l 312 347 q 343 326 340 347 q 345 312 345 319 l 345 129 q 316 99 342 100 l 171 99 q 145 129 146 104 l 145 544 q 182 578 156 575 l 453 578 l 453 674 m 1162 674 l 1162 381 q 1207 336 1165 338 l 1328 336 q 1393 384 1392 339 l 1393 552 q 1412 578 1396 576 l 1453 578 q 1470 553 1469 575 l 1470 127 q 1449 99 1468 100 l 1313 99 q 1287 127 1290 110 l 1287 218 l 1164 218 l 1164 64 q 1218 0 1169 4 l 1514 0 q 1577 49 1569 0 q 1579 62 1579 56 l 1579 618 q 1542 671 1579 658 q 1522 674 1533 674 l 1352 674 q 1310 617 1314 661 l 1310 461 q 1290 433 1306 434 l 1256 433 q 1238 446 1241 433 q 1238 460 1238 452 l 1238 674 l 1162 674 z "},"ෙ":{"ha":510,"x_min":30,"x_max":460,"o":"m 453 674 l 102 674 q 31 620 41 674 q 30 604 30 612 l 30 62 q 92 0 33 1 l 391 0 q 460 66 457 4 l 460 373 q 388 441 457 439 l 239 441 l 239 347 l 312 347 q 343 326 340 347 q 345 312 345 319 l 345 129 q 316 99 342 100 l 171 99 q 145 129 146 104 l 145 544 q 182 578 156 575 l 453 578 l 453 674 z "},"ේ":{"ha":1350,"x_min":30,"x_max":1240,"o":"m 453 674 l 102 674 q 31 620 41 674 q 30 604 30 612 l 30 62 q 92 0 33 1 l 391 0 q 460 66 457 4 l 460 373 q 388 441 457 439 l 239 441 l 239 347 l 312 347 q 343 326 340 347 q 345 312 345 319 l 345 129 q 316 99 342 100 l 171 99 q 145 129 146 104 l 145 544 q 182 578 156 575 l 453 578 l 453 674 m 1124 667 l 1124 880 l 1240 880 l 1240 585 q 1234 595 1238 587 q 1207 639 1217 631 q 1152 667 1177 666 l 1124 667 z "},"ි":{"ha":3,"x_min":-783,"x_max":-91,"o":"m -783 693 l -783 808 q -723 868 -780 867 l -146 868 q -91 810 -92 865 l -91 693 l -206 693 l -206 753 q -228 779 -209 777 l -647 779 q -667 753 -667 776 l -667 693 l -783 693 z "},"ී":{"ha":699,"x_min":-779,"x_max":-85,"o":"m -311 806 q -331 789 -331 806 l -331 766 q -312 749 -328 750 l -197 749 q -178 768 -179 751 l -178 787 q -201 806 -180 804 l -311 806 m -643 779 q -663 754 -662 776 l -663 693 l -779 693 l -779 808 q -719 868 -776 867 l -142 868 q -85 814 -87 865 l -85 742 q -126 701 -85 701 l -385 701 q -423 732 -422 703 l -423 768 q -419 779 -422 776 l -643 779 z "},"ෳ":{"ha":492,"x_min":26,"x_max":442,"o":"m 26 674 l 26 381 q 71 336 28 338 l 191 336 q 256 384 255 339 l 256 552 q 275 578 259 576 l 316 578 q 334 553 332 575 l 334 127 q 312 99 331 100 l 176 99 q 151 127 153 110 l 151 218 l 27 218 l 27 64 q 81 0 33 4 l 377 0 q 441 49 433 0 q 442 62 442 56 l 442 618 q 406 671 442 658 q 385 674 396 674 l 216 674 q 174 617 178 661 l 174 461 q 153 433 170 434 l 119 433 q 102 446 104 433 q 102 460 102 452 l 102 674 l 26 674 z "},"ෟ":{"ha":492,"x_min":26,"x_max":442,"o":"m 26 674 l 26 381 q 71 336 28 338 l 191 336 q 256 384 255 339 l 256 552 q 275 578 259 576 l 316 578 q 334 553 332 575 l 334 127 q 312 99 331 100 l 176 99 q 151 127 153 110 l 151 218 l 27 218 l 27 64 q 81 0 33 4 l 377 0 q 441 49 433 0 q 442 62 442 56 l 442 618 q 406 671 442 658 q 385 674 396 674 l 216 674 q 174 617 178 661 l 174 461 q 153 433 170 434 l 119 433 q 102 446 104 433 q 102 460 102 452 l 102 674 l 26 674 z "},"ො":{"ha":1377,"x_min":30,"x_max":1232,"o":"m 453 674 l 102 674 q 31 620 41 674 q 30 604 30 612 l 30 62 q 92 0 33 1 l 391 0 q 460 66 457 4 l 460 373 q 388 441 457 439 l 239 441 l 239 347 l 312 347 q 343 326 340 347 q 345 312 345 319 l 345 129 q 316 99 342 100 l 171 99 q 145 129 146 104 l 145 544 q 182 578 156 575 l 453 578 l 453 674 m 993 674 l 1176 674 q 1232 617 1230 671 l 1232 52 q 1176 0 1229 1 l 993 0 l 993 99 l 1093 99 q 1116 125 1115 102 l 1116 555 q 1093 578 1114 576 l 993 578 l 993 674 z "},"ෝ":{"ha":1413,"x_min":30,"x_max":1291,"o":"m 453 674 l 102 674 q 31 620 41 674 q 30 604 30 612 l 30 62 q 92 0 33 1 l 391 0 q 460 66 457 4 l 460 373 q 388 441 457 439 l 239 441 l 239 347 l 312 347 q 343 326 340 347 q 345 312 345 319 l 345 129 q 316 99 342 100 l 171 99 q 145 129 146 104 l 145 544 q 182 578 156 575 l 453 578 l 453 674 m 1053 674 l 1053 578 l 1153 578 q 1176 555 1175 575 l 1176 125 q 1153 99 1173 100 l 1053 99 l 1053 0 l 1236 0 q 1291 52 1290 3 l 1291 880 l 1176 880 l 1176 674 l 1053 674 z "},"ෘ":{"ha":469,"x_min":30,"x_max":418,"o":"m 30 674 l 351 674 q 418 610 416 671 l 418 0 l 327 0 l 311 53 q 243 0 288 1 l 80 0 q 30 57 31 3 l 30 380 q 76 437 30 430 q 87 438 83 438 l 302 438 l 302 545 q 288 576 302 574 q 271 578 281 578 l 30 578 l 30 674 m 302 345 l 165 345 q 145 320 146 339 l 145 123 q 167 99 153 102 l 244 99 q 302 184 301 102 l 302 345 z "},"ෲ":{"ha":925,"x_min":30,"x_max":871,"o":"m 30 674 l 351 674 q 418 610 416 671 l 418 0 l 327 0 l 311 53 q 243 0 288 1 l 80 0 q 30 57 31 3 l 30 380 q 76 437 30 430 q 87 438 83 438 l 302 438 l 302 545 q 288 576 302 574 q 271 578 281 578 l 30 578 l 30 674 m 302 345 l 165 345 q 145 320 146 339 l 145 123 q 167 99 153 102 l 244 99 q 302 184 301 102 l 302 345 m 483 674 l 804 674 q 871 610 869 671 l 871 0 l 780 0 l 764 53 q 696 0 742 1 l 533 0 q 483 57 484 3 l 483 380 q 529 437 483 430 q 540 438 536 438 l 755 438 l 755 545 q 741 576 755 574 q 724 578 734 578 l 483 578 l 483 674 m 755 345 l 618 345 q 598 320 600 339 l 598 123 q 620 99 606 102 l 697 99 q 755 184 754 102 l 755 345 z "},"ු":{"ha":3,"x_min":-674,"x_max":-64,"o":"m -64 -216 l -674 -216 l -674 -117 l -179 -117 l -179 38 l -122 38 q -64 90 -76 41 l -64 -216 z "},"ූ":{"ha":3,"x_min":-681,"x_max":-71,"o":"m -71 -216 l -176 -216 q -209 -183 -191 -195 q -260 -170 -229 -170 l -315 -170 q -372 -183 -338 -170 l -433 -208 q -519 -221 -469 -221 l -616 -221 q -681 -165 -680 -218 l -681 -39 l -571 -39 l -571 -107 q -549 -132 -568 -130 l -511 -132 q -434 -117 -471 -132 l -385 -98 q -317 -83 -353 -83 l -256 -83 q -201 -95 -221 -83 q -184 -109 -191 -102 l -184 31 l -118 31 q -73 76 -84 31 q -71 88 -72 83 l -71 -216 z "},"ඹ":{"ha":699,"x_min":30,"x_max":643,"o":"m 145 513 q 175 543 148 541 l 266 543 q 296 515 294 540 l 296 463 q 271 435 293 437 l 145 435 l 145 513 m 30 73 q 73 1 30 9 q 91 0 81 0 l 263 0 q 323 37 304 0 q 328 64 328 50 l 328 157 q 294 198 327 179 q 270 229 271 216 l 270 245 q 286 260 271 259 l 388 260 q 403 245 401 258 l 403 229 q 401 222 403 225 q 399 216 400 218 q 394 210 397 213 q 389 206 391 208 q 382 202 387 205 l 378 199 q 347 167 351 180 q 346 157 346 161 l 346 64 q 384 5 346 22 q 410 0 397 0 l 582 0 q 642 50 635 0 q 643 73 643 61 l 643 741 q 586 844 643 827 q 545 848 567 848 l 30 848 l 30 749 l 479 749 q 526 720 521 749 q 528 699 528 711 l 528 132 q 503 99 525 100 l 426 99 q 401 119 403 102 l 401 145 q 425 178 403 163 q 461 208 456 193 q 463 220 463 214 l 463 275 q 427 311 460 309 l 244 311 q 209 275 210 308 l 209 220 q 244 178 209 195 l 245 178 q 271 145 270 161 l 271 119 q 247 99 270 100 l 167 99 q 145 132 146 102 l 145 369 l 335 369 q 404 426 397 369 q 406 446 406 435 l 406 568 q 326 637 403 636 l 113 637 q 33 583 47 637 q 30 560 30 571 l 30 73 z "},"න":{"ha":802,"x_min":30,"x_max":747,"o":"m 414 0 q 499 41 486 0 q 505 81 505 58 l 505 368 q 453 433 505 427 q 439 433 446 433 l 358 433 l 456 544 q 518 575 484 575 l 595 575 q 632 540 631 572 l 632 142 q 616 102 632 107 q 597 99 608 99 l 536 99 l 536 0 l 662 0 q 742 42 728 0 q 747 88 747 60 l 747 589 q 685 673 747 662 q 656 674 671 674 l 483 674 q 385 625 431 674 q 370 608 381 620 l 328 557 l 328 590 q 240 674 326 673 l 30 674 l 30 578 l 203 578 q 240 543 239 575 l 240 453 l 164 363 q 146 353 155 354 q 138 355 142 353 l 138 463 l 30 463 l 30 69 q 65 3 30 14 q 95 0 79 0 l 414 0 m 187 239 l 281 345 l 363 345 q 391 315 389 342 l 391 138 q 377 102 391 106 q 357 99 369 99 l 171 99 q 144 127 146 110 l 144 222 q 156 221 148 221 q 187 239 174 222 z "},"ඳ":{"ha":844,"x_min":30,"x_max":821,"o":"m 789 0 l 789 99 l 395 99 q 366 134 369 107 l 366 350 q 401 385 369 384 l 784 385 l 784 602 q 712 674 781 673 l 145 674 q 38 608 62 674 q 30 562 30 586 l 30 0 l 141 0 l 141 536 q 190 587 153 583 l 251 587 l 251 578 l 643 578 q 669 548 667 572 l 669 480 l 330 480 q 251 403 252 477 l 251 68 q 298 1 251 7 q 311 0 304 0 l 408 0 q 369 -71 369 -19 l 369 -171 q 439 -232 372 -231 l 821 -232 l 821 -133 l 518 -133 q 487 -106 488 -130 l 487 -54 q 551 0 498 -5 l 789 0 z "},"ඦ":{"ha":926,"x_min":30,"x_max":928,"o":"m 724 99 l 399 99 q 370 134 372 102 l 370 351 q 404 385 373 384 l 537 385 l 537 600 q 445 674 528 670 l 145 674 q 38 608 62 674 q 30 562 30 586 l 30 0 l 141 0 l 141 538 q 178 587 141 583 q 190 589 183 589 l 256 589 l 256 578 l 408 578 q 442 547 441 575 l 442 481 l 331 481 q 255 406 256 479 l 255 73 q 304 1 255 9 q 324 0 313 0 l 799 0 q 867 53 860 0 q 868 73 868 62 l 868 406 q 792 481 865 480 l 681 481 l 681 547 q 715 578 684 576 l 867 578 l 867 674 l 776 674 q 808 709 798 693 l 928 872 l 798 872 l 678 716 q 620 662 650 681 l 621 662 q 586 600 587 640 l 586 385 l 719 385 q 753 351 751 382 l 753 134 q 724 99 750 100 z "},"ඞ":{"ha":784,"x_min":15,"x_max":727,"o":"m 15 572 q 90 639 27 632 l 368 639 q 460 567 453 639 q 460 553 460 560 l 460 298 l 277 298 q 231 269 235 298 q 229 254 229 260 l 229 132 q 255 99 232 100 l 331 99 q 372 146 369 104 l 372 232 l 469 232 l 469 148 q 511 99 472 100 l 582 99 q 612 133 610 102 l 612 694 q 578 742 612 738 q 562 743 570 743 l 114 743 l 114 849 l 628 849 q 727 760 726 846 l 727 68 q 663 0 724 1 l 487 0 q 420 45 433 1 q 370 1 414 8 q 357 0 363 0 l 179 0 q 117 43 125 0 q 114 73 114 57 l 114 285 q 165 366 114 349 q 197 370 180 370 l 359 370 l 359 537 q 324 572 357 571 l 260 572 q 271 557 270 568 l 271 467 q 233 429 267 431 l 77 429 q 15 492 16 431 l 15 572 m 85 556 l 85 506 q 102 490 88 491 l 186 490 q 199 503 198 492 l 199 557 q 189 572 198 570 l 106 572 q 85 556 87 570 z "},"ණ":{"ha":1146,"x_min":30,"x_max":1092,"o":"m 174 374 l 174 545 q 214 581 176 579 l 331 581 l 174 365 l 174 374 m 446 99 l 229 99 q 197 133 199 99 q 197 152 197 140 q 174 191 195 187 l 209 241 l 378 241 l 378 324 l 269 324 l 452 579 q 486 528 483 567 l 486 148 q 446 99 483 100 m 521 674 l 519 674 l 635 836 l 518 836 l 400 674 l 148 674 q 66 601 68 671 l 66 343 q 98 260 68 289 l 30 168 l 30 50 l 84 110 q 111 79 109 103 q 149 3 111 12 q 174 0 160 0 l 503 0 q 601 102 600 3 l 601 529 q 635 576 601 571 q 643 578 639 578 l 692 578 q 732 522 731 575 l 732 245 l 837 245 l 837 524 q 869 576 837 570 q 878 578 873 578 l 943 578 q 977 549 974 578 q 978 534 978 543 l 978 137 q 955 100 978 104 q 944 99 949 99 l 656 99 l 656 0 l 993 0 q 1092 88 1086 12 l 1092 595 q 1009 674 1086 671 l 865 674 q 788 629 806 673 q 722 674 770 673 l 655 674 q 582 633 602 673 q 521 674 560 673 z "},"ඬ":{"ha":948,"x_min":30,"x_max":891,"o":"m 241 461 l 241 369 l 309 369 q 279 305 279 351 l 279 73 q 317 3 279 12 q 345 0 330 0 l 521 0 q 582 35 567 0 q 585 45 583 41 q 651 0 598 1 l 827 0 q 891 68 890 3 l 891 760 q 792 849 888 848 l 279 849 l 279 743 l 727 743 q 774 711 769 743 q 776 694 776 703 l 776 133 q 747 99 773 100 l 677 99 q 633 148 635 102 l 633 245 l 537 245 l 537 146 q 496 99 534 100 l 420 99 q 393 132 395 102 l 393 309 q 452 365 396 363 l 594 365 l 594 579 q 503 654 591 652 l 145 654 q 38 587 62 654 q 30 541 30 566 l 30 0 l 141 0 l 141 519 q 175 568 141 564 q 190 570 182 570 l 281 570 l 281 557 l 448 557 q 484 528 483 555 l 484 461 l 241 461 z "},"ඟ":{"ha":1031,"x_min":30,"x_max":970,"o":"m 481 674 l 145 674 q 38 608 62 674 q 30 562 30 586 l 30 0 l 141 0 l 141 530 q 178 579 141 575 q 190 581 183 581 l 252 581 l 252 72 q 290 3 252 12 q 317 0 301 0 l 591 0 q 677 39 662 0 q 682 81 682 57 l 682 339 q 643 389 680 387 l 627 389 l 655 544 q 699 575 663 574 l 817 575 q 854 537 853 572 l 854 144 q 837 102 854 107 q 817 99 829 99 l 757 99 l 757 0 l 884 0 q 964 42 951 0 q 970 87 970 61 l 970 589 q 907 673 970 662 q 879 674 894 674 l 655 674 q 557 605 570 674 l 509 316 l 547 316 q 570 288 568 313 l 570 137 q 553 102 570 106 q 532 99 545 99 l 393 99 q 366 132 368 102 l 366 521 q 400 576 366 570 q 416 578 408 578 l 481 578 l 481 674 z "},"ඤ":{"ha":1375,"x_min":30,"x_max":1352,"o":"m 1321 0 l 1321 99 l 926 99 q 898 134 901 107 l 898 350 q 933 385 901 384 l 1316 385 l 1316 602 q 1244 674 1313 673 l 690 674 q 602 659 639 674 q 552 632 579 651 l 495 590 l 495 613 q 453 673 495 665 q 441 674 446 674 l 145 674 q 38 608 62 674 q 30 562 30 586 l 30 0 l 141 0 l 141 540 q 178 589 141 585 q 190 590 183 590 l 252 590 l 252 578 l 370 578 q 406 548 404 575 l 406 513 l 228 361 l 228 289 l 275 289 q 241 199 241 264 l 241 65 q 302 0 251 5 l 430 0 q 481 35 472 0 q 483 39 483 38 q 533 0 495 1 l 652 0 q 720 50 709 0 q 723 71 723 61 l 723 415 q 655 487 719 484 l 522 487 l 582 534 q 643 570 617 562 q 709 578 665 578 l 1175 578 q 1200 548 1199 572 l 1200 480 l 861 480 q 783 403 784 477 l 783 68 q 830 1 783 7 q 842 0 836 0 l 940 0 q 901 -71 901 -19 l 901 -171 q 971 -232 903 -231 l 1352 -232 l 1352 -133 l 1050 -133 q 1019 -106 1020 -130 l 1019 -54 q 1082 0 1029 -5 l 1321 0 m 620 370 l 620 137 q 594 100 617 102 l 553 100 q 519 134 524 100 q 519 152 519 141 l 519 256 l 446 256 l 446 151 q 423 102 446 109 q 410 100 418 100 l 369 100 q 347 130 350 111 l 347 225 q 373 301 347 285 q 380 305 377 304 l 380 334 l 342 334 l 420 399 l 593 399 q 620 370 618 396 z "},"ඕ":{"ha":699,"x_min":19,"x_max":643,"o":"m 273 0 q 334 35 319 0 q 336 45 335 41 q 403 0 349 1 l 579 0 q 643 68 642 3 l 643 642 q 602 742 643 724 q 549 751 581 751 l 250 751 q 187 804 191 761 q 216 830 193 829 l 640 830 l 640 913 l 134 913 q 68 857 69 910 l 68 811 q 121 746 71 760 l 19 746 l 19 662 l 486 662 q 526 635 522 662 q 528 624 528 629 l 528 133 q 498 99 525 100 l 427 99 q 385 148 387 102 l 385 227 l 288 227 l 288 146 q 247 99 285 100 l 175 99 q 145 133 148 107 l 145 454 q 170 481 148 480 l 213 481 q 227 468 225 479 l 227 345 q 274 304 229 305 l 391 304 q 444 351 442 307 l 444 578 l 369 578 l 369 407 q 354 388 366 389 l 311 388 q 296 407 297 391 l 296 530 q 240 578 293 576 l 110 578 q 30 490 31 575 l 30 65 q 94 0 33 1 l 273 0 z "},"ඔ":{"ha":699,"x_min":30,"x_max":643,"o":"m 391 338 l 274 338 q 227 378 228 340 l 227 511 q 213 526 224 525 l 170 526 q 145 496 146 524 l 145 133 q 175 99 153 102 l 247 99 q 288 146 285 104 l 288 255 l 385 255 l 385 148 q 427 99 388 100 l 498 99 q 528 133 526 102 l 528 694 q 494 742 528 738 q 477 743 486 743 l 30 743 l 30 849 l 544 849 q 643 760 642 846 l 643 68 q 579 0 640 1 l 403 0 q 336 45 347 1 q 286 1 330 8 q 273 0 279 0 l 94 0 q 30 65 31 3 l 30 534 q 110 623 33 621 l 240 623 q 296 575 294 620 l 296 452 q 311 433 298 434 l 354 433 q 369 450 368 435 l 369 623 l 444 623 l 444 385 q 391 338 441 339 z "},"ප":{"ha":693,"x_min":30,"x_max":643,"o":"m 30 73 l 30 406 q 106 481 33 480 l 218 481 l 218 547 q 184 578 216 576 l 31 578 l 31 674 l 221 674 q 312 600 307 665 l 312 385 l 179 385 q 145 351 146 382 l 145 134 q 174 99 148 100 l 499 99 q 528 134 526 102 l 528 351 q 494 385 525 384 l 361 385 l 361 600 q 453 674 370 670 l 642 674 l 642 578 l 490 578 q 456 547 457 575 l 456 481 l 567 481 q 643 406 642 479 l 643 73 q 594 1 643 9 q 574 0 585 0 l 99 0 q 31 53 38 0 q 30 73 30 62 z "},"ඵ":{"ha":699,"x_min":30,"x_max":643,"o":"m 378 764 l 494 764 q 526 730 524 757 l 526 651 l 408 651 q 381 662 384 651 q 378 678 378 669 l 378 764 m 98 0 l 574 0 q 642 53 635 0 q 643 73 643 62 l 643 758 q 600 844 643 830 q 553 849 581 849 l 201 849 l 201 765 l 274 765 l 274 643 q 312 582 274 590 q 336 579 323 579 l 528 579 l 528 133 q 500 99 525 100 l 170 99 q 145 132 146 102 l 145 270 q 178 301 148 300 l 346 301 l 346 487 q 269 562 343 560 l 30 562 l 30 471 l 205 471 q 232 448 231 468 l 232 381 l 106 381 q 30 307 31 378 l 30 73 q 75 1 30 11 q 98 0 85 0 z "},"ර":{"ha":623,"x_min":30,"x_max":566,"o":"m 30 579 q 85 675 31 633 l 355 883 l 519 883 l 250 674 l 481 674 q 566 594 559 662 l 566 73 q 498 0 563 1 l 91 0 q 30 65 31 3 l 30 579 m 145 528 l 145 146 q 165 100 145 106 q 184 99 174 99 l 415 99 q 450 125 446 99 q 452 142 452 133 l 452 533 q 410 578 444 575 l 190 578 q 145 528 146 575 z "},"ස":{"ha":765,"x_min":-8,"x_max":709,"o":"m 30 326 l 30 73 q 75 1 30 11 q 98 0 85 0 l 298 0 q 362 34 340 0 q 370 56 369 45 q 419 4 376 18 q 442 0 431 0 l 642 0 q 708 47 700 0 q 709 73 709 60 l 709 403 q 628 481 707 480 l 490 481 l 490 548 q 526 578 492 576 l 708 578 l 708 674 l 487 674 q 395 600 399 667 l 395 385 l 563 385 q 594 359 593 382 l 594 132 q 570 99 594 99 l 472 99 q 423 156 427 106 l 423 243 l 317 243 l 317 156 q 269 99 311 104 l 171 99 q 145 132 146 102 l 145 330 q 203 385 148 384 l 346 385 l 346 600 q 254 674 336 670 l 31 674 l 31 578 l 214 578 q 251 548 250 575 l 251 481 l -8 481 l -8 389 l 62 389 q 30 326 31 372 z "},"ශ":{"ha":803,"x_min":30,"x_max":747,"o":"m 590 91 l 495 91 l 495 0 l 662 0 q 742 41 727 0 q 747 87 747 60 l 747 589 q 685 673 747 662 q 656 674 671 674 l 418 674 q 320 605 332 674 l 271 316 l 309 316 q 332 288 331 313 l 332 137 q 313 100 332 104 q 294 99 305 99 l 172 99 q 145 132 146 102 l 145 541 q 164 576 145 572 q 180 578 172 578 l 255 578 l 255 674 l 107 674 q 30 595 37 662 l 30 80 q 98 0 33 1 l 354 0 q 439 39 425 0 q 445 81 445 57 l 445 339 q 406 389 442 387 l 389 389 l 416 544 q 461 575 425 574 l 598 575 q 635 537 633 572 l 635 426 l 555 426 q 495 372 496 423 l 495 218 q 590 91 496 119 m 642 349 l 642 129 q 560 220 562 152 l 560 332 q 572 349 563 347 l 642 349 z "},"ෂ":{"ha":693,"x_min":30,"x_max":643,"o":"m 30 73 q 79 1 30 9 q 99 0 88 0 l 574 0 q 642 53 635 0 q 643 73 643 62 l 643 400 q 604 471 642 454 l 624 490 q 643 540 643 510 l 643 606 q 591 673 643 665 q 581 674 586 674 l 437 674 q 346 600 347 671 l 346 385 l 415 385 l 298 285 q 274 216 274 262 l 274 163 l 381 163 l 381 208 q 404 269 382 247 l 519 377 q 528 351 528 368 l 528 134 q 499 99 525 100 l 174 99 q 145 134 146 102 l 145 351 q 179 385 148 384 l 300 385 l 300 600 q 208 674 290 670 l 31 674 l 31 578 l 171 578 q 205 547 203 575 l 205 481 l 106 481 q 30 406 31 479 l 30 73 m 439 476 l 439 547 q 473 578 442 576 l 536 578 q 559 547 557 572 q 536 502 557 522 l 507 476 l 439 476 z "},"ත":{"ha":803,"x_min":16,"x_max":747,"o":"m 392 369 q 365 399 389 397 l 208 399 l 130 332 l 176 332 l 176 305 q 144 224 145 273 l 144 129 q 167 99 148 100 l 366 99 q 392 136 392 102 l 392 369 m 282 589 l 346 643 q 434 674 385 674 l 669 674 q 745 623 731 674 q 747 601 747 612 l 747 69 q 690 1 747 9 q 675 0 682 0 l 534 0 l 534 99 l 605 99 q 632 132 631 102 l 632 544 q 597 578 629 576 l 450 578 q 388 553 416 576 l 311 487 l 435 487 q 505 415 499 476 l 505 71 q 452 1 505 14 q 433 0 442 0 l 90 0 q 30 65 34 7 l 30 199 q 64 289 31 269 l 16 289 l 16 361 q 193 513 18 362 l 193 547 q 157 578 190 576 l 39 578 l 39 674 l 228 674 q 281 624 275 674 q 282 613 282 618 l 282 589 z "},"ථ":{"ha":697,"x_min":30,"x_max":643,"o":"m 378 764 l 494 764 q 526 730 524 757 l 526 651 l 408 651 q 381 662 384 651 q 378 678 378 669 l 378 764 m 309 435 l 309 534 l 106 534 q 30 460 31 532 l 30 73 q 75 1 30 11 q 98 0 85 0 l 574 0 q 642 53 635 0 q 643 73 643 62 l 643 758 q 600 844 643 830 q 553 849 581 849 l 201 849 l 201 765 l 274 765 l 274 643 q 312 582 274 590 q 336 579 323 579 l 528 579 l 528 133 q 500 99 525 100 l 170 99 q 145 132 146 102 l 145 404 q 178 435 148 434 l 309 435 z "},"ට":{"ha":699,"x_min":30,"x_max":643,"o":"m 336 525 l 336 624 l 106 624 q 30 549 31 621 l 30 73 q 75 1 30 11 q 98 0 85 0 l 574 0 q 642 53 635 0 q 643 73 643 62 l 643 741 q 586 844 643 827 q 545 848 567 848 l 30 848 l 30 749 l 479 749 q 526 720 521 749 q 528 699 528 711 l 528 133 q 500 99 525 100 l 170 99 q 145 132 146 102 l 145 494 q 178 525 148 524 l 336 525 z "},"ඨ":{"ha":699,"x_min":30,"x_max":643,"o":"m 378 764 l 495 764 q 526 730 524 754 l 526 651 l 408 651 q 381 662 384 651 q 378 678 378 669 l 378 764 m 271 0 q 331 37 315 0 q 335 50 334 43 q 401 0 351 1 l 579 0 q 643 68 642 3 l 643 758 q 600 844 643 830 q 553 849 581 849 l 201 849 l 201 765 l 274 765 l 274 643 q 312 582 274 590 q 336 579 323 579 l 528 579 l 528 132 q 502 99 525 100 l 431 99 q 385 161 387 102 l 385 288 l 288 288 l 288 160 q 243 99 285 100 l 174 99 q 145 129 146 102 l 145 380 q 174 410 148 408 l 345 410 l 345 509 l 110 509 q 30 420 31 506 l 30 65 q 94 0 33 1 l 271 0 z "},"උ":{"ha":707,"x_min":30,"x_max":659,"o":"m 126 674 l 567 674 q 655 594 654 671 l 655 385 l 197 385 q 148 363 155 385 q 145 336 145 353 l 145 -60 q 161 -103 145 -98 q 182 -106 171 -106 l 513 -106 q 544 -73 544 -103 l 544 133 l 659 133 l 659 -125 q 601 -206 659 -198 q 579 -208 590 -208 l 103 -208 q 30 -117 31 -205 l 30 382 q 130 480 33 479 l 540 480 l 540 547 q 509 578 536 576 l 126 578 l 126 674 z "},"ඌ":{"ha":1206,"x_min":30,"x_max":1175,"o":"m 126 674 l 567 674 q 655 594 654 671 l 655 385 l 197 385 q 148 363 155 385 q 145 336 145 353 l 145 -60 q 161 -103 145 -98 q 182 -106 171 -106 l 513 -106 q 544 -73 544 -103 l 544 133 l 659 133 l 659 -125 q 601 -206 659 -198 q 579 -208 590 -208 l 103 -208 q 30 -117 31 -205 l 30 382 q 130 480 33 479 l 540 480 l 540 547 q 509 578 536 576 l 126 578 l 126 674 m 757 674 l 757 381 q 802 336 760 338 l 924 336 q 987 384 986 339 l 987 552 q 1006 578 990 576 l 1047 578 q 1066 553 1065 575 l 1066 127 q 1043 99 1063 100 l 907 99 q 882 127 884 110 l 882 218 l 760 218 l 760 64 q 814 0 765 4 l 1109 0 q 1173 46 1162 0 q 1175 62 1175 54 l 1175 618 q 1138 671 1175 658 q 1118 674 1127 674 l 948 674 q 906 617 910 661 l 906 461 q 884 433 902 434 l 852 433 q 833 460 834 445 l 833 674 l 757 674 z "},"ව":{"ha":699,"x_min":30,"x_max":643,"o":"m 545 848 l 30 848 l 30 749 l 479 749 q 526 720 521 749 q 528 699 528 711 l 528 133 q 500 99 525 100 l 170 99 q 145 132 146 102 l 145 342 q 178 373 148 372 l 346 373 l 346 579 q 269 654 343 652 l 30 654 l 30 557 l 205 557 q 232 534 231 555 l 232 463 l 106 463 q 30 388 31 460 l 30 73 q 75 1 30 11 q 98 0 85 0 l 574 0 q 642 53 635 0 q 643 73 643 62 l 643 741 q 586 844 643 827 q 545 848 567 848 z "},"ය":{"ha":765,"x_min":30,"x_max":709,"o":"m 305 674 l 305 578 l 175 578 q 145 538 146 575 l 145 130 q 171 99 148 100 l 269 99 q 317 156 313 106 l 317 243 l 423 243 l 423 156 q 472 99 430 104 l 570 99 q 594 132 594 99 l 594 359 q 563 385 591 384 l 366 385 l 366 594 q 457 674 369 673 l 708 674 l 708 578 l 510 578 q 473 548 475 575 l 473 481 l 628 481 q 709 403 708 479 l 709 73 q 665 1 709 11 q 642 0 654 0 l 442 0 q 378 34 400 0 q 370 56 372 45 q 321 4 365 18 q 298 0 309 0 l 98 0 q 31 47 39 0 q 30 73 30 58 l 30 594 q 106 674 33 673 l 305 674 z "},"෴":{"ha":2493,"x_min":58,"x_max":2433,"o":"m 201 277 l 255 180 l 206 151 l 233 104 q 266 106 243 94 l 450 212 q 528 213 495 236 q 549 195 529 213 l 656 343 q 686 346 671 363 q 689 340 688 343 l 728 281 l 864 441 q 895 441 880 457 q 901 431 899 435 l 948 343 l 1086 503 q 1119 503 1104 521 q 1124 494 1123 499 l 1176 359 l 1329 530 q 1359 532 1348 547 q 1363 522 1362 528 l 1404 339 l 1561 467 q 1598 463 1588 486 q 1600 445 1600 454 l 1615 288 l 1759 385 q 1793 377 1784 399 q 1794 362 1794 370 l 1807 229 l 1922 308 q 1953 304 1945 321 q 1954 288 1957 297 l 1959 201 q 1967 203 1960 201 q 1983 209 1979 209 q 2045 205 2014 222 l 2224 102 q 2261 100 2252 88 l 2287 149 l 2238 179 l 2294 274 l 2410 202 q 2416 153 2433 184 l 2340 18 q 2261 -7 2314 -19 q 2242 0 2252 -4 l 2039 114 q 1969 121 2002 134 l 1845 62 l 1847 175 l 1682 75 l 1679 240 l 1511 126 l 1489 298 l 1314 159 l 1275 354 l 1112 186 l 1055 343 l 895 170 l 840 290 l 699 130 l 655 194 l 572 85 l 510 130 q 454 125 490 144 l 243 4 q 165 7 198 -20 q 153 22 157 14 l 77 156 q 84 206 60 190 l 201 277 z "},"ඏ":{"ha":1173,"x_min":30,"x_max":1124,"o":"m 1031 180 l 1031 127 q 1008 100 1028 102 l 952 100 q 935 115 936 103 l 935 191 q 954 210 937 209 l 1000 210 q 1031 180 1029 208 m 883 406 q 807 481 880 480 l 696 481 l 696 547 q 730 578 699 576 l 882 578 l 882 674 l 838 674 l 838 707 q 873 735 846 732 l 981 735 q 1029 689 1027 730 l 1029 275 q 1004 286 1021 286 l 939 286 q 883 262 898 285 l 883 406 m 814 0 q 880 47 872 3 q 943 19 898 19 l 1051 19 q 1124 106 1122 24 l 1124 715 q 1065 807 1124 784 q 1017 815 1043 815 l 838 815 q 750 765 762 815 q 747 730 747 750 l 747 674 l 693 674 q 601 600 605 667 l 601 385 l 734 385 q 768 351 766 382 l 768 134 q 739 99 765 100 l 414 99 q 385 134 387 102 l 385 351 q 419 385 388 384 l 552 385 l 552 600 q 475 674 552 667 q 461 674 468 674 l 407 674 l 407 730 q 365 808 407 795 q 316 815 345 815 l 137 815 q 34 747 54 815 q 30 715 30 731 l 30 106 q 103 19 33 20 l 212 19 q 273 46 255 20 q 339 0 285 1 l 814 0 m 123 180 q 155 210 126 209 l 201 210 q 220 191 218 208 l 220 115 q 202 100 217 102 l 146 100 q 123 127 125 103 l 123 180 m 270 406 l 270 263 q 216 286 251 286 l 149 286 q 125 277 134 286 l 125 689 q 174 735 132 731 l 281 735 q 316 707 315 731 l 316 674 l 271 674 l 271 578 l 425 578 q 458 547 457 575 l 458 481 l 346 481 q 270 406 271 479 z "},"ඐ":{"ha":1657,"x_min":30,"x_max":1595,"o":"m 1031 180 l 1031 127 q 1008 100 1028 102 l 952 100 q 935 115 936 103 l 935 191 q 954 210 937 209 l 1000 210 q 1031 180 1029 208 m 883 406 q 807 481 880 480 l 696 481 l 696 547 q 730 578 699 576 l 882 578 l 882 674 l 838 674 l 838 707 q 873 735 846 732 l 981 735 q 1029 689 1027 730 l 1029 275 q 1004 286 1021 286 l 939 286 q 883 262 898 285 l 883 406 m 814 0 q 880 47 872 3 q 943 19 898 19 l 1051 19 q 1124 106 1122 24 l 1124 715 q 1065 807 1124 784 q 1017 815 1043 815 l 838 815 q 750 765 762 815 q 747 730 747 750 l 747 674 l 693 674 q 601 600 605 667 l 601 385 l 734 385 q 768 351 766 382 l 768 134 q 739 99 765 100 l 414 99 q 385 134 387 102 l 385 351 q 419 385 388 384 l 552 385 l 552 600 q 475 674 552 667 q 461 674 468 674 l 407 674 l 407 730 q 365 808 407 795 q 316 815 345 815 l 137 815 q 34 747 54 815 q 30 715 30 731 l 30 106 q 103 19 33 20 l 212 19 q 273 46 255 20 q 339 0 285 1 l 814 0 m 123 180 q 155 210 126 209 l 201 210 q 220 191 218 208 l 220 115 q 202 100 217 102 l 146 100 q 123 127 125 103 l 123 180 m 270 406 l 270 263 q 216 286 251 286 l 149 286 q 125 277 134 286 l 125 689 q 174 735 132 731 l 281 735 q 316 707 315 731 l 316 674 l 271 674 l 271 578 l 425 578 q 458 547 457 575 l 458 481 l 346 481 q 270 406 271 479 m 1192 674 l 1192 381 q 1237 336 1195 338 l 1340 336 q 1397 384 1396 339 l 1397 552 q 1417 578 1400 576 l 1461 578 q 1478 555 1477 575 l 1478 127 q 1457 99 1476 100 l 1333 99 q 1308 127 1310 110 l 1308 218 l 1192 218 l 1192 64 q 1246 0 1198 4 l 1530 0 q 1594 46 1583 0 q 1595 62 1595 54 l 1595 618 q 1558 671 1595 658 q 1538 674 1548 674 l 1393 674 q 1343 617 1344 671 l 1343 463 q 1322 433 1339 434 l 1287 433 q 1268 460 1270 445 l 1268 674 l 1192 674 z "},"ඍ":{"ha":1233,"x_min":30,"x_max":1183,"o":"m 795 674 l 795 578 l 1036 578 q 1066 562 1063 578 q 1067 545 1067 555 l 1067 438 l 852 438 q 796 393 803 438 q 795 380 795 387 l 795 57 q 845 0 798 1 l 1008 0 q 1076 53 1054 1 l 1090 0 l 1183 0 l 1183 610 q 1116 674 1180 673 l 795 674 m 1067 345 l 1067 184 q 1009 99 1066 100 l 932 99 q 910 123 911 107 l 910 320 q 930 345 913 343 l 1067 345 m 370 56 q 419 4 374 18 q 442 0 431 0 l 642 0 q 708 47 700 0 q 709 73 709 60 l 709 403 q 628 481 707 480 l 488 481 l 488 548 q 526 578 491 576 l 708 578 l 708 674 l 487 674 q 395 600 399 667 l 395 385 l 563 385 q 594 359 593 382 l 594 132 q 570 99 594 99 l 472 99 q 423 156 427 106 l 423 243 l 317 243 l 317 156 q 267 99 312 102 l 171 99 q 145 132 146 102 l 145 359 q 176 385 148 384 l 345 385 l 345 600 q 267 674 345 667 q 254 674 260 674 l 31 674 l 31 578 l 213 578 q 251 548 250 575 l 251 481 l 111 481 q 30 403 31 479 l 30 73 q 75 1 30 11 q 98 0 85 0 l 298 0 q 362 34 340 0 q 370 56 369 45 z "},"ඎ":{"ha":1686,"x_min":30,"x_max":1629,"o":"m 1241 674 l 1241 578 l 1482 576 q 1512 564 1510 576 q 1514 545 1514 557 l 1514 438 l 1299 438 q 1242 393 1249 438 q 1241 380 1241 387 l 1241 57 q 1291 0 1244 1 l 1454 0 q 1522 53 1501 1 l 1538 0 l 1629 0 l 1629 610 q 1563 674 1626 673 l 1241 674 m 1514 345 l 1514 184 q 1455 99 1512 100 l 1378 99 q 1356 122 1358 107 l 1356 319 q 1378 345 1362 343 l 1514 345 m 788 674 l 788 578 l 1029 576 q 1059 564 1057 576 q 1061 545 1061 557 l 1061 438 l 846 438 q 789 393 796 438 q 788 380 788 387 l 788 57 q 838 0 791 1 l 1001 0 q 1069 53 1048 1 l 1085 0 l 1176 0 l 1176 610 q 1109 674 1173 673 l 788 674 m 1061 345 l 1061 184 q 1002 99 1059 100 l 925 99 q 903 122 905 107 l 903 319 q 924 345 906 343 l 1061 345 m 370 56 q 419 4 374 18 q 442 0 431 0 l 642 0 q 708 47 700 0 q 709 73 709 60 l 709 403 q 628 481 707 480 l 488 481 l 488 548 q 526 578 491 576 l 708 578 l 708 674 l 487 674 q 395 600 399 667 l 395 385 l 563 385 q 594 359 593 382 l 594 132 q 570 99 594 99 l 472 99 q 423 156 427 106 l 423 243 l 317 243 l 317 156 q 267 99 312 102 l 171 99 q 145 132 146 102 l 145 359 q 176 385 148 384 l 345 385 l 345 600 q 267 674 345 667 q 254 674 260 674 l 31 674 l 31 578 l 213 578 q 251 548 250 575 l 251 481 l 111 481 q 30 403 31 479 l 30 73 q 75 1 30 11 q 98 0 85 0 l 298 0 q 362 34 340 0 q 370 56 369 45 z "},"/":{"ha":585,"x_min":20,"x_max":575,"o":"m 446 916 l 20 -130 l 151 -130 l 575 916 l 446 916 z "}," ":{"ha":271,"x_min":0,"x_max":0,"o":""},"£":{"ha":589,"x_min":54,"x_max":549,"o":"m 549 0 l 549 121 l 241 121 q 274 189 274 138 l 274 369 l 491 369 l 491 471 l 274 471 l 274 678 q 288 693 277 692 l 538 693 l 538 818 l 330 818 q 138 690 160 818 q 134 643 134 667 l 134 471 l 54 471 l 54 369 l 134 369 l 134 137 q 118 121 134 121 l 54 121 l 54 0 l 549 0 z "},"∑":{"ha":594,"x_min":27,"x_max":555,"o":"m 27 0 l 555 0 l 555 121 l 189 121 l 395 446 l 208 741 l 555 741 l 555 861 l 39 861 l 39 761 l 247 441 l 27 100 l 27 0 z "},"t":{"ha":403,"x_min":31,"x_max":397,"o":"m 397 665 l 241 665 l 241 834 l 109 834 l 109 665 l 31 665 l 31 560 l 109 560 l 109 167 q 198 14 109 43 q 296 0 237 0 l 397 0 l 397 113 l 256 113 q 241 127 243 115 l 241 560 l 397 560 l 397 665 z "},"ť":{"ha":422,"x_min":31,"x_max":418,"o":"m 397 665 l 241 665 l 241 834 l 109 834 l 109 665 l 31 665 l 31 560 l 109 560 l 109 167 q 198 14 109 43 q 296 0 237 0 l 397 0 l 397 113 l 256 113 q 241 127 243 115 l 241 560 l 397 560 l 397 665 m 305 833 l 345 833 q 307 734 339 783 l 346 703 q 418 853 416 774 l 418 966 l 305 966 l 305 833 z "},"þ":{"ha":623,"x_min":77,"x_max":562,"o":"m 212 -258 l 212 -1 l 389 -3 q 545 60 513 -4 q 562 152 562 95 l 562 528 q 486 665 562 639 q 404 675 453 675 l 328 675 q 212 600 233 674 l 212 916 l 77 916 l 77 -258 l 212 -258 m 212 552 q 227 567 214 566 l 414 567 q 429 552 427 564 l 429 121 q 414 106 426 107 l 212 107 l 212 552 z "},"¾":{"ha":1118,"x_min":34,"x_max":1074,"o":"m 392 449 l 392 521 q 339 609 391 587 q 389 690 388 633 l 389 753 q 264 867 387 868 l 37 863 l 37 772 l 263 772 q 275 761 274 769 l 275 663 q 263 652 273 654 l 84 652 l 84 564 l 269 564 q 279 553 278 562 l 279 439 q 269 429 277 430 l 34 429 l 34 338 l 266 335 q 392 449 391 338 m 743 872 l 264 -11 l 376 -11 l 853 872 l 743 872 m 994 0 l 994 113 l 1074 113 l 1074 202 l 994 202 l 994 526 l 875 528 q 793 495 819 529 q 768 454 784 483 l 614 184 l 614 113 l 883 113 l 883 0 l 994 0 m 856 427 q 868 435 864 435 l 883 435 l 883 202 l 724 202 l 856 427 z "},"³":{"ha":479,"x_min":34,"x_max":392,"o":"m 392 449 l 392 521 q 339 609 391 587 q 389 690 388 633 l 389 753 q 264 867 387 868 l 37 863 l 37 772 l 263 772 q 275 761 274 769 l 275 663 q 263 652 273 654 l 84 652 l 84 564 l 269 564 q 279 553 278 562 l 279 439 q 269 429 277 430 l 34 429 l 34 338 l 266 335 q 392 449 391 338 z "},"˜":{"ha":543,"x_min":75,"x_max":461,"o":"m 159 777 q 191 831 160 830 q 275 802 208 831 q 362 779 328 779 q 460 897 452 779 q 461 925 461 910 l 374 925 q 347 873 374 878 q 338 872 342 872 q 252 901 317 872 q 165 924 201 924 q 81 850 96 924 q 75 779 75 821 l 159 777 z "},"™":{"ha":913,"x_min":20,"x_max":850,"o":"m 789 872 l 755 872 l 620 613 l 502 838 q 467 871 486 867 q 450 872 458 872 l 389 872 l 389 334 l 488 334 l 488 682 l 585 496 l 642 496 l 745 692 l 745 334 l 850 334 l 850 815 q 789 872 848 871 m 244 334 l 244 785 l 357 785 l 357 872 l 20 872 l 20 785 l 134 785 l 134 334 l 244 334 z "},"²":{"ha":456,"x_min":50,"x_max":407,"o":"m 50 502 l 50 338 l 404 338 l 404 429 l 164 429 l 164 488 q 179 515 165 510 l 335 589 q 403 652 393 616 q 407 682 407 666 l 407 755 q 294 867 407 867 q 292 867 293 867 l 64 863 l 64 772 l 282 772 q 293 761 292 769 l 293 693 q 281 678 290 684 l 119 601 q 60 553 71 576 q 50 502 50 533 z "},"u":{"ha":621,"x_min":62,"x_max":548,"o":"m 297 -11 q 418 75 399 -9 l 429 0 l 548 0 l 545 665 l 412 665 l 414 98 l 212 98 q 197 113 198 100 l 197 665 l 62 665 l 62 138 q 144 -1 62 24 q 221 -11 176 -11 l 297 -11 z "},"ú":{"ha":621,"x_min":62,"x_max":548,"o":"m 297 -11 q 418 75 399 -9 l 429 0 l 548 0 l 545 665 l 412 665 l 414 98 l 212 98 q 197 113 198 100 l 197 665 l 62 665 l 62 138 q 144 -1 62 24 q 221 -11 176 -11 l 297 -11 m 247 749 l 331 949 l 469 948 l 345 749 l 247 749 z "},"û":{"ha":621,"x_min":62,"x_max":548,"o":"m 297 -11 q 418 75 399 -9 l 429 0 l 548 0 l 545 665 l 412 665 l 414 98 l 212 98 q 197 113 198 100 l 197 665 l 62 665 l 62 138 q 144 -1 62 24 q 221 -11 176 -11 l 297 -11 m 369 943 l 229 943 l 99 749 l 210 749 l 298 879 l 377 749 l 492 749 l 369 943 z "},"ü":{"ha":621,"x_min":62,"x_max":548,"o":"m 297 -11 q 418 75 399 -9 l 429 0 l 548 0 l 545 665 l 412 665 l 414 98 l 212 98 q 197 113 198 100 l 197 665 l 62 665 l 62 138 q 144 -1 62 24 q 221 -11 176 -11 l 297 -11 m 240 777 l 240 909 l 121 909 l 121 777 l 240 777 m 484 777 l 484 909 l 365 909 l 365 777 l 484 777 z "},"ù":{"ha":621,"x_min":62,"x_max":548,"o":"m 297 -11 q 418 75 399 -9 l 429 0 l 548 0 l 545 665 l 412 665 l 414 98 l 212 98 q 197 113 198 100 l 197 665 l 62 665 l 62 138 q 144 -1 62 24 q 221 -11 176 -11 l 297 -11 m 132 948 l 269 949 l 358 749 l 263 749 l 132 948 z "},"ű":{"ha":621,"x_min":62,"x_max":567,"o":"m 297 -11 q 418 75 399 -9 l 429 0 l 548 0 l 545 665 l 412 665 l 414 98 l 212 98 q 197 113 198 100 l 197 665 l 62 665 l 62 138 q 144 -1 62 24 q 221 -11 176 -11 l 297 -11 m 151 749 l 233 949 l 365 948 l 247 749 l 151 749 m 346 749 l 431 949 l 567 948 l 442 749 l 346 749 z "},"ū":{"ha":621,"x_min":62,"x_max":548,"o":"m 297 -11 q 418 75 399 -9 l 429 0 l 548 0 l 545 665 l 412 665 l 414 98 l 212 98 q 197 113 198 100 l 197 665 l 62 665 l 62 138 q 144 -1 62 24 q 221 -11 176 -11 l 297 -11 m 479 880 l 121 880 l 121 783 l 479 783 l 479 880 z "},"_":{"ha":605,"x_min":27,"x_max":578,"o":"m 578 -57 l 27 -57 l 27 -141 l 578 -141 l 578 -57 z "}," ":{"ha":254,"x_min":0,"x_max":0,"o":""},"­":{"ha":438,"x_min":41,"x_max":397,"o":"m 397 444 l 41 444 l 41 335 l 397 335 l 397 444 z "},"µ":{"ha":621,"x_min":62,"x_max":548,"o":"m 194 -258 l 183 12 q 255 -11 208 -11 l 320 -11 q 418 73 400 -8 l 429 0 l 548 0 l 545 665 l 412 665 l 414 98 l 212 98 q 197 113 198 100 l 197 665 l 62 665 l 62 -258 l 194 -258 z "},"Ģ":{"ha":728,"x_min":81,"x_max":662,"o":"m 467 -11 q 661 130 644 -11 q 662 164 662 148 l 662 463 l 392 463 l 392 346 l 526 346 l 526 129 q 513 114 524 115 l 237 114 q 222 129 224 117 l 222 732 q 237 747 225 746 l 646 747 l 646 872 l 277 872 q 87 753 113 872 q 81 697 81 727 l 81 164 q 221 -7 81 14 q 277 -11 247 -11 l 467 -11 m 321 -209 l 365 -209 q 323 -320 359 -264 l 366 -354 q 445 -187 445 -274 l 445 -62 l 321 -62 l 321 -209 z "},"ģ":{"ha":605,"x_min":61,"x_max":544,"o":"m 252 829 l 297 829 q 267 741 294 791 l 311 708 q 377 853 377 776 l 377 974 l 252 974 l 252 829 m 410 113 q 396 98 407 99 l 208 98 q 193 113 194 100 l 193 543 q 208 557 195 556 l 410 555 l 410 113 m 396 -157 l 85 -157 l 85 -269 l 357 -269 q 530 -187 496 -269 q 544 -102 544 -152 l 544 665 l 233 669 q 79 608 111 670 q 61 513 61 572 l 61 138 q 140 0 61 26 q 218 -11 172 -11 l 293 -11 q 410 62 387 -9 l 410 -142 q 396 -157 407 -156 z "},"Ķ":{"ha":757,"x_min":102,"x_max":750,"o":"m 415 376 q 430 361 425 376 l 602 0 l 750 0 l 594 320 q 529 423 555 403 q 505 437 517 431 q 571 519 541 453 q 585 549 578 533 l 718 861 l 579 861 l 430 510 q 415 496 422 496 l 240 496 l 240 861 l 102 861 l 102 0 l 240 0 l 240 376 l 415 376 m 326 -209 l 369 -209 q 327 -320 363 -264 l 370 -354 q 449 -187 449 -274 l 449 -62 l 326 -62 l 326 -209 z "},"ķ":{"ha":623,"x_min":81,"x_max":618,"o":"m 369 292 q 385 277 380 289 l 481 0 l 618 0 l 536 232 q 477 339 506 317 q 449 354 464 349 q 505 461 479 377 l 567 665 l 435 665 l 359 418 q 345 403 354 404 l 213 403 l 213 916 l 81 916 l 81 0 l 213 0 l 213 292 l 369 292 m 260 -205 l 304 -205 q 262 -313 297 -259 l 304 -347 q 382 -183 381 -269 l 382 -61 l 260 -61 l 260 -205 z "},"Ļ":{"ha":559,"x_min":95,"x_max":547,"o":"m 547 121 l 233 121 l 233 861 l 95 861 l 95 0 l 547 0 l 547 121 m 252 -209 l 296 -209 q 254 -320 290 -264 l 297 -354 q 376 -187 376 -274 l 376 -62 l 252 -62 l 252 -209 z "},"ļ":{"ha":301,"x_min":84,"x_max":217,"o":"m 217 0 l 217 916 l 84 916 l 84 0 l 217 0 m 90 -205 l 133 -205 q 91 -313 126 -259 l 133 -347 q 212 -183 210 -269 l 212 -61 l 90 -61 l 90 -205 z "},"Ņ":{"ha":787,"x_min":87,"x_max":700,"o":"m 604 0 l 700 0 l 700 861 l 579 861 l 579 252 l 183 861 l 87 861 l 87 0 l 206 0 l 206 612 l 604 0 m 328 -209 l 372 -209 q 330 -320 366 -264 l 373 -354 q 452 -187 452 -274 l 452 -62 l 328 -62 l 328 -209 z "},"ņ":{"ha":620,"x_min":75,"x_max":557,"o":"m 324 675 q 203 595 225 674 l 193 665 l 75 665 l 76 0 l 209 0 l 208 552 q 222 567 210 566 l 410 567 q 425 552 423 564 l 425 0 l 557 0 l 557 528 q 481 665 557 639 q 400 675 449 675 l 324 675 m 254 -205 l 297 -205 q 255 -313 290 -259 l 297 -347 q 376 -183 374 -269 l 376 -61 l 254 -61 l 254 -205 z "},"Ŗ":{"ha":738,"x_min":98,"x_max":696,"o":"m 237 0 l 236 338 l 426 338 q 448 320 442 335 l 556 0 l 696 0 l 602 267 q 548 351 579 328 q 666 528 665 392 l 666 681 q 461 867 663 869 l 98 861 l 98 0 l 237 0 m 507 746 q 525 728 524 743 l 525 475 q 507 457 522 458 l 236 457 l 236 746 l 507 746 m 326 -209 l 369 -209 q 327 -320 363 -264 l 370 -354 q 449 -187 449 -274 l 449 -62 l 326 -62 l 326 -209 z "},"ŗ":{"ha":382,"x_min":72,"x_max":384,"o":"m 321 675 q 201 595 222 674 l 190 665 l 72 665 l 73 0 l 206 0 l 205 545 q 220 559 208 557 l 384 559 l 384 675 l 321 675 m 83 -205 l 126 -205 q 84 -313 119 -259 l 126 -347 q 205 -183 203 -269 l 205 -61 l 83 -61 l 83 -205 z "},"Ş":{"ha":650,"x_min":52,"x_max":604,"o":"m 210 495 q 193 513 194 498 l 193 723 q 210 741 195 739 l 576 741 l 576 861 l 259 867 q 61 749 98 869 q 52 680 52 716 l 52 552 q 256 370 54 372 l 445 370 q 463 353 461 368 l 463 138 q 445 121 460 122 l 66 121 l 66 0 l 260 -3 l 232 -133 l 345 -133 q 354 -142 353 -136 l 354 -199 q 345 -209 351 -208 l 217 -209 l 217 -288 l 319 -288 q 439 -179 438 -285 l 439 -149 q 355 -64 439 -72 q 331 -62 343 -62 l 316 -62 l 328 -4 l 399 -5 q 604 164 594 -9 q 604 180 604 172 l 604 312 q 437 492 604 475 q 396 495 416 495 l 210 495 z "},"ş":{"ha":525,"x_min":43,"x_max":495,"o":"m 336 -4 q 483 68 454 -4 q 495 144 495 99 l 495 235 q 426 374 495 346 q 321 391 388 391 l 193 391 q 179 406 180 393 l 179 548 q 193 563 182 562 l 460 563 l 460 674 l 221 675 q 58 602 91 675 q 43 513 43 567 l 43 441 q 114 300 43 330 q 217 285 153 285 l 347 285 q 362 270 361 282 l 362 119 q 347 104 359 106 l 54 104 l 56 -4 l 209 -4 l 180 -132 l 293 -132 q 302 -141 301 -134 l 302 -198 q 293 -208 300 -206 l 165 -208 l 165 -286 l 267 -286 q 388 -178 387 -283 l 388 -148 q 304 -62 388 -71 q 279 -61 292 -61 l 264 -61 l 275 -4 l 336 -4 z "},"Ţ":{"ha":571,"x_min":7,"x_max":564,"o":"m 354 0 l 354 741 l 564 741 l 564 861 l 7 861 l 7 741 l 216 741 l 216 0 l 231 0 l 202 -132 l 315 -132 q 324 -141 323 -134 l 324 -198 q 315 -208 321 -206 l 187 -208 l 187 -286 l 289 -286 q 410 -178 408 -283 l 410 -148 q 326 -62 410 -71 q 301 -61 313 -61 l 286 -61 l 298 0 l 354 0 z "},"ţ":{"ha":403,"x_min":31,"x_max":397,"o":"m 397 665 l 241 665 l 241 834 l 109 834 l 109 665 l 31 665 l 31 560 l 109 560 l 109 167 q 193 15 110 46 l 160 -132 l 273 -132 q 282 -141 281 -134 l 282 -198 q 273 -208 279 -206 l 145 -208 l 145 -286 l 247 -286 q 368 -178 366 -283 l 368 -148 q 283 -62 368 -71 q 259 -61 271 -61 l 244 -61 l 256 1 q 296 0 270 0 l 397 0 l 397 113 l 256 113 q 241 127 243 115 l 241 560 l 397 560 l 397 665 z "},"Ș":{"ha":656,"x_min":52,"x_max":604,"o":"m 210 495 q 193 513 194 498 l 193 723 q 210 741 195 739 l 576 741 l 576 861 l 259 867 q 61 749 98 869 q 52 680 52 716 l 52 552 q 256 370 54 372 l 445 370 q 463 353 461 368 l 463 138 q 445 121 460 122 l 66 121 l 66 0 l 399 -5 q 604 164 594 -9 q 604 180 604 172 l 604 312 q 437 492 604 475 q 396 495 416 495 l 210 495 m 258 -209 l 301 -209 q 259 -320 296 -264 l 302 -354 q 381 -187 381 -274 l 381 -62 l 258 -62 l 258 -209 z "},"ș":{"ha":525,"x_min":43,"x_max":495,"o":"m 336 -4 q 483 68 454 -4 q 495 144 495 99 l 495 235 q 426 374 495 346 q 321 391 388 391 l 193 391 q 179 406 180 393 l 179 548 q 193 563 182 562 l 460 563 l 460 674 l 221 675 q 58 602 91 675 q 43 513 43 567 l 43 441 q 114 300 43 330 q 217 285 153 285 l 347 285 q 362 270 361 282 l 362 119 q 347 104 359 106 l 54 104 l 56 -4 l 336 -4 m 209 -205 l 252 -205 q 210 -313 245 -259 l 252 -347 q 331 -183 330 -269 l 331 -61 l 209 -61 l 209 -205 z "},"Ț":{"ha":571,"x_min":7,"x_max":564,"o":"m 354 0 l 354 741 l 564 741 l 564 861 l 7 861 l 7 741 l 216 741 l 216 0 l 354 0 m 222 -209 l 266 -209 q 224 -320 260 -264 l 267 -354 q 346 -187 346 -274 l 346 -62 l 222 -62 l 222 -209 z "},"ț":{"ha":403,"x_min":31,"x_max":397,"o":"m 397 665 l 241 665 l 241 834 l 109 834 l 109 665 l 31 665 l 31 560 l 109 560 l 109 167 q 198 14 109 43 q 296 0 237 0 l 397 0 l 397 113 l 256 113 q 241 127 243 115 l 241 560 l 397 560 l 397 665 m 194 -205 l 237 -205 q 195 -313 231 -259 l 237 -347 q 316 -183 315 -269 l 316 -61 l 194 -61 l 194 -205 z "},"ˉ":{"ha":491,"x_min":66,"x_max":425,"o":"m 425 880 l 66 880 l 66 783 l 425 783 l 425 880 z "},"₺":{"ha":718,"x_min":47,"x_max":665,"o":"m 469 -8 q 663 137 650 -9 q 665 165 665 151 l 665 349 l 524 349 l 524 132 q 509 117 521 118 l 277 117 l 277 330 l 458 395 l 458 475 l 277 408 l 277 484 l 458 549 l 458 629 l 277 563 l 277 814 l 138 814 l 138 511 l 47 479 l 47 399 l 138 431 l 138 357 l 47 324 l 47 245 l 138 278 l 138 -8 l 469 -8 z "},"₽":{"ha":722,"x_min":33,"x_max":666,"o":"m 255 0 l 255 168 l 444 168 l 444 264 l 255 264 l 255 334 l 469 334 q 665 492 651 334 q 666 522 666 507 l 666 633 q 461 819 663 822 l 117 814 l 117 431 l 33 431 l 33 334 l 117 334 l 117 264 l 33 264 l 33 168 l 117 168 l 117 0 l 255 0 m 507 697 q 525 680 524 694 l 525 449 q 507 431 522 433 l 255 431 l 255 697 l 507 697 z "},"ℓ":{"ha":609,"x_min":14,"x_max":575,"o":"m 574 -11 l 574 114 l 293 114 q 278 129 279 117 l 278 294 l 464 418 q 559 503 540 467 q 575 575 575 533 l 575 751 q 418 925 575 913 q 387 926 401 926 l 324 926 q 138 787 155 926 q 137 751 137 769 l 137 345 l 14 262 l 72 157 l 137 201 l 137 164 q 277 -7 137 14 q 332 -11 302 -11 l 574 -11 m 278 787 q 293 802 281 800 l 418 802 q 433 787 431 799 l 433 556 q 418 533 433 544 q 416 532 418 533 q 414 530 414 530 l 278 439 l 278 787 z "},"Ω":{"ha":754,"x_min":42,"x_max":712,"o":"m 309 0 l 309 118 l 233 140 q 218 156 220 145 l 218 732 q 233 747 221 746 l 519 747 q 533 732 532 745 l 533 156 q 518 140 530 144 l 442 118 l 442 0 l 712 0 l 712 121 l 616 121 q 675 262 675 165 l 675 697 q 538 868 675 846 q 480 872 511 872 l 271 872 q 80 745 102 872 q 76 697 76 722 l 76 262 q 136 121 77 164 l 42 121 l 42 0 l 309 0 z "},"∆":{"ha":720,"x_min":8,"x_max":712,"o":"m 712 0 l 435 861 l 290 861 l 8 0 l 712 0 m 544 121 l 175 121 l 361 712 l 544 121 z "},"∕":{"ha":624,"x_min":14,"x_max":602,"o":"m 492 872 l 14 -11 l 125 -11 l 602 872 l 492 872 z "},"∙":{"ha":399,"x_min":96,"x_max":302,"o":"m 96 331 q 170 251 96 258 q 189 250 179 250 l 210 250 q 302 331 297 262 l 302 429 q 236 509 302 499 q 210 510 224 510 l 189 510 q 98 448 106 510 q 96 429 96 438 l 96 331 z "},"ų":{"ha":621,"x_min":62,"x_max":571,"o":"m 297 -11 q 418 75 399 -9 l 429 0 l 454 0 l 380 -68 q 345 -157 345 -100 l 345 -189 q 425 -282 345 -267 q 481 -286 448 -286 l 571 -286 l 571 -195 l 460 -195 q 450 -186 452 -193 l 450 -126 q 461 -103 452 -114 l 548 0 l 545 665 l 412 665 l 414 98 l 212 98 q 197 113 198 100 l 197 665 l 62 665 l 62 138 q 144 -1 62 24 q 221 -11 176 -11 l 297 -11 z "},"ů":{"ha":621,"x_min":62,"x_max":548,"o":"m 297 -11 q 418 75 399 -9 l 429 0 l 548 0 l 545 665 l 412 665 l 414 98 l 212 98 q 197 113 198 100 l 197 665 l 62 665 l 62 138 q 144 -1 62 24 q 221 -11 176 -11 l 297 -11 m 437 854 q 381 972 437 948 q 301 985 351 985 q 182 932 205 985 q 170 854 170 903 q 227 738 170 761 q 301 726 255 726 q 429 791 406 726 q 437 854 437 817 m 240 854 q 260 917 240 907 q 301 924 274 924 q 361 899 351 924 q 366 854 366 884 q 339 792 366 803 q 301 787 324 787 q 243 818 251 787 q 240 854 240 831 z "},"v":{"ha":572,"x_min":7,"x_max":568,"o":"m 452 136 l 568 665 l 439 665 l 327 113 q 312 98 321 99 l 256 98 l 140 665 l 7 665 l 148 0 l 296 -7 q 419 39 387 -12 q 452 136 437 69 z "},"ඃ":{"ha":334,"x_min":37,"x_max":281,"o":"m 37 235 l 37 18 q 57 0 39 1 l 262 0 q 281 16 279 3 l 281 235 q 259 254 278 254 l 58 254 q 37 235 38 251 m 123 178 l 193 178 q 202 170 201 175 l 202 90 q 193 80 199 80 l 123 80 q 114 90 114 83 l 114 170 q 123 178 117 178 m 38 656 l 38 439 q 57 422 41 422 l 262 422 q 281 438 279 425 l 281 656 q 259 675 278 674 l 60 675 q 38 656 39 674 m 123 598 l 193 598 q 202 590 201 595 l 202 511 q 193 502 199 502 l 123 502 q 114 511 114 505 l 114 590 q 123 598 117 598 z "},"w":{"ha":935,"x_min":68,"x_max":867,"o":"m 323 -11 q 467 72 438 -9 q 609 -11 494 -9 l 709 -11 q 856 62 829 -11 q 867 138 867 94 l 865 665 l 732 665 l 734 113 q 719 98 731 99 l 547 98 q 532 113 533 100 l 532 665 l 401 665 l 401 113 q 387 98 399 99 l 216 98 q 201 113 202 100 l 201 665 l 68 665 l 68 132 q 137 1 68 27 q 225 -11 171 -11 l 323 -11 z "},"x":{"ha":610,"x_min":9,"x_max":606,"o":"m 148 0 l 258 266 q 271 278 263 277 l 338 278 q 351 264 347 275 l 465 0 l 606 0 l 507 218 q 445 323 471 302 q 418 336 431 331 q 481 430 450 355 q 490 449 486 439 l 581 665 l 449 665 l 343 401 q 327 389 336 389 l 288 389 q 271 403 277 392 l 168 665 l 33 665 l 122 449 q 186 342 156 363 q 193 338 190 339 q 129 266 156 324 q 107 218 121 250 l 9 0 l 148 0 z "},"y":{"ha":617,"x_min":62,"x_max":547,"o":"m 397 -157 l 87 -157 l 87 -269 l 358 -269 q 532 -189 498 -269 q 547 -102 547 -153 l 545 665 l 411 665 l 412 98 l 210 98 q 195 113 197 100 l 195 665 l 62 665 l 62 138 q 141 0 62 26 q 220 -11 174 -11 l 296 -11 q 412 62 389 -9 l 412 -142 q 397 -157 410 -156 z "},"ý":{"ha":617,"x_min":62,"x_max":547,"o":"m 397 -157 l 87 -157 l 87 -269 l 358 -269 q 532 -189 498 -269 q 547 -102 547 -153 l 545 665 l 411 665 l 412 98 l 210 98 q 195 113 197 100 l 195 665 l 62 665 l 62 138 q 141 0 62 26 q 220 -11 174 -11 l 296 -11 q 412 62 389 -9 l 412 -142 q 397 -157 410 -156 m 247 749 l 331 949 l 469 948 l 345 749 l 247 749 z "},"ÿ":{"ha":617,"x_min":62,"x_max":547,"o":"m 397 -157 l 87 -157 l 87 -269 l 358 -269 q 532 -189 498 -269 q 547 -102 547 -153 l 545 665 l 411 665 l 412 98 l 210 98 q 195 113 197 100 l 195 665 l 62 665 l 62 138 q 141 0 62 26 q 220 -11 174 -11 l 296 -11 q 412 62 389 -9 l 412 -142 q 397 -157 410 -156 m 240 777 l 240 909 l 121 909 l 121 777 l 240 777 m 484 777 l 484 909 l 365 909 l 365 777 l 484 777 z "},"¥":{"ha":732,"x_min":34,"x_max":699,"o":"m 616 160 l 616 243 l 434 243 l 434 311 l 616 311 l 616 392 l 518 392 q 530 420 524 404 l 699 814 l 560 814 l 408 426 q 392 412 401 412 l 347 412 q 330 426 334 415 l 179 814 l 34 814 l 198 420 q 210 392 203 404 l 114 392 l 114 311 l 296 311 l 296 243 l 114 243 l 114 160 l 296 160 l 296 0 l 434 0 l 434 160 l 616 160 z "},"z":{"ha":494,"x_min":15,"x_max":469,"o":"m 464 104 l 186 104 q 175 121 170 104 q 178 126 176 123 l 469 548 q 350 665 467 663 l 43 665 l 43 560 l 302 560 q 316 547 319 560 q 313 540 315 543 l 15 106 q 126 0 18 1 l 463 0 l 464 104 z "},"ź":{"ha":494,"x_min":15,"x_max":469,"o":"m 464 104 l 186 104 q 175 121 170 104 q 178 126 176 123 l 469 548 q 350 665 467 663 l 43 665 l 43 560 l 302 560 q 316 547 319 560 q 313 540 315 543 l 15 106 q 126 0 18 1 l 463 0 l 464 104 m 193 749 l 277 949 l 415 948 l 290 749 l 193 749 z "},"ž":{"ha":494,"x_min":15,"x_max":469,"o":"m 464 104 l 186 104 q 175 121 170 104 q 178 126 176 123 l 469 548 q 350 665 467 663 l 43 665 l 43 560 l 302 560 q 316 547 319 560 q 313 540 315 543 l 15 106 q 126 0 18 1 l 463 0 l 464 104 m 184 757 l 324 757 l 454 951 l 343 951 l 255 821 l 176 951 l 61 951 l 184 757 z "},"ż":{"ha":494,"x_min":15,"x_max":469,"o":"m 464 104 l 186 104 q 175 121 170 104 q 178 126 176 123 l 469 548 q 350 665 467 663 l 43 665 l 43 560 l 302 560 q 316 547 319 560 q 313 540 315 543 l 15 106 q 126 0 18 1 l 463 0 l 464 104 m 308 773 l 308 916 l 183 916 l 183 773 l 308 773 z "},"‍":{"ha":0,"x_min":-227,"x_max":227,"o":"m 57 888 l 227 722 l 168 665 l 42 791 l 42 -3 l -42 -3 l -42 791 l -168 665 l -227 722 l -57 888 l -227 1053 l -168 1111 l 0 943 l 168 1111 l 227 1053 l 57 888 z "},"‌":{"ha":0,"x_min":-42,"x_max":42,"o":"m -42 -3 l -42 1047 l 42 1047 l 42 -3 l -42 -3 z "}}}
